<svg width="75" height="75" viewBox="0 0 75 75" fill="none" xmlns="http://www.w3.org/2000/svg">
<path fill-rule="evenodd" clip-rule="evenodd" d="M74 1H1V74H74V1ZM0 0V75H75V0H0Z" fill="#C81912"/>
<path fill-rule="evenodd" clip-rule="evenodd" d="M33.0384 19H50.9796C51.5318 19 52.0437 19.2429 52.4074 19.6286C52.771 20.0143 53 20.5571 53 21.1429V40.1714C53 40.7571 52.771 41.3 52.4074 41.6857C52.0437 42.0714 51.5318 42.3143 50.9796 42.3143H47.491V46.0143C47.491 46.6 47.262 47.1429 46.8984 47.5286C46.5347 47.9143 46.0229 48.1571 45.4706 48.1571H41.982V51.8571C41.982 52.4429 41.7531 52.9857 41.3894 53.3714C41.0257 53.7571 40.5139 54 39.9616 54H22.0204C21.4682 54 20.9563 53.7571 20.5927 53.3714C20.229 52.9857 20 52.4429 20 51.8571V32.8429C20 32.2571 20.229 31.7143 20.5927 31.3286C20.9563 30.9429 21.4682 30.7 22.0204 30.7H25.509V27C25.509 26.4143 25.738 25.8714 26.1016 25.4857C26.4653 25.1 26.9771 24.8571 27.5294 24.8571H31.018V21.1571C31.018 20.5714 31.2469 20.0286 31.6106 19.6429C31.9743 19.2429 32.4861 19 33.0384 19ZM46.4673 33C46.3731 33.0429 46.2922 33.1 46.2249 33.1714C46.1576 33.2429 46.1037 33.3286 46.0633 33.4286C46.0229 33.5286 46.0094 33.6286 46.0094 33.7286C46.0094 33.8286 46.0363 33.9286 46.0633 34.0286C46.1037 34.1286 46.1576 34.2143 46.2249 34.2857C46.2922 34.3571 46.3731 34.4143 46.4673 34.4571C46.5616 34.5 46.6559 34.5143 46.7502 34.5143C46.8445 34.5143 46.9388 34.5 47.0331 34.4571C47.1273 34.4143 47.2082 34.3571 47.2755 34.2857C47.3429 34.2143 47.3967 34.1286 47.4371 34.0286C47.4776 33.9286 47.491 33.8286 47.491 33.7286C47.491 33.6286 47.4776 33.5286 47.4371 33.4286C47.3967 33.3286 47.3429 33.2429 47.2755 33.1714C47.2082 33.1 47.1273 33.0429 47.0331 33C46.9388 32.9571 46.8445 32.9429 46.7502 32.9429C46.6559 32.9286 46.5616 32.9571 46.4673 33ZM28.4318 33.9143C28.2837 33.7571 28.0951 33.6857 27.9065 33.6857C27.718 33.6857 27.5294 33.7571 27.3812 33.9143C27.2331 34.0714 27.1657 34.2714 27.1657 34.4714C27.1657 34.6714 27.2331 34.8714 27.3812 35.0286L28.9706 36.7143C29.038 36.7857 29.1188 36.8429 29.2131 36.8857C29.3074 36.9286 29.4016 36.9429 29.4959 36.9429C29.5902 36.9429 29.6845 36.9286 29.7788 36.8857C29.8596 36.8429 29.9539 36.7857 30.0212 36.7143C30.1694 36.5571 30.2367 36.3571 30.2367 36.1571C30.2367 35.9571 30.1694 35.7571 30.0212 35.6L28.4318 33.9143ZM27.3812 40.3C27.2331 40.4571 27.1657 40.6571 27.1657 40.8571C27.1657 41.0571 27.2331 41.2571 27.3812 41.4143C27.4486 41.4857 27.5294 41.5429 27.6237 41.5857C27.718 41.6286 27.8122 41.6429 27.9065 41.6429C28.0008 41.6429 28.0951 41.6286 28.1894 41.5857C28.2702 41.5429 28.3645 41.4857 28.4318 41.4143L30.0212 39.7286C30.1694 39.5714 30.2367 39.3714 30.2367 39.1714C30.2367 38.9714 30.1694 38.7714 30.0212 38.6143C29.8731 38.4571 29.6845 38.3857 29.4959 38.3857C29.3074 38.3857 29.1188 38.4571 28.9706 38.6143L27.3812 40.3ZM27.9065 43.0571C27.718 43.0571 27.5294 43.1286 27.3812 43.2857C27.2331 43.4429 27.1657 43.6429 27.1657 43.8429C27.1657 44.0429 27.2331 44.2429 27.3812 44.4L28.9706 46.0857C29.038 46.1571 29.1188 46.2143 29.2131 46.2571C29.3074 46.3 29.4016 46.3143 29.4959 46.3143C29.5902 46.3143 29.6845 46.3 29.7788 46.2571C29.8596 46.2143 29.9539 46.1571 30.0212 46.0857C30.1694 45.9286 30.2367 45.7286 30.2367 45.5286C30.2367 45.3286 30.1694 45.1286 30.0212 44.9714L28.4318 43.2857C28.2837 43.1429 28.0951 43.0571 27.9065 43.0571ZM27.3812 49.6714C27.2331 49.8286 27.1657 50.0286 27.1657 50.2286C27.1657 50.4286 27.2331 50.6286 27.3812 50.7857C27.4486 50.8571 27.5294 50.9143 27.6237 50.9571C27.718 51 27.8122 51.0143 27.9065 51.0143C28.0008 51.0143 28.0951 51 28.1894 50.9571C28.2837 50.9143 28.3645 50.8571 28.4318 50.7857L30.0212 49.1C30.1694 48.9429 30.2367 48.7429 30.2367 48.5429C30.2367 48.3429 30.1694 48.1429 30.0212 47.9857C29.8731 47.8286 29.6845 47.7571 29.4959 47.7571C29.3074 47.7571 29.1188 47.8286 28.9706 47.9857L27.3812 49.6714ZM32.4861 47.7429C32.2976 47.7429 32.109 47.8143 31.9608 47.9714C31.8127 48.1286 31.7453 48.3286 31.7453 48.5286C31.7453 48.7286 31.8127 48.9286 31.9608 49.0857L33.5502 50.7714C33.6176 50.8429 33.6984 50.9 33.7927 50.9429C33.8869 50.9857 33.9812 51 34.0755 51C34.1698 51 34.2641 50.9857 34.3584 50.9429C34.4527 50.9 34.5335 50.8429 34.6008 50.7714C34.749 50.6143 34.8163 50.4143 34.8163 50.2143C34.8163 50.0143 34.749 49.8143 34.6008 49.6571L33.0114 47.9714C32.8633 47.8286 32.6747 47.7429 32.4861 47.7429ZM31.9608 44.9857C31.8127 45.1429 31.7453 45.3429 31.7453 45.5429C31.7453 45.7429 31.8127 45.9429 31.9608 46.1C32.0282 46.1714 32.109 46.2286 32.2033 46.2714C32.2976 46.3143 32.3918 46.3286 32.4861 46.3286C32.5804 46.3286 32.6747 46.3143 32.769 46.2714C32.8633 46.2286 32.9441 46.1714 33.0114 46.1L34.6008 44.4143C34.749 44.2571 34.8163 44.0571 34.8163 43.8571C34.8163 43.6571 34.749 43.4571 34.6008 43.3C34.4527 43.1429 34.2641 43.0714 34.0755 43.0714C33.8869 43.0714 33.6984 43.1429 33.5502 43.3L31.9608 44.9857ZM32.4861 38.3714C32.2976 38.3714 32.109 38.4429 31.9608 38.6C31.8127 38.7571 31.7453 38.9571 31.7453 39.1571C31.7453 39.3571 31.8127 39.5571 31.9608 39.7143L33.5502 41.4C33.6176 41.4714 33.6984 41.5286 33.7927 41.5714C33.8869 41.6143 33.9812 41.6286 34.0755 41.6286C34.1698 41.6286 34.2641 41.6143 34.3584 41.5714C34.4392 41.5286 34.5335 41.4714 34.6008 41.4C34.749 41.2429 34.8163 41.0429 34.8163 40.8429C34.8163 40.6429 34.749 40.4429 34.6008 40.2857L33.0114 38.6C32.8633 38.4571 32.6747 38.3714 32.4861 38.3714ZM31.9608 35.6143C31.8127 35.7714 31.7453 35.9714 31.7453 36.1714C31.7453 36.3714 31.8127 36.5714 31.9608 36.7286C32.0282 36.8 32.109 36.8571 32.2033 36.9C32.2976 36.9429 32.3918 36.9571 32.4861 36.9571C32.5804 36.9571 32.6747 36.9429 32.769 36.9C32.8633 36.8571 32.9441 36.8 33.0114 36.7286L34.6008 35.0429C34.749 34.8857 34.8163 34.6857 34.8163 34.4857C34.8163 34.2857 34.749 34.0857 34.6008 33.9286C34.4527 33.7714 34.2641 33.7 34.0755 33.7C33.8869 33.7 33.6984 33.7714 33.5502 33.9286L31.9608 35.6143ZM38.3723 36.9C38.4665 36.9429 38.5608 36.9571 38.6551 36.9571C38.7494 36.9571 38.8437 36.9429 38.938 36.9C39.0188 36.8571 39.1131 36.8 39.1804 36.7286C39.3286 36.5714 39.3959 36.3714 39.3959 36.1714C39.3959 35.9714 39.3286 35.7714 39.1804 35.6143L37.591 33.9286C37.4429 33.7714 37.2543 33.7 37.0657 33.7C36.8771 33.7 36.6886 33.7714 36.5404 33.9286C36.3923 34.0857 36.3249 34.2857 36.3249 34.4857C36.3249 34.6857 36.3923 34.8857 36.5404 35.0429L38.1298 36.7286C38.2106 36.8 38.2914 36.8571 38.3723 36.9ZM36.5404 40.3C36.3923 40.4571 36.3249 40.6571 36.3249 40.8571C36.3249 41.0571 36.3923 41.2571 36.5404 41.4143C36.6078 41.4857 36.6886 41.5429 36.7829 41.5857C36.8772 41.6286 36.9714 41.6429 37.0657 41.6429C37.16 41.6429 37.2543 41.6286 37.3486 41.5857C37.4294 41.5429 37.5237 41.4857 37.591 41.4143L39.1804 39.7286C39.3286 39.5714 39.3959 39.3714 39.3959 39.1714C39.3959 38.9714 39.3286 38.7714 39.1804 38.6143C39.0322 38.4571 38.8437 38.3857 38.6551 38.3857C38.4665 38.3857 38.278 38.4571 38.1298 38.6143L36.5404 40.3ZM37.591 43.3C37.4429 43.1429 37.2543 43.0714 37.0657 43.0714C36.8771 43.0714 36.6886 43.1429 36.5404 43.3C36.3923 43.4571 36.3249 43.6571 36.3249 43.8571C36.3249 44.0571 36.3923 44.2571 36.5404 44.4143L38.1298 46.1C38.1972 46.1714 38.278 46.2286 38.3723 46.2714C38.4665 46.3143 38.5608 46.3286 38.6551 46.3286C38.7494 46.3286 38.8437 46.3143 38.938 46.2714C39.0188 46.2286 39.1131 46.1714 39.1804 46.1C39.3286 45.9429 39.3959 45.7429 39.3959 45.5429C39.3959 45.3429 39.3286 45.1429 39.1804 44.9857L37.591 43.3ZM36.5404 49.6714C36.3923 49.8286 36.3249 50.0286 36.3249 50.2286C36.3249 50.4286 36.3923 50.6286 36.5404 50.7857C36.6078 50.8571 36.6886 50.9143 36.7829 50.9571C36.8772 51 36.9714 51.0143 37.0657 51.0143C37.16 51.0143 37.2543 51 37.3486 50.9571C37.4429 50.9143 37.5237 50.8571 37.591 50.7857L39.1804 49.1C39.3286 48.9429 39.3959 48.7429 39.3959 48.5429C39.3959 48.3429 39.3286 48.1429 39.1804 47.9857C39.0322 47.8286 38.8437 47.7571 38.6551 47.7571C38.4665 47.7571 38.278 47.8286 38.1298 47.9857L36.5404 49.6714ZM23.3269 47.7429C23.1384 47.7429 22.9498 47.8143 22.8016 47.9714C22.6535 48.1286 22.5861 48.3286 22.5861 48.5286C22.5861 48.7286 22.6535 48.9286 22.8016 49.0857L24.391 50.7714C24.4584 50.8429 24.5392 50.9 24.6335 50.9429C24.7278 50.9857 24.822 51 24.9163 51C25.0106 51 25.1049 50.9857 25.1992 50.9429C25.2935 50.9 25.3743 50.8429 25.4416 50.7714C25.5898 50.6143 25.6571 50.4143 25.6571 50.2143C25.6571 50.0143 25.5898 49.8143 25.4416 49.6571L23.8522 47.9714C23.7041 47.8286 23.5155 47.7429 23.3269 47.7429ZM22.8016 44.9857C22.6535 45.1429 22.5861 45.3429 22.5861 45.5429C22.5861 45.7429 22.6535 45.9429 22.8016 46.1C22.869 46.1714 22.9498 46.2286 23.0441 46.2714C23.1384 46.3143 23.2327 46.3286 23.3269 46.3286C23.4212 46.3286 23.5155 46.3143 23.6098 46.2714C23.6906 46.2286 23.7849 46.1714 23.8522 46.1L25.4416 44.4143C25.5898 44.2571 25.6571 44.0571 25.6571 43.8571C25.6571 43.6571 25.5898 43.4571 25.4416 43.3C25.2935 43.1429 25.1049 43.0714 24.9163 43.0714C24.7278 43.0714 24.5392 43.1429 24.391 43.3L22.8016 44.9857ZM23.3269 38.3714C23.1384 38.3714 22.9498 38.4429 22.8016 38.6C22.6535 38.7571 22.5861 38.9571 22.5861 39.1571C22.5861 39.3571 22.6535 39.5571 22.8016 39.7143L24.391 41.4C24.4584 41.4714 24.5392 41.5286 24.6335 41.5714C24.7278 41.6143 24.822 41.6286 24.9163 41.6286C25.0106 41.6286 25.1049 41.6143 25.1992 41.5714C25.28 41.5286 25.3743 41.4714 25.4416 41.4C25.5898 41.2429 25.6571 41.0429 25.6571 40.8429C25.6571 40.6429 25.5898 40.4429 25.4416 40.2857L23.8522 38.6C23.7041 38.4571 23.5155 38.3714 23.3269 38.3714ZM23.6098 36.9C23.7041 36.8571 23.7849 36.8 23.8522 36.7286L25.4416 35.0429C25.5898 34.8857 25.6571 34.6857 25.6571 34.4857C25.6571 34.2857 25.5898 34.0857 25.4416 33.9286C25.2935 33.7714 25.1049 33.7 24.9163 33.7C24.7278 33.7 24.5392 33.7714 24.391 33.9286L22.8016 35.6143C22.6535 35.7714 22.5861 35.9714 22.5861 36.1714C22.5861 36.3714 22.6535 36.5714 22.8016 36.7286C22.869 36.8 22.9498 36.8571 23.0441 36.9C23.1384 36.9429 23.2327 36.9571 23.3269 36.9571C23.4212 36.9571 23.5155 36.9286 23.6098 36.9ZM40.3388 52.2714C40.4331 52.1714 40.5004 52.0286 40.5004 51.8714V32.8429C40.5004 32.6857 40.4331 32.5429 40.3388 32.4429C40.2445 32.3429 40.1098 32.2714 39.9616 32.2714H22.0204C21.8722 32.2714 21.7376 32.3429 21.6433 32.4429C21.549 32.5429 21.4816 32.6857 21.4816 32.8429V51.8714C21.4816 52.0286 21.5355 52.1714 21.6433 52.2714C21.7376 52.3714 21.8722 52.4429 22.0204 52.4429H39.9616C40.1098 52.4286 40.2445 52.3714 40.3388 52.2714ZM51.3567 40.5857C51.451 40.4857 51.5184 40.3429 51.5184 40.1857V21.1571C51.5184 21 51.4645 20.8571 51.3567 20.7571C51.2625 20.6571 51.1278 20.5857 50.9796 20.5857H33.0384C32.8902 20.5857 32.7555 20.6429 32.6612 20.7571C32.5669 20.8571 32.4996 21 32.4996 21.1571V24.8571H45.4706C46.0229 24.8571 46.5347 25.1 46.8984 25.4857C47.262 25.8714 47.491 26.4143 47.491 27V30.6714C47.491 30.8857 47.4102 31.0857 47.2755 31.2286C47.1408 31.3714 46.9522 31.4571 46.7502 31.4571C46.5482 31.4571 46.3596 31.3714 46.2249 31.2286C46.0902 31.0857 46.0094 30.8857 46.0094 30.6714V27C46.0094 26.8429 45.9555 26.7 45.8478 26.6C45.7535 26.5 45.6188 26.4286 45.4706 26.4286H27.5294C27.3812 26.4286 27.2465 26.5 27.1523 26.6C27.058 26.7 26.9906 26.8429 26.9906 27V30.7H39.9616C40.5139 30.7 41.0257 30.9429 41.3894 31.3286C41.7531 31.7143 41.982 32.2571 41.982 32.8429V46.6H45.4706C45.6188 46.6 45.7535 46.5429 45.8478 46.4286C45.942 46.3286 46.0094 46.1857 46.0094 46.0286V36.7857C46.0094 36.5714 46.0902 36.3714 46.2249 36.2286C46.3596 36.0857 46.5482 36 46.7502 36C46.9522 36 47.1408 36.0857 47.2755 36.2286C47.4102 36.3714 47.491 36.5714 47.491 36.7857V40.7571H50.9796C51.1278 40.7429 51.2625 40.6857 51.3567 40.5857Z" fill="#E5270E"/>
</svg>
