<svg width="75" height="75" viewBox="0 0 75 75" fill="none" xmlns="http://www.w3.org/2000/svg">
<path fill-rule="evenodd" clip-rule="evenodd" d="M74 1H1V74H74V1ZM0 0V75H75V0H0Z" fill="#C81912"/>
<path fill-rule="evenodd" clip-rule="evenodd" d="M45.8054 43.3847L49.9027 50.7032C49.9833 50.8418 50.0101 50.9942 49.9967 51.1328C49.9833 51.2853 49.9295 51.4239 49.8489 51.5487C49.7549 51.6734 49.634 51.7566 49.4997 51.812C49.3653 51.8536 49.2176 51.8675 49.0698 51.8259L45.577 50.8556L44.6501 54.4456C44.6098 54.598 44.5292 54.7228 44.4217 54.8198C44.3143 54.9168 44.1799 54.9861 44.0322 55H43.9381C43.8038 55 43.6695 54.9584 43.562 54.8891C43.4545 54.8198 43.3605 54.7228 43.2933 54.6119L38.8736 46.6974C38.7124 46.6835 38.5512 46.6419 38.39 46.6142C38.2154 46.5726 38.0407 46.5033 37.8661 46.434C37.584 46.3093 37.2885 46.2538 36.9929 46.2538C36.6974 46.2538 36.4018 46.3093 36.1197 46.434C35.9585 46.5033 35.7839 46.5588 35.6093 46.6004C35.448 46.6419 35.3003 46.6697 35.1391 46.6974L30.706 54.6119C30.6388 54.7366 30.5448 54.8337 30.4373 54.8891C30.3298 54.9584 30.1955 55 30.0612 55H29.9671C29.8194 54.9861 29.685 54.9168 29.5775 54.8198C29.4701 54.7228 29.3895 54.5842 29.3492 54.4456L28.4222 50.8556L24.9295 51.8259C24.7817 51.8675 24.634 51.8536 24.4996 51.812C24.3653 51.7704 24.2444 51.6734 24.1503 51.5487C24.0563 51.4239 24.0026 51.2714 24.0026 51.1328C23.9891 50.9804 24.0294 50.8279 24.0966 50.6893L28.1804 43.3847C27.8446 43.0797 27.5625 42.7193 27.3476 42.3174C27.1192 41.9015 26.9714 41.4303 26.9042 40.9313C26.8639 40.6125 26.7699 40.3214 26.6221 40.0581C26.4744 39.7947 26.2729 39.5591 26.0311 39.365C25.3594 38.8244 24.8892 38.076 24.6877 37.272C24.4728 36.4681 24.5131 35.581 24.8355 34.7632C24.9564 34.4722 25.0101 34.1672 25.0101 33.8623C25.0101 33.5573 24.9564 33.2524 24.8355 32.9613C24.5131 32.1435 24.4728 31.2703 24.6877 30.4525C24.9026 29.6347 25.3594 28.9001 26.0311 28.3595C26.2729 28.1655 26.4744 27.9299 26.6221 27.6665C26.7699 27.4031 26.8639 27.1121 26.9042 26.7933C27.0252 25.92 27.4147 25.13 27.9924 24.5478C28.57 23.9518 29.3223 23.5498 30.1686 23.4251C30.4776 23.3835 30.7597 23.2865 31.0149 23.134C31.2702 22.9816 31.4986 22.7736 31.6866 22.5241C32.2105 21.8311 32.936 21.346 33.7151 21.1381C34.4943 20.9163 35.354 20.9579 36.1466 21.2905C36.4287 21.4153 36.7243 21.4707 37.0198 21.4707C37.3153 21.4707 37.6109 21.4153 37.893 21.2905C38.6856 20.9579 39.5319 20.9163 40.3245 21.1381C41.1171 21.3598 41.829 21.8311 42.353 22.5241C42.541 22.7736 42.7694 22.9816 43.0246 23.134C43.2799 23.2865 43.562 23.3835 43.871 23.4251C44.7173 23.5498 45.4696 23.9518 46.0472 24.5478C46.6249 25.1438 47.0144 25.92 47.1353 26.7933C47.1756 27.1121 47.2697 27.4031 47.4174 27.6665C47.5652 27.9299 47.7667 28.1655 48.0085 28.3595C48.6802 28.9001 49.1504 29.6486 49.3519 30.4525C49.5668 31.2703 49.5265 32.1435 49.2041 32.9613C49.0832 33.2524 49.0295 33.5573 49.0295 33.8623C49.0295 34.1672 49.0832 34.4722 49.2041 34.7632C49.5265 35.581 49.5668 36.4543 49.3519 37.272C49.137 38.0898 48.6802 38.8244 48.0085 39.365C47.7667 39.5591 47.5652 39.7947 47.4174 40.0581C47.2697 40.3214 47.1756 40.6125 47.1353 40.9313C47.0682 41.4164 46.9204 41.8738 46.692 42.2896C46.4099 42.7332 46.1278 43.0936 45.8054 43.3847ZM37.2482 26.9042C37.3422 26.8626 37.4228 26.8071 37.49 26.7378C37.5571 26.6685 37.6109 26.5854 37.6512 26.4883C37.6915 26.3913 37.7049 26.2943 37.7049 26.1973C37.7049 26.1002 37.678 25.9893 37.6512 25.9062C37.6109 25.8092 37.5571 25.726 37.49 25.6567C37.4228 25.5874 37.3422 25.5319 37.2482 25.4904C37.1541 25.4488 37.0601 25.4349 36.9661 25.4349C36.872 25.4349 36.7646 25.4626 36.684 25.4904C36.5899 25.5319 36.5093 25.5874 36.4421 25.6567C36.375 25.726 36.3212 25.8092 36.2809 25.9062C36.2406 26.0032 36.2272 26.1002 36.2272 26.1973C36.2272 26.2943 36.2406 26.4052 36.2809 26.4883C36.3212 26.5854 36.375 26.6685 36.4421 26.7378C36.5093 26.8071 36.5899 26.8626 36.684 26.9042C36.778 26.9457 36.872 26.9596 36.9661 26.9596C37.0601 26.9735 37.1541 26.9457 37.2482 26.9042ZM44.9994 31.5337C44.7442 30.702 44.3814 29.912 43.8844 29.1773C43.4142 28.4704 42.8366 27.8328 42.1917 27.3061C41.5469 26.7794 40.835 26.3497 40.0558 26.0309C39.8677 25.9478 39.6528 25.9616 39.4782 26.0448C39.3035 26.128 39.1557 26.2666 39.0751 26.4745C38.9945 26.6685 39.008 26.8903 39.0886 27.0705C39.1692 27.2507 39.3035 27.4031 39.505 27.4863C40.8349 28.0269 41.9231 28.9556 42.6888 30.106C43.4545 31.2564 43.8844 32.6564 43.8844 34.1256C43.8844 36.0939 43.1052 37.8819 41.8559 39.1848C40.6066 40.4739 38.8736 41.2778 36.9526 41.2778C35.045 41.2778 33.3121 40.4739 32.0493 39.1848C30.8 37.8958 30.0209 36.1077 30.0209 34.1256C30.0209 32.6564 30.4507 31.2564 31.2165 30.106C31.9822 28.9556 33.0703 28.0269 34.4002 27.4863C34.5883 27.4031 34.7361 27.2507 34.8167 27.0705C34.8973 26.8903 34.8973 26.6824 34.8301 26.4745C34.7495 26.2804 34.6017 26.128 34.4271 26.0448C34.2525 25.9616 34.051 25.9616 33.8494 26.0309C33.0703 26.3497 32.3583 26.7794 31.7135 27.3061C31.0687 27.8328 30.5045 28.4566 30.0209 29.1773C29.5372 29.8981 29.1611 30.702 28.9059 31.5337C28.6506 32.3653 28.5297 33.2385 28.5297 34.1256C28.5297 36.5236 29.4701 38.6997 31.0015 40.266C32.5329 41.8461 34.6286 42.8164 36.9526 42.8164C39.2766 42.8164 41.3857 41.8461 42.9037 40.266C44.4352 38.6858 45.3755 36.5236 45.3755 34.1256C45.389 33.2247 45.2546 32.3653 44.9994 31.5337ZM31.9687 33.4326C31.9016 33.5019 31.8478 33.5851 31.8075 33.6821C31.7672 33.7791 31.7538 33.8761 31.7538 33.9732C31.7538 34.0702 31.7672 34.1811 31.8075 34.2642C31.8478 34.3613 31.9016 34.4444 31.9687 34.5137L35.7033 38.367C35.7705 38.4363 35.8511 38.4918 35.9451 38.5334C36.0391 38.575 36.1332 38.5888 36.2272 38.5888C36.3212 38.5888 36.4287 38.5611 36.5093 38.5334C36.6034 38.4918 36.6839 38.4363 36.7511 38.367L41.9499 33.0029C42.0977 32.8504 42.1649 32.6564 42.1649 32.4623C42.1649 32.2683 42.0977 32.0604 41.9499 31.9218L39.9618 29.8704C39.8946 29.8011 39.814 29.7456 39.72 29.704C39.6259 29.6625 39.5319 29.6486 39.4378 29.6486C39.3438 29.6486 39.2363 29.6625 39.1557 29.704C39.0617 29.7456 38.9811 29.8011 38.9139 29.8704L36.2406 32.6287L35.0316 31.3812C34.9644 31.3119 34.8838 31.2564 34.7898 31.2149C34.6958 31.1733 34.6017 31.1594 34.5077 31.1594C34.4137 31.1594 34.3062 31.1733 34.2256 31.2149C34.1316 31.2564 34.051 31.3119 33.9838 31.3812L31.9687 33.4326ZM35.9451 34.4306C35.8511 34.389 35.7705 34.3335 35.7033 34.2642L34.4943 33.0168L33.5673 33.9732L36.2406 36.7315L40.3782 32.4623L39.4513 31.5059L36.778 34.2642C36.7108 34.3335 36.6302 34.389 36.5362 34.4306C36.4421 34.4722 36.3481 34.486 36.2541 34.486C36.1332 34.486 36.0257 34.4722 35.9451 34.4306ZM29.6044 49.7329L30.2627 52.2694L33.4464 46.5726C33.1106 46.4617 32.7748 46.2954 32.4792 46.0875C32.1434 45.8657 31.8478 45.5747 31.5926 45.242C31.4045 44.9925 31.1761 44.7846 30.9209 44.6321C30.6657 44.4797 30.3701 44.3826 30.0746 44.341C29.9403 44.3272 29.8194 44.2995 29.685 44.2579C29.591 44.2302 29.4835 44.2024 29.3895 44.1747L26.2057 49.8715L28.6775 49.1923C28.7715 49.1646 28.8656 49.1646 28.973 49.1785C29.0671 49.1923 29.1611 49.22 29.2551 49.2755C29.3357 49.3309 29.4163 49.4002 29.4701 49.4695C29.5372 49.5388 29.5775 49.6359 29.6044 49.7329ZM34.0241 45.145C34.5077 45.2836 35.0182 45.2559 35.5018 45.0479C35.972 44.8539 36.4556 44.7569 36.9526 44.7569C37.4497 44.7569 37.9333 44.8539 38.4035 45.0479C38.8871 45.2559 39.3975 45.2697 39.8812 45.145C40.3648 45.0064 40.7946 44.7291 41.1171 44.2995C41.426 43.8836 41.8022 43.551 42.2186 43.3015C42.6485 43.052 43.1187 42.8857 43.6157 42.8164C44.1262 42.7471 44.5964 42.4976 44.9457 42.1372C45.2949 41.7768 45.5367 41.3055 45.6039 40.765C45.6711 40.2521 45.8323 39.767 46.0741 39.3234C46.3159 38.8799 46.6517 38.4918 47.0413 38.1869C47.4577 37.8542 47.7264 37.4106 47.8608 36.9117C47.9951 36.4127 47.9682 35.886 47.7667 35.387C47.5787 34.9018 47.4846 34.4028 47.4846 33.89C47.4846 33.391 47.5787 32.8782 47.7667 32.393C47.9682 31.894 47.9817 31.3673 47.8608 30.8683C47.7264 30.3694 47.4577 29.9258 47.0413 29.5932C46.6383 29.2744 46.3159 28.8863 46.0741 28.4566C45.8323 28.0269 45.6711 27.5279 45.6039 27.015C45.5367 26.4883 45.2949 26.0032 44.9457 25.6428C44.5964 25.2824 44.1396 25.0329 43.6157 24.9636C43.1187 24.8943 42.6485 24.728 42.2186 24.4785C41.8022 24.229 41.4126 23.8825 41.1171 23.4805C40.7946 23.0647 40.3648 22.7736 39.8812 22.635C39.3975 22.4964 38.8871 22.5241 38.4035 22.7321C37.9333 22.9261 37.4497 23.0231 36.9526 23.0231C36.469 23.0231 35.972 22.9261 35.5152 22.7321C35.3809 22.6766 35.2331 22.635 35.0853 22.5934C34.9376 22.5657 34.7898 22.5519 34.642 22.5519C34.2928 22.5519 33.9301 22.635 33.6211 22.8014C33.3121 22.9538 33.03 23.1895 32.8151 23.4805C32.5061 23.8964 32.1299 24.229 31.7135 24.4785C31.2836 24.728 30.8134 24.8943 30.3164 24.9636C29.8059 25.0329 29.3357 25.2824 28.9865 25.6428C28.6372 26.0032 28.3954 26.4745 28.3282 27.015C28.261 27.5279 28.0998 28.013 27.858 28.4566C27.6162 28.9001 27.2804 29.2882 26.8908 29.5932C26.4744 29.9258 26.2057 30.3694 26.0714 30.8683C25.937 31.3673 25.9639 31.894 26.1654 32.393C26.3535 32.8782 26.4475 33.3772 26.4475 33.8761C26.4475 34.3751 26.3535 34.888 26.1654 35.3592C25.9639 35.8582 25.9505 36.3849 26.0714 36.8839C26.2057 37.3829 26.4744 37.8265 26.8908 38.1591C27.2938 38.4779 27.6162 38.866 27.858 39.2957C28.0998 39.7393 28.261 40.2244 28.3282 40.7372C28.3954 41.2639 28.6372 41.7491 28.9865 42.1095C29.3357 42.4698 29.7925 42.7193 30.3164 42.7886C30.8134 42.8579 31.2836 43.0243 31.7135 43.2738C32.1299 43.5233 32.5195 43.8698 32.8151 44.2717C33.0972 44.7153 33.5405 45.0064 34.0241 45.145ZM44.6635 49.2616C44.8248 49.1646 45.0263 49.123 45.2278 49.1785L47.6995 49.8576L44.5023 44.147C44.3949 44.1886 44.3008 44.2163 44.1934 44.244C44.059 44.2717 43.9247 44.2995 43.7904 44.3272C43.4814 44.3688 43.1993 44.4658 42.944 44.6183C42.6888 44.7707 42.4604 44.9786 42.2723 45.2281C42.0305 45.5608 41.735 45.838 41.4126 46.0736C41.1171 46.2816 40.7946 46.4479 40.4588 46.5588L43.656 52.2556L44.3143 49.719C44.368 49.525 44.4889 49.3587 44.6635 49.2616Z" fill="#E5270E"/>
</svg>
