<svg width="75" height="75" viewBox="0 0 75 75" fill="none" xmlns="http://www.w3.org/2000/svg">
<path fill-rule="evenodd" clip-rule="evenodd" d="M74 1H1V74H74V1ZM0 0V75H75V0H0Z" fill="#C81912"/>
<path fill-rule="evenodd" clip-rule="evenodd" d="M29.2716 29.2584C28.6094 28.9688 27.8908 28.762 27.144 28.6655C27.0313 28.6517 26.9186 28.6104 26.82 28.5552C26.7213 28.5001 26.6368 28.4174 26.5804 28.3208C26.5241 28.2243 26.4818 28.114 26.4677 28.0037C26.4536 27.8934 26.4677 27.7831 26.4959 27.6728C26.6791 27.1076 26.9045 26.5423 27.1863 26.0184C27.454 25.4945 27.7781 24.9843 28.1303 24.5018C28.2571 24.3225 28.4544 24.226 28.6516 24.1985C28.8489 24.1709 29.0602 24.2122 29.2434 24.3363C29.4266 24.4604 29.5252 24.6534 29.5534 24.8465C29.5816 25.0395 29.5393 25.2463 29.4125 25.4255C29.173 25.7426 28.9616 26.0597 28.7784 26.4044C28.6094 26.7077 28.4544 27.0111 28.3135 27.3282C29.0039 27.4936 29.6802 27.7418 30.3001 28.0451C30.9624 28.376 31.5823 28.7896 32.1459 29.2722C32.9631 29.9753 33.9071 30.5268 34.9075 30.9266C35.9079 31.3265 36.9928 31.5471 38.0777 31.5884C39.1908 31.6298 40.2898 31.4919 41.3465 31.1748C42.3892 30.8577 43.3895 30.3614 44.2772 29.6996C44.6153 29.4514 44.9394 29.1757 45.2494 28.8861C45.5171 28.6242 45.7848 28.3484 46.0243 28.0451C45.7566 27.8521 45.4748 27.6728 45.193 27.4936C44.8831 27.3006 44.559 27.1214 44.2349 26.9559C44.0236 26.8456 43.8122 26.7491 43.6009 26.6664C43.4036 26.5837 43.2205 26.5009 43.0232 26.432L40.7688 28.2381C40.6984 28.2933 40.6138 28.3346 40.5293 28.3622C40.4448 28.3898 40.3462 28.4036 40.2616 28.4036C40.1489 28.4036 40.0221 28.376 39.9235 28.3346C39.8248 28.2933 39.7262 28.2105 39.6557 28.1278C39.5148 27.9624 39.4585 27.7556 39.4726 27.5625C39.4867 27.3695 39.5853 27.1765 39.7544 27.0386L41.2197 25.8667C40.7266 25.7564 40.2334 25.6599 39.7262 25.6048C39.1485 25.5358 38.5708 25.4945 37.9791 25.4945C37.3027 25.4945 36.6123 25.5496 35.9501 25.6461C35.2738 25.7426 34.6257 25.8943 33.9776 26.0735C33.7662 26.1287 33.5549 26.1011 33.3717 26.0184C33.1886 25.9219 33.0477 25.7702 32.9913 25.5634C32.9349 25.3566 32.9631 25.1498 33.0476 24.9705C33.1463 24.7913 33.3013 24.6534 33.5126 24.5983C34.0198 24.4466 34.513 24.3225 35.0202 24.226C35.4429 24.1433 35.8797 24.0882 36.3024 24.033L36.0488 23.8124C35.8797 23.6745 35.7951 23.4815 35.7811 23.2747C35.767 23.0817 35.8374 22.8749 35.9783 22.7094C36.1192 22.5578 36.3165 22.4613 36.5137 22.4475C36.711 22.4337 36.9223 22.5026 37.0914 22.6405L38.6131 23.9503C39.7121 23.9916 40.797 24.1571 41.8537 24.4191C42.9105 24.6948 43.9531 25.0808 44.9394 25.5772L45.1367 25.6737C45.0521 25.5496 44.9676 25.4393 44.8831 25.329C44.249 24.5018 43.5023 23.7986 42.6569 23.2196C41.8115 22.6543 40.8675 22.2131 39.8671 21.9236C38.8808 21.6478 37.8663 21.5237 36.8378 21.5651C35.8092 21.6065 34.8089 21.7857 33.8508 22.1304C33.6394 22.1993 33.4281 22.1855 33.2449 22.1028C33.0617 22.0201 32.9068 21.8684 32.8363 21.6616C32.7659 21.4548 32.78 21.248 32.8645 21.0688C32.949 20.8895 33.104 20.7379 33.3154 20.6689C34.4284 20.2691 35.5979 20.0485 36.7814 20.0071C37.965 19.9658 39.1485 20.1036 40.3039 20.4345C41.4874 20.7654 42.5864 21.2756 43.5586 21.9374C44.5449 22.5991 45.4185 23.4264 46.1511 24.3915C46.5034 24.8602 46.8274 25.3566 47.0951 25.8667C47.3628 26.3631 47.5883 26.887 47.7855 27.4247C48.2364 27.7969 48.6732 28.1968 49.0818 28.6104C49.4904 29.0378 49.8849 29.479 50.2372 29.9477C50.364 30.1132 50.4203 30.3338 50.3921 30.5268C50.364 30.7198 50.2513 30.9128 50.0822 31.0369C50.0117 31.0921 49.9413 31.1197 49.8567 31.1472C49.7722 31.1748 49.6877 31.1886 49.6031 31.1886C49.4763 31.1886 49.3636 31.161 49.2509 31.1059C49.1382 31.0507 49.0536 30.9818 48.9691 30.8715C48.7014 30.513 48.4055 30.1821 48.1096 29.8512C47.8278 29.5479 47.5319 29.2722 47.236 28.9964C46.9543 29.3411 46.6584 29.672 46.3343 29.9753C45.9821 30.3062 45.6157 30.6233 45.2212 30.9128C44.249 31.6298 43.1641 32.1813 42.0369 32.5535C40.8956 32.9258 39.698 33.1188 38.4863 33.1188L38.0213 33.105C36.7532 33.0499 35.4993 32.7879 34.3298 32.3329C33.1604 31.8779 32.0614 31.2299 31.1174 30.4027C30.5538 29.9477 29.9338 29.5617 29.2716 29.2584ZM30.906 22.0339C30.6806 22.0339 30.4833 22.1166 30.3424 22.2545C30.2015 22.3923 30.117 22.5854 30.117 22.8059C30.117 23.0265 30.2015 23.2196 30.3424 23.3574C30.4833 23.4953 30.6806 23.578 30.906 23.578C31.1314 23.578 31.3287 23.4953 31.4696 23.3436C31.6105 23.2058 31.7091 23.0128 31.7091 22.7922C31.7091 22.5854 31.6246 22.3785 31.4696 22.2407C31.3287 22.1304 31.1314 22.0339 30.906 22.0339ZM53.971 36.8551C54.45 37.8754 54.7741 38.9784 54.915 40.1089C55.0981 41.5704 54.9854 43.0318 54.5768 44.4105C54.1823 45.7893 53.506 47.0853 52.5761 48.2434C51.6461 49.4015 50.5189 50.3391 49.2509 51.0284C47.9828 51.7178 46.5738 52.1728 45.0944 52.3382C44.869 52.3658 44.6435 52.3796 44.4322 52.3934C44.2067 52.4071 43.9813 52.4071 43.77 52.4071C43.4036 52.4071 43.0373 52.3934 42.671 52.352C42.3187 52.3244 41.9524 52.2693 41.6142 52.2003C41.0647 52.3934 40.4871 52.5726 39.9094 52.6967C39.3317 52.8345 38.7399 52.9311 38.1482 53H38.0495C37.8523 53 37.6691 52.9311 37.5282 52.807C37.3873 52.6829 37.2887 52.5174 37.2605 52.3244C37.2323 52.1176 37.3027 51.9108 37.4296 51.7591C37.5564 51.6075 37.7395 51.4972 37.965 51.4696C38.4158 51.4145 38.8526 51.3455 39.2894 51.249C39.698 51.1663 40.0925 51.056 40.487 50.9319C40.318 50.5183 40.1912 50.1047 40.0784 49.6773C39.9516 49.2085 39.8671 48.7397 39.8107 48.271C39.6557 47.0163 39.7262 45.7479 40.008 44.5208C40.2898 43.2938 40.7829 42.1219 41.4733 41.0602C42.1637 40.0124 43.0232 39.0749 44.0095 38.3166C44.9958 37.5583 46.1229 36.9517 47.3206 36.5518C48.011 36.3174 48.6591 35.9865 49.2509 35.5729C49.8426 35.1593 50.3781 34.6492 50.843 34.0701C50.9135 33.9874 51.0121 33.9047 51.1107 33.8633C51.2094 33.8082 51.3221 33.7806 51.4348 33.7806C51.5475 33.7806 51.6602 33.7944 51.773 33.8357C51.8716 33.8771 51.9702 33.946 52.0547 34.0288C52.8438 34.8836 53.4919 35.8349 53.971 36.8551ZM48.49 49.6773C49.5749 49.0844 50.5471 48.271 51.3362 47.2921C52.1393 46.2994 52.7169 45.1826 53.0551 43.9969C53.3933 42.8112 53.4919 41.5704 53.3369 40.3019C53.2383 39.4471 53.0129 38.6199 52.6747 37.8478C52.3647 37.1033 51.9561 36.4002 51.4489 35.7659C50.9557 36.2761 50.4062 36.7173 49.8145 37.0895C49.1945 37.4894 48.5182 37.8065 47.8137 38.0408C46.7852 38.3855 45.8271 38.8957 44.9676 39.5574C44.1222 40.2192 43.3754 41.0051 42.7978 41.9151C42.206 42.825 41.7833 43.8453 41.5438 44.8931C41.3042 45.9409 41.2479 47.0301 41.3747 48.1193C41.4311 48.5329 41.5015 48.9465 41.6142 49.3464C41.7128 49.7048 41.8256 50.0633 41.9665 50.4218C42.2764 50.2839 42.5723 50.146 42.8682 49.9944C43.1923 49.8289 43.5022 49.6359 43.8122 49.4429C44.0095 49.3188 44.2067 49.1947 44.3899 49.0568C44.559 48.9328 44.7281 48.8225 44.8831 48.6846L44.404 45.8582C44.3758 45.6514 44.4322 45.4446 44.5449 45.2929C44.6576 45.1275 44.8408 45.0172 45.0662 44.9758H45.0803C45.2917 44.9482 45.503 45.0034 45.658 45.1137C45.8271 45.224 45.9398 45.4032 45.9821 45.6238L46.292 47.4437C46.6443 47.0853 46.9683 46.713 47.2783 46.3132C47.6306 45.8582 47.9546 45.3894 48.2505 44.8793C48.5887 44.3003 48.8845 43.7074 49.1382 43.087C49.3918 42.4665 49.589 41.8323 49.744 41.1981C49.8004 40.9913 49.9272 40.8259 50.0963 40.7156C50.2653 40.6053 50.4767 40.5639 50.688 40.6191C50.8994 40.6742 51.0685 40.7983 51.1812 40.9637C51.2939 41.1292 51.3362 41.336 51.2798 41.5428C51.1671 42.0391 51.0121 42.5355 50.843 43.0042C50.7021 43.4041 50.5471 43.8039 50.364 44.19L50.688 44.0797C50.8994 44.0107 51.1107 44.0383 51.2939 44.121C51.4771 44.2037 51.618 44.3692 51.6884 44.5622C51.7589 44.769 51.7307 44.9758 51.6461 45.1551C51.5616 45.3343 51.3925 45.4722 51.1953 45.5411L49.2791 46.1753C48.6873 47.0853 48.011 47.9263 47.2501 48.6846C46.4752 49.4429 45.6157 50.1323 44.6858 50.7251L44.5026 50.8354C44.6435 50.8216 44.7844 50.8078 44.9394 50.794C46.1934 50.6562 47.4051 50.2701 48.49 49.6773ZM33.8649 43.542C33.6817 42.3149 33.3013 41.1292 32.7095 40.0262C32.1177 38.9094 31.3146 37.903 30.3706 37.0482C29.4266 36.1934 28.3417 35.504 27.144 35.0077C26.6932 34.8146 26.2282 34.663 25.7632 34.5389C25.3265 34.4148 24.8897 34.3321 24.4529 34.2631C24.5374 33.8771 24.6502 33.4773 24.777 33.0912C24.9179 32.6776 25.0728 32.264 25.2419 31.8504C25.3265 31.6574 25.3265 31.4368 25.256 31.2575C25.1856 31.0783 25.0306 30.9128 24.8333 30.8301C24.6361 30.7474 24.4106 30.7474 24.2275 30.8163C24.0443 30.8853 23.8752 31.0369 23.7907 31.2299C23.5512 31.7677 23.3539 32.3191 23.1848 32.8844C23.0157 33.4359 22.8748 34.0012 22.7762 34.5802C22.3958 35.0077 22.0576 35.4626 21.7477 35.9314C21.4377 36.4139 21.1559 36.9379 20.9164 37.4756C20.3246 38.8129 20.0146 40.233 20.0005 41.6531C19.9864 43.0732 20.2541 44.4933 20.8036 45.8582C21.3672 47.2231 22.1844 48.4502 23.1989 49.4705C24.2134 50.4907 25.4533 51.318 26.8341 51.897C27.5245 52.1866 28.243 52.4071 28.9757 52.5588C29.7084 52.7105 30.4551 52.7794 31.2019 52.7794C31.6105 52.7794 32.0191 52.7518 32.4277 52.7105C32.8363 52.6691 33.2449 52.6002 33.6535 52.5037C33.7662 52.4761 33.879 52.4347 33.9635 52.3658C34.048 52.2968 34.1326 52.2141 34.1889 52.1038C34.2453 52.0073 34.2735 51.897 34.2735 51.7867C34.2735 51.6764 34.2594 51.5661 34.2171 51.4558C33.9353 50.7665 33.7521 50.0633 33.6817 49.3464C33.6112 48.6294 33.6394 47.9263 33.7803 47.2231C34.0058 46.0099 34.0339 44.769 33.8649 43.542ZM24.312 48.3813C23.4384 47.4989 22.734 46.4511 22.2549 45.2791C21.7758 44.1072 21.5504 42.8802 21.5645 41.6669C21.5786 40.4536 21.8463 39.2403 22.3535 38.0822C22.4099 37.9443 22.4662 37.8202 22.5367 37.6962L22.5508 37.903C22.6071 38.9922 22.7762 40.0676 23.0721 41.1016C23.3539 42.1219 23.7625 43.1283 24.2697 44.0797L23.8752 46.0237C23.8329 46.2305 23.8752 46.4373 23.9879 46.6027C24.1007 46.7682 24.2838 46.8923 24.4952 46.9336L24.5797 46.9474H24.6642C24.8474 46.9474 25.0306 46.8785 25.1715 46.7682C25.3124 46.6579 25.411 46.5062 25.4392 46.327L25.5096 46.0099C25.7632 46.3545 26.031 46.6854 26.3268 47.0025C26.665 47.3886 27.0313 47.7471 27.4117 48.1055C27.4822 48.1745 27.5667 48.2296 27.6654 48.2572C27.764 48.2985 27.8626 48.3123 27.9612 48.3123C28.074 48.3123 28.1726 48.2848 28.2712 48.2434C28.3698 48.202 28.4544 48.1469 28.5389 48.0642C28.6939 47.9125 28.7643 47.7057 28.7503 47.5127C28.7503 47.3197 28.6657 47.1266 28.4967 46.975C28.0035 46.52 27.5385 46.0374 27.1299 45.5135C26.7073 44.9896 26.3268 44.4381 25.9887 43.8728C25.6928 43.3765 25.4392 42.8526 25.2137 42.3287C25.0165 41.8737 24.8474 41.4049 24.7065 40.9362L26.4677 41.5842C26.51 41.598 26.5523 41.6117 26.6086 41.6255C26.6509 41.6393 26.7072 41.6393 26.7495 41.6393C26.9186 41.6393 27.0736 41.5842 27.2004 41.5014C27.3272 41.4187 27.4258 41.2946 27.4963 41.143V41.1292C27.5667 40.9362 27.5526 40.7156 27.4681 40.5501C27.3836 40.3709 27.2286 40.2192 27.0313 40.1503L24.2979 39.1438C24.2697 38.937 24.2416 38.7302 24.2134 38.5372C24.1852 38.3166 24.1711 38.0822 24.157 37.8616C24.1429 37.5031 24.1429 37.1447 24.1429 36.7862C24.157 36.4553 24.1711 36.1382 24.2134 35.8073C24.5938 35.8625 24.9742 35.9452 25.3405 36.0417C25.7491 36.152 26.1578 36.2899 26.5382 36.4553C27.5667 36.8827 28.4967 37.4756 29.2998 38.2063C30.1029 38.937 30.7933 39.8056 31.3005 40.7569C31.8078 41.7082 32.1459 42.7285 32.3009 43.7763C32.4559 44.8242 32.4277 45.8996 32.2164 46.9474C32.0755 47.6643 32.0191 48.3951 32.0614 49.1258C32.1036 49.8151 32.2163 50.5045 32.4136 51.1663C31.5964 51.2766 30.7651 51.2628 29.9479 51.1663C29.0884 51.056 28.2571 50.8354 27.4399 50.4907C26.2564 49.9806 25.1996 49.2637 24.312 48.3813Z" fill="#E5270E"/>
</svg>
