<svg width="75" height="75" viewBox="0 0 75 75" fill="none" xmlns="http://www.w3.org/2000/svg">
<path fill-rule="evenodd" clip-rule="evenodd" d="M74 1H1V74H74V1ZM0 0V75H75V0H0Z" fill="#C81912"/>
<path fill-rule="evenodd" clip-rule="evenodd" d="M44.5027 42.0629H52.227C52.4606 42.0629 52.6943 42.1179 52.9005 42.2003C53.1204 42.2965 53.3128 42.4202 53.4777 42.5852C53.6426 42.7501 53.7801 42.9425 53.8626 43.1624C53.945 43.3686 54 43.6022 54 43.8359V50.227C54 50.4606 53.945 50.6943 53.8626 50.9005C53.7663 51.1204 53.6426 51.3128 53.4777 51.4777C53.3128 51.6426 53.1204 51.7801 52.9005 51.8626C52.6943 51.945 52.4606 52 52.227 52H21.7972C21.5773 52 21.3711 51.9038 21.2337 51.7663C21.1649 51.6976 21.0962 51.6014 21.055 51.5052C21.0275 51.409 21 51.3128 21 51.2028V20.773C21 20.5394 21.055 20.3057 21.1374 20.0995C21.2337 19.8796 21.3574 19.6872 21.5223 19.5223C21.6872 19.3574 21.8796 19.2199 22.0995 19.1374C22.3057 19.055 22.5394 19 22.773 19H29.1641C29.3978 19 29.6314 19.055 29.8376 19.1374C30.0575 19.2337 30.2499 19.3574 30.4148 19.5223C30.5798 19.6872 30.7035 19.8796 30.7997 20.0995C30.8821 20.3057 30.9371 20.5394 30.9371 20.773V28.4973L34.7305 21.9275C34.8542 21.7214 35.0054 21.5427 35.1841 21.4052C35.3765 21.2678 35.5827 21.1579 35.8026 21.1029C36.0225 21.0479 36.2561 21.0204 36.4898 21.0616C36.7097 21.0891 36.9434 21.1579 37.1495 21.2815L42.6747 24.4702C42.8809 24.5939 43.0596 24.7451 43.197 24.9238C43.3344 25.1162 43.4444 25.3224 43.4994 25.5423C43.5544 25.7622 43.5818 25.9958 43.5406 26.2295C43.5131 26.4494 43.4444 26.6693 43.3207 26.8892L39.5273 33.459L46.097 29.6656C46.3032 29.5419 46.5231 29.4731 46.7568 29.4456C46.9904 29.4182 47.2241 29.4319 47.444 29.4869C47.6639 29.5419 47.8838 29.6518 48.0625 29.7893C48.2411 29.9267 48.3923 30.1054 48.516 30.3115L51.7047 35.8367C51.8284 36.0429 51.8971 36.2628 51.9246 36.4965C51.9521 36.7301 51.9384 36.9638 51.8834 37.1837C51.8284 37.4036 51.7185 37.6235 51.581 37.8022C51.4436 37.9808 51.2649 38.132 51.0587 38.2557L44.5027 42.0629ZM27.0337 46.8322C26.9788 46.5573 26.8276 46.3236 26.6214 46.1587C26.4152 45.9938 26.1404 45.9113 25.8517 45.9525L25.7555 45.9663C25.4669 46.0212 25.2195 46.1999 25.0683 46.4336C24.9171 46.6672 24.8484 46.9558 24.9034 47.2445C24.9584 47.5331 25.137 47.7805 25.3707 47.9317C25.6043 48.0829 25.893 48.1516 26.1953 48.0966C26.4702 48.0416 26.7039 47.8767 26.8551 47.6706C27.02 47.4506 27.0887 47.1895 27.0612 46.9146L27.0337 46.8322ZM37.2595 42.0629H41.314L43.6643 40.7022L40.297 34.8609L34.9092 37.9671L37.2595 42.0629ZM31.6656 38.0083L28.3807 36.1116L25.0958 41.8018L31.6656 38.0083ZM33.2599 37.0875L36.7784 35.0533L38.1391 32.703L32.284 29.3357L29.1778 34.7234L33.2599 37.0875ZM27.3086 34.7647L29.3428 31.2461V28.5385H22.5943V34.7647H27.3086ZM22.5943 36.359V42.0629H23.1029L26.4015 36.359H22.5943ZM35.4177 42.0629L33.521 38.778L27.8172 42.0629H35.4177ZM36.641 50.4057V43.6572H30.9371V50.4057H36.641ZM44.4615 43.6572H38.2353V50.4057H44.4615V43.6572ZM50.4402 36.7988L47.0591 30.9575L41.6714 34.0637L45.0387 39.905L50.4402 36.7988ZM42.0425 25.9409L36.2012 22.5735L33.0812 27.9475L38.9225 31.3149L42.0425 25.9409ZM29.3428 26.9442V20.5943H22.5943V26.9442H29.3428ZM29.3428 43.6572H22.5943V50.4057H29.3428V43.6572ZM46.0421 50.4057H52.3919V43.8771L52.4057 43.8496C52.4332 43.7809 52.4606 43.7259 52.4469 43.7122C52.3919 43.671 52.2545 43.6572 51.9521 43.6572H46.0421V50.4057Z" fill="#E5270E"/>
</svg>
