<svg width="75" height="75" viewBox="0 0 75 75" fill="none" xmlns="http://www.w3.org/2000/svg">
<path fill-rule="evenodd" clip-rule="evenodd" d="M74 1H1V74H74V1ZM0 0V75H75V0H0Z" fill="#C81912"/>
<path fill-rule="evenodd" clip-rule="evenodd" d="M50.6 25.8293H49.8V24.2195C49.8 22.4403 48.3684 21 46.6 21H24.2C22.4316 21 21 22.4403 21 24.2195V29.0488C21 30.828 22.4316 32.2683 24.2 32.2683H46.6C48.3684 32.2683 49.8 30.828 49.8 29.0488V27.439H50.6C51.0351 27.439 51.4 27.8062 51.4 28.2439V33.0732C51.4 33.5109 51.0351 33.878 50.6 33.878H37C35.6807 33.878 34.6 34.9653 34.6 36.2927V38.3119C33.0842 39.484 32.2 41.3055 32.2 43.2259V51.5854C32.2 52.9127 33.2807 54 34.6 54H36.2C37.5193 54 38.6 52.9127 38.6 51.5854V43.2259C38.6 41.3055 37.7158 39.484 36.2 38.3119V36.2927C36.2 35.8549 36.5649 35.4878 37 35.4878H50.6C51.9193 35.4878 53 34.4005 53 33.0732V28.2439C53 26.9024 51.9333 25.8293 50.6 25.8293ZM48.2 29.0488C48.2 29.9384 47.4842 30.6585 46.6 30.6585H24.2C23.3158 30.6585 22.6 29.9384 22.6 29.0488V24.2195C22.6 23.3299 23.3158 22.6098 24.2 22.6098H46.6C47.4842 22.6098 48.2 23.3299 48.2 24.2195V29.0488ZM37 43.2118V51.5712C37 52.009 36.6491 52.3761 36.2 52.3761H34.6C34.1649 52.3761 33.8 52.009 33.8 51.5712V43.2118C33.8 41.8703 34.3895 40.5854 35.4 39.7099C36.4246 40.5854 37 41.8703 37 43.2118Z" fill="#E5270E"/>
</svg>
