<svg width="75" height="75" viewBox="0 0 75 75" fill="none" xmlns="http://www.w3.org/2000/svg">
<path fill-rule="evenodd" clip-rule="evenodd" d="M74 1H1V74H74V1ZM0 0V75H75V0H0Z" fill="#C81912"/>
<path fill-rule="evenodd" clip-rule="evenodd" d="M52.5 29.2544H53.0163C53.5598 29.2544 54.0489 29.4733 54.4158 29.8428C54.769 30.1987 55 30.7051 55 31.2525V36.3572C55 36.6173 54.9457 36.8773 54.8505 37.1236C54.7554 37.3563 54.606 37.5753 54.4158 37.7669L50.6522 41.5578V51.261C50.6522 51.4663 50.5707 51.6442 50.4348 51.781C50.2989 51.9179 50.1223 52 49.9185 52H25.0815C24.8777 52 24.7011 51.9179 24.5652 51.781C24.4293 51.6442 24.3478 51.4663 24.3478 51.261V41.5578L20.5842 37.7669C20.394 37.5753 20.2581 37.3563 20.1494 37.1236C20.0543 36.891 20 36.631 20 36.3572V31.2388C20 30.6914 20.2174 30.1987 20.5842 29.8292C20.9375 29.4733 21.4402 29.2407 21.9837 29.2407H22.5V23.739C22.5 23.5337 22.5815 23.3558 22.7174 23.219C22.8533 23.0821 23.0299 23 23.2337 23H51.7935C51.9973 23 52.1739 23.0821 52.3098 23.219C52.4457 23.3558 52.5272 23.5337 52.5272 23.739V29.2544H52.5ZM46.644 43.4875L49.1712 40.942V33.2232H25.8016V40.942L28.3288 43.4875C28.3831 43.5422 28.4375 43.5696 28.4918 43.597C28.5462 43.6244 28.6141 43.638 28.6821 43.638H30.5435V42.5021C30.5435 42.2968 30.625 42.1189 30.7609 41.9821C30.8967 41.8452 31.0734 41.7631 31.2772 41.7631H43.6956C43.8994 41.7631 44.0761 41.8452 44.212 41.9821C44.3478 42.1189 44.4293 42.2968 44.4293 42.5021V43.638H46.2908C46.3587 43.638 46.4266 43.6244 46.481 43.597C46.5489 43.5696 46.6032 43.5422 46.644 43.4875ZM42.962 43.2411H32.0109V45.5267H42.962V43.2411ZM23.9402 28.8575V31.7589H51.0462V28.8575H23.9402ZM51.0326 27.3794V24.4781H23.9266V27.3794H51.0326ZM21.4538 31.2388V36.3436C21.4538 36.412 21.4674 36.4804 21.4946 36.5352C21.5217 36.5899 21.5625 36.6583 21.6033 36.6994L24.3342 39.4502V33.2095H23.2065C23.0027 33.2095 22.8261 33.1274 22.6902 32.9906C22.5543 32.8537 22.4728 32.6758 22.4728 32.4705V30.7324H21.9565C21.8206 30.7324 21.6848 30.7872 21.5897 30.883C21.5082 30.9651 21.4538 31.1019 21.4538 31.2388ZM25.8016 43.0222V50.5219H49.1712V43.0222L47.6766 44.5276C47.4864 44.7192 47.269 44.8561 47.038 44.9656C46.8071 45.0614 46.5489 45.1161 46.2772 45.1161H44.4157V46.252C44.4157 46.4573 44.3342 46.6352 44.1984 46.7721C44.0625 46.9089 43.8859 46.991 43.6821 46.991H31.2636C31.0598 46.991 30.8831 46.9089 30.7473 46.7721C30.6114 46.6352 30.5299 46.4573 30.5299 46.252V45.1161H28.6685C28.4103 45.1161 28.1522 45.0614 27.9076 44.9656C27.6766 44.8698 27.4592 44.7192 27.269 44.5276L25.8016 43.0222ZM53.4783 36.5488C53.5054 36.4941 53.519 36.4257 53.519 36.3572V31.2388C53.519 31.1019 53.4647 30.9651 53.3696 30.8693C53.2745 30.7735 53.1522 30.7187 53.0027 30.7187H52.4864V32.4842C52.4864 32.6895 52.4049 32.8674 52.269 33.0042C52.1332 33.1411 51.9565 33.2232 51.7527 33.2232H50.625V39.4639L53.356 36.7131C53.4239 36.672 53.4511 36.6173 53.4783 36.5488Z" fill="#E5270E"/>
</svg>
