<?xml version="1.0" standalone="no"?>
<!DOCTYPE svg PUBLIC "-//W3C//DTD SVG 20010904//EN"
 "http://www.w3.org/TR/2001/REC-SVG-20010904/DTD/svg10.dtd">
<svg version="1.0" xmlns="http://www.w3.org/2000/svg"
 width="124.000000pt" height="124.000000pt" viewBox="0 0 124.000000 124.000000"
 preserveAspectRatio="xMidYMid meet">
<metadata>
Created by potrace 1.14, written by Peter Selinger 2001-2017
</metadata>
<g transform="translate(0.000000,124.000000) scale(0.100000,-0.100000)"
fill="#000000" stroke="none">
<path d="M96 951 c4 -16 3 -21 -5 -17 -7 5 -9 1 -5 -8 3 -9 16 -16 28 -17 20
0 20 -1 1 -9 -17 -7 -17 -9 -2 -9 9 -1 17 -8 17 -16 0 -8 3 -14 8 -14 4 1 14
1 22 -1 11 -1 10 -4 -5 -11 -17 -8 -16 -9 8 -6 23 4 25 2 15 -11 -10 -13 -10
-14 0 -8 7 4 12 2 12 -6 0 -9 3 -9 10 2 5 8 10 10 10 3 0 -6 13 -10 29 -9 17
1 28 -2 25 -6 -3 -4 0 -8 6 -8 6 0 9 -4 6 -9 -3 -5 8 -7 24 -6 17 1 30 -1 30
-5 0 -10 20 -8 37 3 7 5 13 4 13 0 0 -5 9 -9 19 -9 11 0 17 4 15 8 -3 4 0 8 5
8 6 0 11 -5 11 -11 0 -5 4 -8 9 -5 5 3 11 -1 15 -9 3 -8 -3 -19 -14 -25 -25
-13 -33 -13 -24 3 4 6 -2 4 -13 -5 -11 -10 -24 -18 -29 -18 -5 0 -2 5 6 10 13
8 13 10 -1 10 -9 0 -22 -11 -29 -25 -7 -14 -15 -23 -18 -20 -3 2 1 11 8 20 19
23 2 18 -23 -6 -12 -12 -15 -18 -7 -14 13 8 13 6 2 -7 -10 -13 -10 -17 0 -22
9 -4 9 -5 -2 -5 -8 1 -22 1 -30 0 -13 -1 -13 -2 0 -11 11 -7 11 -10 2 -10 -7
0 -10 -4 -7 -10 3 -5 0 -10 -7 -10 -9 0 -9 -3 2 -10 13 -9 13 -10 0 -10 -12 0
-13 -2 -1 -9 11 -7 10 -11 -5 -19 -18 -10 -18 -11 -1 -18 17 -6 17 -7 0 -19
-10 -7 -22 -11 -28 -7 -5 3 -1 -5 9 -17 19 -21 19 -21 1 -15 -13 5 -16 4 -11
-4 4 -7 3 -12 -3 -12 -6 0 -8 -7 -5 -15 5 -13 9 -13 23 -3 14 12 15 11 2 -5
-11 -14 -16 -15 -29 -5 -13 11 -15 10 -9 -12 6 -23 5 -24 -8 -6 -8 10 -12 24
-9 30 3 6 -2 2 -10 -8 -9 -11 -16 -14 -16 -7 0 6 -8 11 -17 9 -10 -2 -17 2
-16 9 1 6 -3 16 -10 21 -9 8 -13 6 -13 -9 0 -10 4 -19 9 -19 5 0 6 -8 3 -17
-4 -10 -4 -14 0 -10 4 4 13 2 21 -5 11 -9 12 -7 7 7 -5 13 -4 16 4 11 7 -4 12
-14 12 -22 0 -8 5 -14 11 -14 5 0 7 -5 3 -11 -4 -7 2 -6 17 1 13 7 28 19 32
27 7 11 12 12 23 2 12 -10 13 -9 8 6 -5 11 -3 16 3 12 5 -3 9 7 8 25 -1 18 -7
34 -13 36 -7 2 -10 8 -6 13 6 10 36 -16 32 -28 -2 -4 2 -8 7 -8 6 0 10 12 9
27 0 15 3 25 8 22 5 -3 17 0 26 7 9 7 14 9 10 5 -4 -5 -3 -15 3 -23 9 -10 8
-13 -2 -13 -10 0 -10 -3 -1 -12 9 -9 7 -15 -6 -25 -9 -8 -12 -12 -5 -8 9 4 8
-6 -2 -36 -14 -37 -13 -40 1 -29 8 8 14 9 13 4 -3 -19 1 -35 9 -30 4 2 14 0
22 -6 12 -8 12 -9 -2 -4 -12 3 -18 0 -18 -9 0 -9 6 -12 18 -8 15 6 15 4 -2
-16 -17 -18 -17 -21 -3 -15 9 3 17 2 17 -3 0 -5 7 -10 15 -10 8 0 15 5 15 10
0 5 7 4 15 -3 12 -10 16 -9 21 4 3 9 11 13 17 9 6 -3 7 -1 3 5 -4 7 -5 16 -1
22 7 11 35 2 35 -12 0 -5 -4 -6 -10 -3 -6 3 -10 0 -10 -8 0 -7 6 -14 13 -14 6
0 21 -4 31 -9 15 -6 17 -4 11 7 -6 11 -5 11 5 2 9 -8 16 -7 31 5 21 18 16 32
-12 32 -10 0 -18 3 -18 8 5 29 -2 34 -23 16 -21 -18 -21 -17 2 16 13 19 29 38
35 42 5 4 6 8 0 8 -5 0 -20 -12 -32 -27 -13 -16 -22 -21 -21 -13 3 17 41 50
57 50 6 0 16 12 21 26 6 14 14 23 19 20 5 -4 12 -1 14 4 3 6 4 5 2 -2 -1 -7
-9 -12 -16 -10 -11 3 -11 1 -2 -9 10 -10 16 -9 29 2 12 9 15 10 10 2 -4 -8 -2
-13 4 -13 6 0 8 -5 4 -11 -4 -8 0 -8 15 0 12 7 21 8 20 4 -3 -19 2 -31 17 -37
8 -3 12 -2 9 4 -3 6 1 7 9 4 9 -3 16 -11 16 -16 0 -6 6 -5 15 2 12 10 15 10
15 0 0 -7 6 -10 14 -7 7 3 21 -4 30 -14 11 -13 24 -18 36 -14 15 5 18 2 15
-15 -4 -18 -2 -20 11 -9 12 10 13 9 8 -6 -6 -13 -4 -16 5 -10 10 6 11 2 6 -15
-5 -14 -3 -20 3 -16 6 3 13 0 15 -6 4 -10 6 -10 6 0 1 6 6 12 12 12 5 0 8 -4
5 -8 -2 -4 4 -8 15 -8 10 0 19 3 19 6 0 7 144 5 156 -2 5 -4 10 4 10 16 1 15
-4 22 -17 22 -14 0 -15 -3 -7 -13 8 -10 7 -12 -6 -7 -9 3 -16 9 -16 13 0 4 -7
8 -15 8 -11 0 -12 -4 -4 -14 19 -22 1 -15 -20 9 l-20 21 4 -24 c4 -23 3 -23
-10 -5 -9 11 -22 17 -33 13 -29 -7 -50 35 -31 60 11 14 9 14 -9 -2 -17 -14
-23 -16 -20 -5 2 8 8 18 13 22 6 5 5 8 -2 8 -7 0 -13 5 -13 11 0 5 4 8 8 5 5
-3 9 1 9 9 0 8 -4 12 -8 10 -11 -7 -5 29 6 37 6 5 5 8 -4 8 -11 0 -11 3 -1 15
7 8 8 15 3 15 -5 0 -10 7 -10 15 0 8 4 12 9 9 4 -3 8 2 8 10 0 19 16 21 24 4
5 -10 7 -10 12 -1 3 7 12 9 20 6 7 -3 11 -9 8 -14 -3 -5 0 -9 6 -9 6 0 9 -4 6
-9 -4 -5 3 -7 15 -4 12 4 25 0 30 -8 6 -10 10 -8 18 11 5 14 10 20 10 14 1 -6
8 -11 16 -11 10 0 12 4 5 12 -7 9 -6 14 4 18 8 3 20 -1 27 -9 8 -10 15 -11 25
-4 9 8 15 6 23 -7 13 -23 14 -8 1 17 -7 13 -7 21 2 26 6 4 8 3 5 -3 -4 -6 1
-17 11 -24 15 -12 16 -12 5 2 -8 10 -9 19 -3 27 6 7 7 10 4 7 -9 -7 -34 15
-34 29 0 6 5 4 10 -4 6 -9 10 -10 10 -3 0 14 -12 23 -41 28 -12 3 -24 7 -28
11 -3 4 1 5 10 2 9 -4 22 -3 28 2 9 5 3 7 -14 8 -34 0 -47 13 -34 32 9 12 10
11 5 -4 -6 -16 -4 -17 9 -6 12 10 13 15 4 21 -13 7 -21 48 -10 47 3 0 13 0 21
1 13 1 13 2 0 11 -13 9 -13 11 0 20 10 6 11 10 3 10 -7 0 -10 7 -7 15 4 8 11
12 18 8 6 -4 4 2 -4 12 -10 13 -11 16 -2 11 10 -6 13 -3 10 11 -2 11 2 26 9
34 9 11 6 14 -18 16 -21 2 -28 -1 -22 -10 4 -7 -2 -5 -12 3 -11 9 -16 10 -11
3 5 -9 0 -13 -13 -13 -12 0 -21 5 -21 12 0 9 -3 9 -11 1 -9 -9 -18 -7 -37 5
-15 9 -23 12 -19 5 4 -6 3 -14 -3 -18 -5 -3 -10 -1 -10 5 0 7 -8 9 -21 5 -12
-4 -19 -3 -16 2 3 5 -5 9 -19 9 -16 0 -23 -5 -20 -12 3 -8 -1 -11 -11 -7 -13
5 -13 3 -5 -14 12 -22 7 -33 -16 -33 -12 0 -12 3 -2 16 11 12 10 18 -5 32 -10
9 -15 11 -11 5 9 -16 -20 -17 -30 -1 -5 7 -3 8 6 3 8 -5 11 -4 7 3 -4 5 -17 8
-29 4 -14 -3 -19 -1 -14 6 5 8 1 10 -10 5 -13 -5 -15 -3 -9 7 5 8 4 11 -3 6
-5 -3 -13 0 -16 6 -3 7 -3 2 1 -12 5 -20 3 -23 -8 -14 -18 14 -61 16 -53 2 4
-6 -2 -6 -15 1 -11 7 -21 14 -21 17 0 3 4 3 8 0 4 -2 14 0 22 5 12 7 10 8 -7
6 -12 -2 -26 -6 -29 -10 -4 -4 -12 -2 -19 3 -8 7 -12 5 -12 -4 0 -8 8 -13 19
-11 10 2 16 0 13 -6 -4 -5 -10 -7 -15 -4 -5 3 -11 1 -15 -5 -4 -6 -12 -7 -18
-3 -21 13 -47 13 -47 0 0 -8 -4 -7 -10 3 -5 8 -10 10 -10 3 0 -6 -9 -9 -20 -6
-11 3 -20 0 -20 -6 0 -6 -5 -11 -11 -11 -5 0 -7 5 -3 11 3 6 -5 4 -19 -6 -19
-12 -27 -13 -33 -4 -5 8 -3 9 6 4 9 -5 11 -4 6 4 -10 16 -29 2 -21 -16 4 -13
3 -14 -10 -3 -8 7 -12 17 -8 23 3 6 1 7 -6 3 -6 -4 -9 -11 -6 -16 3 -4 -2 -11
-11 -14 -8 -3 -12 -2 -9 4 7 11 -8 14 -19 3 -10 -11 -46 -11 -46 0 0 5 -8 3
-17 -4 -12 -10 -15 -10 -9 -1 6 9 0 11 -24 7 -17 -3 -29 -2 -26 3 3 5 -1 9 -9
9 -8 0 -12 -4 -10 -8 3 -4 -4 -5 -15 -2 -11 3 -20 8 -20 12 0 4 -17 8 -37 9
-21 2 -39 5 -42 7 -2 3 -11 -1 -19 -8 -13 -9 -14 -9 -8 0 4 7 2 21 -4 30 -9
15 -10 14 -4 -6z m830 -112 c0 -10 -4 -15 -8 -13 -4 3 -8 1 -8 -4 0 -6 6 -12
13 -15 17 -6 15 -75 -2 -102 -10 -16 -11 -16 -7 -2 5 15 2 16 -14 7 -17 -9
-18 -7 -10 19 5 19 4 33 -3 40 -8 8 -6 11 9 11 11 0 15 3 8 8 -6 4 -9 16 -7
27 2 11 5 25 5 31 2 18 24 12 24 -7z m-592 -37 c3 -5 -1 -9 -9 -9 -8 0 -15 4
-15 9 0 4 4 8 9 8 6 0 12 -4 15 -8z m156 -40 c7 2 15 -4 17 -12 4 -13 3 -13
-6 0 -9 13 -11 13 -11 -1 0 -9 -6 -16 -14 -16 -8 0 -13 11 -13 25 0 14 3 19 7
13 4 -7 13 -11 20 -9z m185 -28 c8 3 15 1 15 -4 0 -6 8 -10 18 -11 13 0 11 -3
-6 -10 -13 -5 -21 -13 -18 -17 3 -5 -1 -9 -9 -9 -8 0 -12 4 -9 9 3 4 -9 6 -25
4 -18 -2 -31 1 -31 7 0 7 -4 7 -12 -1 -17 -17 -28 -15 -28 4 0 13 -3 14 -13 5
-10 -8 -14 -7 -14 4 0 9 11 15 29 16 40 2 45 3 54 11 4 4 13 3 20 -3 8 -6 21
-9 29 -5z m-469 -321 c-7 -7 -26 7 -26 19 0 6 6 6 15 -2 9 -7 13 -15 11 -17z
m214 -13 c0 -5 10 -14 21 -21 15 -8 19 -8 15 0 -4 6 -2 11 3 11 14 0 14 -31 0
-50 -9 -13 -10 -12 -5 2 3 11 1 15 -8 12 -7 -3 -18 7 -24 21 -7 16 -17 23 -24
19 -7 -4 -8 -3 -4 4 9 14 26 16 26 2z m30 0 c0 -5 -4 -10 -10 -10 -5 0 -10 5
-10 10 0 6 5 10 10 10 6 0 10 -4 10 -10z"/>
<path d="M360 921 c0 -6 4 -13 10 -16 6 -3 7 1 4 9 -7 18 -14 21 -14 7z"/>
<path d="M121 724 c11 -13 6 -18 -13 -15 -5 0 -8 -5 -8 -11 0 -9 -4 -8 -10 2
-8 12 -10 12 -10 1 0 -10 -3 -11 -14 -2 -11 9 -16 9 -22 0 -5 -8 -3 -9 6 -4 8
5 11 4 7 -2 -4 -6 -18 -8 -32 -5 -18 3 -25 1 -23 -9 3 -16 18 -29 33 -29 6 0
3 5 -5 10 -12 7 -10 9 7 7 21 -1 21 -2 6 -19 -11 -12 -12 -18 -4 -18 7 0 9 -5
5 -12 -5 -9 -2 -9 9 1 14 11 17 11 17 0 0 -12 2 -12 9 0 7 10 10 11 16 1 6
-10 11 -9 22 5 13 18 13 18 14 -1 0 -18 1 -18 9 1 8 18 9 18 9 2 1 -10 5 -16
10 -13 4 3 6 -6 3 -19 -2 -14 -8 -23 -12 -20 -4 3 -7 -3 -6 -13 0 -9 -4 -16
-10 -15 -14 3 -10 -43 5 -61 6 -7 8 -16 4 -20 -4 -4 1 -4 11 0 10 4 13 10 8
13 -16 10 -25 51 -10 48 7 -2 10 -2 6 0 -18 10 -6 24 15 18 21 -7 21 -6 3 7
-15 12 -16 17 -6 23 9 5 11 4 6 -3 -4 -7 -2 -12 3 -12 6 0 11 8 11 18 0 10 6
24 13 31 10 12 8 13 -8 7 -16 -6 -17 -5 -8 5 10 10 15 10 27 0 12 -10 14 -8
12 13 -2 15 2 26 8 26 6 0 4 5 -4 10 -13 9 -13 10 0 10 12 0 13 2 1 9 -8 5
-10 14 -5 22 6 11 5 11 -9 0 -10 -8 -20 -11 -24 -7 -3 3 -1 6 5 6 7 0 12 5 12
11 0 5 -4 7 -10 4 -5 -3 -10 -1 -10 4 0 6 -5 11 -11 11 -5 0 -7 -5 -3 -12 4
-7 3 -8 -5 -4 -7 5 -23 9 -37 11 -19 2 -22 0 -13 -11z"/>
<path d="M1179 564 c-1 -5 -3 -19 -4 -30 -1 -12 -5 -26 -9 -33 -5 -7 -1 -9 11
-4 14 5 16 3 6 -7 -6 -7 -9 -19 -6 -28 5 -11 3 -13 -8 -7 -12 8 -12 6 0 -8 11
-14 11 -17 0 -17 -10 0 -10 -3 -1 -12 7 -7 8 -17 1 -29 -8 -15 -6 -18 8 -13
13 4 12 1 -5 -13 -18 -15 -20 -21 -10 -31 11 -11 9 -12 -6 -6 -14 5 -17 4 -12
-5 8 -12 57 -10 56 2 0 4 0 11 0 17 0 5 -8 6 -17 3 -15 -6 -16 -5 -3 9 11 11
17 12 25 4 5 -6 9 -9 8 -7 -2 2 3 11 10 19 9 13 9 14 0 8 -7 -4 -18 -4 -25 0
-8 5 -6 10 8 15 17 7 17 8 1 8 -11 1 -15 6 -11 13 5 7 3 8 -6 3 -8 -5 -11 -3
-8 6 3 8 10 13 15 12 5 -1 10 4 10 12 0 8 -4 12 -9 9 -4 -3 -8 4 -8 15 0 12 6
21 13 21 7 0 8 3 2 8 -6 4 -12 21 -14 37 -3 30 -10 46 -12 29z"/>
<path d="M1210 526 c0 -8 4 -17 9 -20 5 -4 7 3 4 14 -6 23 -13 26 -13 6z"/>
<path d="M313 445 c0 -8 4 -15 9 -15 4 0 8 4 8 9 0 6 -4 12 -8 15 -5 3 -9 -1
-9 -9z"/>
<path d="M1216 422 c-3 -5 1 -9 9 -9 8 0 12 4 9 9 -3 4 -7 8 -9 8 -2 0 -6 -4
-9 -8z"/>
</g>
</svg>
