<?xml version="1.0" standalone="no"?>
<!DOCTYPE svg PUBLIC "-//W3C//DTD SVG 1.1//EN" "http://www.w3.org/Graphics/SVG/1.1/DTD/svg11.dtd" >
<svg>
<metadata>
Created by FontForge 20090914 at Thu Sep  1 13:10:47 2022
 By www-data
Copyright (c) 1990 Neufville SL, Copyright (c) 1990-2000 ParaType, Inc. All Rights Reserved. Futura is a registered trade mark of Neufville SL.
</metadata>
<defs>
<font id="FuturaMediumC" horiz-adv-x="500" >
  <font-face 
    font-family="FuturaMediumC"
    font-weight="500"
    font-stretch="normal"
    units-per-em="1000"
    panose-1="4 0 6 0 0 0 0 0 0 0"
    ascent="750"
    descent="-250"
    x-height="421"
    cap-height="667"
    bbox="-18 -250 1167 906"
    underline-thickness="50"
    underline-position="-150"
    unicode-range="U+0020-U+2122"
  />
<missing-glyph horiz-adv-x="233" 
 />
    <glyph glyph-name=".notdef" horiz-adv-x="233" 
 />
    <glyph glyph-name="space" unicode=" " horiz-adv-x="233" 
 />
    <glyph glyph-name="space" unicode="&#xa0;" horiz-adv-x="233" 
 />
    <glyph glyph-name="exclam" unicode="!" horiz-adv-x="252" 
d="M175 149h-98v518h98v-518zM66 48c0 16.667 5.83301 30.834 17.5 42.501s25.834 17.5 42.501 17.5s30.834 -5.83301 42.501 -17.5s17.5 -25.834 17.5 -42.501s-5.83301 -30.834 -17.5 -42.501s-25.834 -17.5 -42.501 -17.5s-30.834 5.83301 -42.501 17.5
s-17.5 25.834 -17.5 42.501z" />
    <glyph glyph-name="quotedbl" unicode="&#x22;" horiz-adv-x="366" 
d="M156 667l-18 -268h-72l-18 268h108zM318 667l-18 -268h-72l-18 268h108z" />
    <glyph glyph-name="numbersign" unicode="#" horiz-adv-x="600" 
d="M407 0h-98l31 196h-114l-31 -196h-98l31 196h-108l14 88h108l18 112h-108l14 88h108l29 183h98l-29 -183h114l29 183h98l-29 -183h108l-14 -88h-108l-18 -112h108l-14 -88h-108zM354 284l18 112h-114l-18 -112h114z" />
    <glyph glyph-name="dollar" unicode="$" horiz-adv-x="568" 
d="M476 567l-82.001 -48.001c-6.66699 16 -16.667 30 -30 42c-20 16 -44 24 -72 24c-30 0 -53.167 -7.66699 -69.5 -23s-24.5 -34.333 -24.5 -57c0 -34.667 24 -61.667 72 -81l67 -27c104.667 -42.667 157 -108 157 -196c0 -54.667 -15.667 -101 -47 -139
s-71.666 -61.667 -120.999 -71v-91h-74v88c-51.333 4 -94.666 26 -129.999 66c-32.667 36.667 -51.334 80 -56.001 130l101 22c0 -32 9.33301 -60.333 28 -85c21.333 -26.667 50.333 -40 87 -40c31.333 0 57.5 10.333 78.5 31s31.5 47.667 31.5 81
c0 30.667 -8.83301 54.334 -26.5 71.001s-40.834 31 -69.501 43l-64 27c-90.667 38 -136 94.333 -136 169c0 44 14.833 82.333 44.5 115s66.834 52 111.501 58v85h74v-84c40 -6.66699 73 -21 99 -43c20.667 -18.667 37.667 -41 51 -67z" />
    <glyph glyph-name="percent" unicode="%" horiz-adv-x="810" 
d="M194 673c44 0 81.833 -15.5 113.5 -46.5s47.5 -67.833 47.5 -110.5s-15.833 -79.5 -47.5 -110.5s-69.5 -46.5 -113.5 -46.5s-81.833 15.5 -113.5 46.5s-47.5 67.833 -47.5 110.5s15.833 79.5 47.5 110.5s69.5 46.5 113.5 46.5zM194 431c26 0 46.333 8.83301 61 26.5
s22 37.167 22 58.5s-7.33301 40.833 -22 58.5s-35 26.5 -61 26.5s-46.333 -8.83301 -61 -26.5s-22 -37.167 -22 -58.5s7.33301 -40.833 22 -58.5s35 -26.5 61 -26.5zM191 18l381 660l47 -27l-381 -662zM616 307c44 0 81.833 -15.5 113.5 -46.5s47.5 -67.833 47.5 -110.5
s-15.833 -79.5 -47.5 -110.5s-69.5 -46.5 -113.5 -46.5s-81.833 15.5 -113.5 46.5s-47.5 67.833 -47.5 110.5s15.833 79.5 47.5 110.5s69.5 46.5 113.5 46.5zM616 65c26 0 46.333 8.83301 61 26.5s22 37.167 22 58.5s-7.33301 40.833 -22 58.5s-35 26.5 -61 26.5
s-46.333 -8.83301 -61 -26.5s-22 -37.167 -22 -58.5s7.33301 -40.833 22 -58.5s35 -26.5 61 -26.5z" />
    <glyph glyph-name="ampersand" unicode="&#x26;" horiz-adv-x="646" 
d="M537 313l64.999 -67.998l-79 -91l123 -154h-124l-66 82c-17.333 -18 -36 -34.333 -56 -49c-43.333 -30.667 -92 -46 -146 -46c-61.333 0 -110 18 -146 54s-54 81.667 -54 137c0 40 8.33301 73 25 99s40.334 50.333 71.001 73c20 14.667 37.667 27 53 37
c-44 44 -66 90 -66 138c0 42 13.5 78.167 40.5 108.5s66.167 45.5 117.5 45.5c50 0 89.167 -14.333 117.5 -43s42.5 -62.334 42.5 -101.001c0 -32 -9.66699 -61 -29 -87c-17.333 -22.667 -45 -48.334 -83 -77.001l118 -144zM394.999 154.002l-132 160
c-30.667 -16.667 -55 -35 -73 -55c-24 -26 -36 -54.333 -36 -85c0 -28 9.66699 -51.833 29 -71.5s44.333 -29.5 75 -29.5c24 0 49 8.66699 75 26c16 12 36.667 30.333 62 55zM283.999 442.002l37 27c26.667 18.667 40 40.667 40 66c0 16 -5.5 30 -16.5 42s-27.5 18 -49.5 18
c-20 0 -35.667 -5.5 -47 -16.5s-17 -25.167 -17 -42.5c0 -20.667 7.66699 -40 23 -58z" />
    <glyph glyph-name="quotesingle" unicode="'" horiz-adv-x="204" 
d="M156 667l-18 -268h-72l-18 268h108z" />
    <glyph glyph-name="parenleft" unicode="(" horiz-adv-x="324" 
d="M264 -150l-90 -35c-25.333 53.333 -46 112.333 -62 177c-21.333 89.333 -32 184 -32 284s10.667 194.667 32 284c16 64.667 36.667 123.667 62 177l90 -35c-24.667 -55.333 -43 -108.333 -55 -159c-19.333 -78.667 -29 -167.667 -29 -267s9.66699 -188.333 29 -267
c12 -50.667 30.333 -103.667 55 -159z" />
    <glyph glyph-name="parenright" unicode=")" horiz-adv-x="324" 
d="M60 702l90 35c25.333 -53.333 46 -112.333 62 -177c21.333 -89.333 32 -184 32 -284s-10.667 -194.667 -32 -284c-16 -64.667 -36.667 -123.667 -62 -177l-90 35c24.667 55.333 43 108.333 55 159c19.333 78.667 29 167.667 29 267s-9.66699 188.333 -29 267
c-12 50.667 -30.333 103.667 -55 159z" />
    <glyph glyph-name="asterisk" unicode="*" horiz-adv-x="568" 
d="M138 655l109 -42l-7 116h88l-7 -116l109 42l27 -82l-113 -30l74 -91l-70 -50l-64 98l-64 -98l-70 50l74 91l-113 30z" />
    <glyph glyph-name="plus" unicode="+" 
d="M33 291v90h170v170h94v-170h170v-90h-170v-170h-94v170h-170z" />
    <glyph glyph-name="comma" unicode="," horiz-adv-x="320" 
d="M10 -129l102 254l88 -34l-124 -247z" />
    <glyph glyph-name="hyphen" unicode="-" horiz-adv-x="320" 
d="M40 162v102h240v-102h-240z" />
    <glyph glyph-name="hyphen" unicode="&#xad;" horiz-adv-x="320" 
d="M40 162v102h240v-102h-240z" />
    <glyph glyph-name="period" unicode="." horiz-adv-x="252" 
d="M66 48c0 16.667 5.83301 30.834 17.5 42.501s25.834 17.5 42.501 17.5s30.834 -5.83301 42.501 -17.5s17.5 -25.834 17.5 -42.501s-5.83301 -30.834 -17.5 -42.501s-25.834 -17.5 -42.501 -17.5s-30.834 5.83301 -42.501 17.5s-17.5 25.834 -17.5 42.501z" />
    <glyph glyph-name="slash" unicode="/" horiz-adv-x="540" 
d="M0 -147l382 884l80 -36l-382 -884z" />
    <glyph glyph-name="zero" unicode="0" horiz-adv-x="568" 
d="M284 -11c-58.667 0 -109 24 -151 72c-56.667 64.667 -85 155.334 -85 272.001c0 117.333 28.333 208.333 85 273c42 48 92.333 72 151 72s109 -24 151 -72c56.667 -64.667 85 -155.667 85 -273c0 -116.667 -28.333 -207.334 -85 -272.001c-42 -48 -92.333 -72 -151 -72z
M284 588c-36 0 -66 -18.333 -90 -55c-30.667 -45.333 -46 -111.666 -46 -198.999c0 -86.667 15.333 -153.334 46 -200.001c24 -36.667 54 -55 90 -55s66 18.333 90 55c30.667 46.667 46 113.334 46 200.001c0 87.333 -15.333 153.666 -46 198.999c-24 36.667 -54 55 -90 55z
" />
    <glyph glyph-name="one" unicode="1" horiz-adv-x="568" 
d="M250 0v573h-116l56 94h162v-667h-102z" />
    <glyph glyph-name="two" unicode="2" horiz-adv-x="568" 
d="M482 94l-0.00292969 -94.002h-448l231 280c34.667 42 61.334 76.667 80.001 104c23.333 34.667 35 66.667 35 96c0 30 -9.66699 55.5 -29 76.5s-46.666 31.5 -81.999 31.5s-63.333 -11.667 -84 -35s-32 -52 -34 -86h-98c2.66699 58.667 21.334 107.334 56.001 146.001
c38.667 43.333 90.667 65 156 65c67.333 0 120 -19.667 158 -59s57 -86.666 57 -141.999c0 -46 -16 -92.667 -48 -140c-17.333 -26 -49 -66 -95 -120l-104 -123h249z" />
    <glyph glyph-name="three" unicode="3" horiz-adv-x="568" 
d="M166 497l-97.999 0.000976562c0.666992 38 11.667 72.667 33 104c34.667 51.333 89.334 77 164.001 77c60 0 108 -17 144 -51s54 -78.333 54 -133c0 -62 -24.333 -109.333 -73 -142c56 -30 84 -81 84 -153c0 -18.667 -1.83301 -37 -5.5 -55s-10.667 -36.667 -21 -56
s-23.166 -36 -38.499 -50s-35.833 -25.667 -61.5 -35s-54.834 -14 -87.501 -14c-98.667 0 -164 39.667 -196 119c-10 23.333 -15.333 47.666 -16 72.999h98c4 -32 16.5 -57 37.5 -75s46.833 -27 77.5 -27c38 0 66.667 11.833 86 35.5s29 52.5 29 86.5
c0 34.667 -11 61.5 -33 80.5s-49.667 28.5 -83 28.5h-20v86h20c70 0 105 30.333 105 91c0 32 -9.5 56.833 -28.5 74.5s-43.5 26.5 -73.5 26.5c-26.667 0 -48.834 -8.16699 -66.501 -24.5s-27.834 -38.5 -30.501 -66.5z" />
    <glyph glyph-name="four" unicode="4" horiz-adv-x="568" 
d="M448 716v-527h72v-94h-72v-95h-98v95h-330zM200 189h150v222z" />
    <glyph glyph-name="five" unicode="5" horiz-adv-x="568" 
d="M477 667l0.000976562 -93.9971h-206l-33 -111c12 1.33301 21.333 2 28 2c58 0 106.667 -16.667 146 -50c50.667 -42.667 76 -102.334 76 -179.001c0 -66.667 -21.333 -124.334 -64 -173.001s-104.667 -73 -186 -73c-93.333 0 -163.333 41.667 -210 125l77 64
c28.667 -66 75.667 -99 141 -99c44.667 0 79.5 14.167 104.5 42.5s37.5 64.166 37.5 107.499c0 42 -12.333 76.667 -37 104s-59.334 41 -104.001 41c-50 0 -89 -19.333 -117 -58h-33l104 351h276z" />
    <glyph glyph-name="six" unicode="6" horiz-adv-x="568" 
d="M358 690l74 -55l-159 -217c12 2 24 3 36 3c51.333 0 97.333 -18 138 -54s61 -88 61 -156c0 -64 -20 -117 -60 -159s-94 -63 -162 -63c-71.333 0 -126.833 21.333 -166.5 64s-59.5 93 -59.5 151c0 52 22 108.333 66 169zM282 333c-34.667 0 -63.666 -11.833 -86.999 -35.5
s-35 -54.167 -35 -91.5c0 -36.667 11.833 -67 35.5 -91s53.167 -36 88.5 -36s64.833 12 88.5 36s35.5 54.333 35.5 91s-11.833 67 -35.5 91s-53.834 36 -90.501 36z" />
    <glyph glyph-name="seven" unicode="7" horiz-adv-x="568" 
d="M50 27l332 546h-328v94h496l-420 -690z" />
    <glyph glyph-name="eight" unicode="8" horiz-adv-x="568" 
d="M404 347c60 -30 89.998 -82.333 89.998 -157c0 -62 -20.667 -111 -62 -147s-90.666 -54 -147.999 -54s-106.666 18 -147.999 54s-62 85 -62 147c0 74.667 30 127 90 157c-48.667 34 -73 81 -73 141c0 58 18.5 104.167 55.5 138.5s82.833 51.5 137.5 51.5
s100.5 -17.167 137.5 -51.5s55.5 -80.5 55.5 -138.5c0 -60 -24.333 -107 -73 -141zM283.998 387c26 0 49.333 8.66699 70 26s31 42 31 74c0 30 -9.5 54.333 -28.5 73s-43.167 28 -72.5 28s-53.5 -9.33301 -72.5 -28s-28.5 -43 -28.5 -73c0 -32 10.333 -56.667 31 -74
s44 -26 70 -26zM283.998 79c32 0 58.333 10.5 79 31.5s31 48.167 31 81.5c0 31.333 -10.333 57.666 -31 78.999s-47 32 -79 32s-58.333 -10.667 -79 -32s-31 -47.666 -31 -78.999c0 -33.333 10.333 -60.5 31 -81.5s47 -31.5 79 -31.5z" />
    <glyph glyph-name="nine" unicode="9" horiz-adv-x="568" 
d="M210 -23l-74.001 55l159 217c-10 -2 -20.333 -3 -31 -3c-52 0 -99 18.833 -141 56.5s-63 88.834 -63 153.501c0 63.333 20.333 116.166 61 158.499s94.334 63.5 161.001 63.5c71.333 0 126.833 -21.333 166.5 -64s59.5 -93 59.5 -151c0 -52 -22 -108.333 -66 -169z
M285.999 334c34.667 0 63.666 11.833 86.999 35.5s35 54.167 35 91.5c0 36.667 -11.833 67 -35.5 91s-53.167 36 -88.5 36s-64.833 -12 -88.5 -36s-35.5 -54.333 -35.5 -91s11.833 -67 35.5 -91s53.834 -36 90.501 -36z" />
    <glyph glyph-name="colon" unicode=":" horiz-adv-x="252" 
d="M66 372c0 16.667 5.83301 30.834 17.5 42.501s25.834 17.5 42.501 17.5s30.834 -5.83301 42.501 -17.5s17.5 -25.834 17.5 -42.501s-5.83301 -30.834 -17.5 -42.501s-25.834 -17.5 -42.501 -17.5s-30.834 5.83301 -42.501 17.5s-17.5 25.834 -17.5 42.501zM66 48
c0 16.667 5.83301 30.834 17.5 42.501s25.834 17.5 42.501 17.5s30.834 -5.83301 42.501 -17.5s17.5 -25.834 17.5 -42.501s-5.83301 -30.834 -17.5 -42.501s-25.834 -17.5 -42.501 -17.5s-30.834 5.83301 -42.501 17.5s-17.5 25.834 -17.5 42.501z" />
    <glyph glyph-name="semicolon" unicode=";" horiz-adv-x="320" 
d="M90 372c0 16.667 5.83301 30.834 17.5 42.501s25.834 17.5 42.501 17.5s30.834 -5.83301 42.501 -17.5s17.5 -25.834 17.5 -42.501s-5.83301 -30.834 -17.5 -42.501s-25.834 -17.5 -42.501 -17.5s-30.834 5.83301 -42.501 17.5s-17.5 25.834 -17.5 42.501zM10 -129
l102 254l88 -34l-124 -247z" />
    <glyph glyph-name="less" unicode="&#x3c;" 
d="M137 332l330 -156v-96l-434 211v82l434 211v-96z" />
    <glyph glyph-name="equal" unicode="=" 
d="M33 380v84h434v-84h-434zM33 218v84h434v-84h-434z" />
    <glyph glyph-name="greater" unicode="&#x3e;" 
d="M363 332l-330 156v96l434 -211v-82l-434 -211v96z" />
    <glyph glyph-name="question" unicode="?" horiz-adv-x="434" 
d="M158 482l-101.998 0.000976562c-1.33301 15.333 -2 26.666 -2 33.999c0 44.667 14 82.5 42 113.5s68.333 46.5 121 46.5c48 0 87.167 -14 117.5 -42s45.5 -67.333 45.5 -118s-19.667 -90.334 -59 -119.001c-18.667 -13.333 -52 -29 -100 -47
c-10.667 -4 -19.167 -7.5 -25.5 -10.5s-12.833 -8.66699 -19.5 -17s-10 -18.5 -10 -30.5c0 -14.667 4.66699 -26.5 14 -35.5s21.333 -13.5 36 -13.5c18.667 0 32.667 8 42 24c7.33301 12 10.333 26.667 9 44h98c-0.666992 -38.667 -9.33398 -70 -26.001 -94
c-28.667 -42.667 -70.334 -64 -125.001 -64c-40 0 -74.667 13 -104 39s-44 62.333 -44 109c0 38 10.167 66.5 30.5 85.5s49.833 35.833 88.5 50.5c40.667 15.333 65 26.333 73 33c14.667 12 22 28.667 22 50c0 18.667 -5.33301 34.334 -16 47.001s-26.334 19 -47.001 19
c-21.333 0 -37.166 -6.66699 -47.499 -20s-15.5 -30.333 -15.5 -51c0 -8.66699 1.33301 -19.667 4 -33zM158.002 48.001c0 16.667 5.83301 30.834 17.5 42.501s25.834 17.5 42.501 17.5s30.834 -5.83301 42.501 -17.5s17.5 -25.834 17.5 -42.501
s-5.83301 -30.834 -17.5 -42.501s-25.834 -17.5 -42.501 -17.5s-30.834 5.83301 -42.501 17.5s-17.5 25.834 -17.5 42.501z" />
    <glyph glyph-name="at" unicode="@" horiz-adv-x="732" 
d="M474 439l10.002 51.999h68l-39 -201c-4 -20 -6 -35 -6 -45c0 -14 3.33301 -24.167 10 -30.5s14 -9.5 22 -9.5c21.333 0 41.333 13.333 60 40c11.333 16 20 37.333 26 64s9 50.334 9 71.001c0 62 -21.5 117 -64.5 165s-104.5 72 -184.5 72
c-80.667 0 -148.667 -27.667 -204 -83s-83 -124 -83 -206c0 -58.667 15.333 -111.667 46 -159s72.667 -81 126 -101c33.333 -13.333 71.333 -20 114 -20c73.333 0 141 13.667 203 41l17 -62c-62.667 -26 -134.334 -39 -215.001 -39c-98.667 0 -179.334 27 -242.001 81
c-75.333 66 -113 152.667 -113 260c0 100.667 33 183.834 99 249.501s149 98.5 249 98.5c90 0 165.167 -26.833 225.5 -80.5s90.5 -125.5 90.5 -215.5c0 -70.667 -16 -127.334 -48 -170.001c-32 -42 -70.333 -63 -115 -63c-20.667 0 -37.5 5.66699 -50.5 17
s-21.5 26.333 -25.5 45c-29.333 -45.333 -70.666 -68 -123.999 -68c-34.667 0 -66.834 12.833 -96.501 38.5s-44.5 66.167 -44.5 121.5c0 62 18 111 54 147s76.333 54 121 54c50.667 0 85.667 -21.333 105 -64zM345.002 211.999c28.667 0 53.833 12.668 75.5 38.001
s32.5 57.666 32.5 96.999c0 28.667 -7.33301 50.167 -22 64.5s-32.667 21.5 -54 21.5c-29.333 0 -54.333 -11.667 -75 -35s-31 -55 -31 -95c0 -29.333 7.16699 -51.833 21.5 -67.5s31.833 -23.5 52.5 -23.5z" />
    <glyph glyph-name="A" unicode="A" horiz-adv-x="656" 
d="M542 0l-70 161h-285l-73 -161h-110l332 706l316 -706h-110zM229 257h202l-99 226z" />
    <glyph glyph-name="B" unicode="B" horiz-adv-x="526" 
d="M80 667l101 -0.00195312c73.333 0 126.666 -11.667 159.999 -35c51.333 -34.667 77 -85 77 -151c0 -52 -18.667 -92.667 -56 -122c36.667 -11.333 65.167 -31.166 85.5 -59.499s30.5 -60.166 30.5 -95.499c0 -68.667 -22.333 -121 -67 -157
c-24.667 -20.667 -50.167 -33.667 -76.5 -39s-60.166 -8 -101.499 -8h-153v667zM182 570.998v-191h31c72.667 0 109 32.667 109 98c0 62 -35 93 -105 93h-35zM182 295.998v-200.001h62c50.667 0 85.667 9.83301 105 29.5s29 42.834 29 69.501c0 67.333 -44 101 -132 101h-64
z" />
    <glyph glyph-name="C" unicode="C" horiz-adv-x="620" 
d="M574 631l0.00195312 -120c-54.667 49.333 -115 74 -181 74c-72 0 -130.5 -23.833 -175.5 -71.5s-67.5 -108.5 -67.5 -182.5c0 -71.333 23 -130.833 69 -178.5s104.333 -71.5 175 -71.5c66 0 126 25.667 180 77v-121c-56 -33.333 -117 -50 -183 -50
c-92.667 0 -171.334 30.667 -236.001 92c-71.333 66.667 -107 150.667 -107 252c0 106.667 35.667 193.667 107 261c61.333 58 141.666 87 240.999 87c68.667 0 128 -16 178 -48z" />
    <glyph glyph-name="D" unicode="D" horiz-adv-x="644" 
d="M80 667l140 0.00195312c52.667 0 98.667 -4.5 138 -13.5s76 -26.167 110 -51.5c40.667 -30.667 72.167 -69.334 94.5 -116.001s33.5 -97.667 33.5 -153c0 -116.667 -44.667 -206.334 -134 -269.001c-36 -25.333 -72.667 -42.333 -110 -51s-82 -13 -134 -13h-138v667z
M182 571.002v-475h44c76 0 135 15.667 177 47c60.667 46 91 109.333 91 190c0 41.333 -8.5 79 -25.5 113s-38.5 60.333 -64.5 79c-42.667 30.667 -102 46 -178 46h-44z" />
    <glyph glyph-name="E" unicode="E" 
d="M448 667v-96h-266v-159h258v-96h-258v-220h266v-96h-368v667h368z" />
    <glyph glyph-name="F" unicode="F" horiz-adv-x="450" 
d="M414 667v-96h-232v-159h224v-96h-224v-316h-102v667h334z" />
    <glyph glyph-name="G" unicode="G" horiz-adv-x="748" 
d="M425 253l0.000976562 94h275v-21c0 -89.333 -19.667 -161 -59 -215c-23.333 -32 -55.833 -60.667 -97.5 -86s-93.167 -38 -154.5 -38c-94.667 0 -174.334 32.333 -239.001 97c-68 68 -102 151 -102 249c0 96.667 31.667 178 95 244c65.333 68 149.333 102 252 102
c76 0 143.667 -21.333 203 -64c28 -19.333 52.333 -43 73 -71l-72 -69c-50.667 73.333 -118.667 110 -204 110c-70.667 0 -129.167 -24 -175.5 -72s-69.5 -108.333 -69.5 -181c0 -71.333 23 -131 69 -179s103.667 -72 173 -72c52.667 0 97 16.167 133 48.5s58 73.5 66 123.5
h-166z" />
    <glyph glyph-name="H" unicode="H" horiz-adv-x="650" 
d="M182 667v-260h286v260h102v-667h-102v311h-286v-311h-102v667h102z" />
    <glyph glyph-name="I" unicode="I" horiz-adv-x="262" 
d="M80 667h102v-667h-102v667z" />
    <glyph glyph-name="J" unicode="J" horiz-adv-x="362" 
d="M180 667l102 -0.000976562v-432c0 -68 -8.33301 -118.667 -25 -152c-32 -64 -84.333 -96 -157 -96c-44 0 -83.333 11.333 -118 34l50 86c18.667 -16 42 -24 70 -24c32.667 0 55 15 67 45c7.33301 18.667 11 54.334 11 107.001v432z" />
    <glyph glyph-name="K" unicode="K" horiz-adv-x="586" 
d="M182 667v-266l258 266h134l-301 -302l303 -365h-136l-238 296l-20 -20v-276h-102v667h102z" />
    <glyph glyph-name="L" unicode="L" horiz-adv-x="394" 
d="M80 667h102v-571h196v-96h-298v667z" />
    <glyph glyph-name="M" unicode="M" horiz-adv-x="852" 
d="M164 0h-104l140 717l232 -518l234 518l126 -717h-104l-68 402l-194 -433l-192 434z" />
    <glyph glyph-name="N" unicode="N" horiz-adv-x="746" 
d="M182 0h-102v712l484 -507v462h102v-708l-484 507v-466z" />
    <glyph glyph-name="O" unicode="O" horiz-adv-x="790" 
d="M395 679c99.333 0 182 -33 248 -99s99 -148.333 99 -247s-33 -181 -99 -247s-148.667 -99 -248 -99s-182 33 -248 99s-99 148.333 -99 247s33 181 99 247s148.667 99 248 99zM395 81c71.333 0 130 23.5 176 70.5s69 107.5 69 181.5s-23 134.5 -69 181.5
s-104.667 70.5 -176 70.5s-130 -23.5 -176 -70.5s-69 -107.5 -69 -181.5s23 -134.5 69 -181.5s104.667 -70.5 176 -70.5z" />
    <glyph glyph-name="P" unicode="P" horiz-adv-x="480" 
d="M80 667h147c61.333 0 110 -12 146 -36c26.667 -18 47.167 -41.5 61.5 -70.5s21.5 -59.5 21.5 -91.5c0 -60 -21.667 -108.667 -65 -146c-40.667 -34.667 -95 -52 -163 -52h-46v-271h-102v667zM182 573v-208h46c42.667 0 75 9.5 97 28.5s33 44.5 33 76.5
c0 11.333 -1.5 22 -4.5 32s-8.66699 20.833 -17 32.5s-21.833 21 -40.5 28s-41.667 10.5 -69 10.5h-45z" />
    <glyph glyph-name="Q" unicode="Q" horiz-adv-x="790" 
d="M632 -13l-50 50c-52.667 -33.333 -115 -50 -187 -50c-100 0 -182.833 32.833 -248.5 98.5s-98.5 148.167 -98.5 247.5c0 98.667 33 181 99 247s148.667 99 248 99s182 -33.167 248 -99.5s99 -148.5 99 -246.5c0 -93.333 -30.667 -173 -92 -239l108 -107h-126zM479 264
l102.001 -101c39.333 45.333 59 102 59 170c0 74 -23 134.5 -69 181.5s-104.667 70.5 -176 70.5s-130 -23.5 -176 -70.5s-69 -107.5 -69 -181.5s23 -134.5 69 -181.5s104.667 -70.5 176 -70.5c43.333 0 81.666 8.66699 114.999 26l-158 157h127z" />
    <glyph glyph-name="R" unicode="R" horiz-adv-x="534" 
d="M80 667l118.999 -0.00195312c78.667 0 137.334 -13 176.001 -39c52.667 -35.333 79 -87.666 79 -156.999c0 -47.333 -13.5 -87.666 -40.5 -120.999s-62.833 -55 -107.5 -65l208 -285h-123l-191 273h-18v-273h-102v667zM181.999 572.998l-0.000976562 -212h32
c8.66699 0 17.334 0.333008 26.001 1s20.5 3 35.5 7s28 9.5 39 16.5s20.667 17.833 29 32.5s12.5 32 12.5 52c0 68.667 -46.333 103 -139 103h-35z" />
    <glyph glyph-name="S" unicode="S" horiz-adv-x="516" 
d="M450 567l-81.998 -48.001c-6.66699 16 -16.667 30 -30 42c-20 16 -44 24 -72 24c-30 0 -53.167 -7.66699 -69.5 -23s-24.5 -34.333 -24.5 -57c0 -34.667 24 -61.667 72 -81l67 -27c104.667 -42.667 157 -108 157 -196c0 -63.333 -20.167 -114.833 -60.5 -154.5
s-91.833 -59.5 -154.5 -59.5c-64.667 0 -117 22.333 -157 67c-32.667 36.667 -51.334 80 -56.001 130l101 22c0 -32 9.33301 -60.333 28 -85c21.333 -26.667 50.333 -40 87 -40c31.333 0 57.5 10.333 78.5 31s31.5 47.667 31.5 81c0 30.667 -8.83301 54.334 -26.5 71.001
s-40.834 31 -69.501 43l-64 27c-90.667 38 -136 94.333 -136 169c0 48 17.5 89.333 52.5 124s82.5 52 142.5 52c54 0 98.667 -15 134 -45c20.667 -18.667 37.667 -41 51 -67z" />
    <glyph glyph-name="T" unicode="T" horiz-adv-x="428" 
d="M418 571h-153v-571h-102v571h-153v96h408v-96z" />
    <glyph glyph-name="U" unicode="U" horiz-adv-x="654" 
d="M80 667h102v-402c0 -52 7 -90.333 21 -115c11.333 -18.667 28 -34.834 50 -48.501s46.667 -20.5 74 -20.5s52 6.83301 74 20.5s38.667 29.834 50 48.501c14 24.667 21 63 21 115v402h102v-429c0 -70 -20.667 -127.667 -62 -173c-48 -52 -109.667 -78 -185 -78
s-137 26 -185 78c-41.333 45.333 -62 103 -62 173v429z" />
    <glyph glyph-name="V" unicode="V" horiz-adv-x="600" 
d="M4 667h110l186 -465l186 465h110l-296 -710z" />
    <glyph glyph-name="W" unicode="W" horiz-adv-x="940" 
d="M4 667h110l176 -446l180 478l174 -478l182 446h110l-298 -710l-174 473l-176 -473z" />
    <glyph glyph-name="X" unicode="X" horiz-adv-x="546" 
d="M10 0l210 348l-184 319h114l130 -226l133 226h114l-192 -319l201 -348h-114l-146 255l-152 -255h-114z" />
    <glyph glyph-name="Y" unicode="Y" horiz-adv-x="540" 
d="M219 0v288l-219 379h116l154 -267l154 267h116l-219 -379v-288h-102z" />
    <glyph glyph-name="Z" unicode="Z" horiz-adv-x="554" 
d="M524 667l-328 -571h320v-96h-486l328 571h-274v96h440z" />
    <glyph glyph-name="bracketleft" unicode="[" horiz-adv-x="316" 
d="M270 639h-84v-726h84v-90h-182v906h182v-90z" />
    <glyph glyph-name="backslash" unicode="\" horiz-adv-x="540" 
d="M540 -147l-80 -36l-382 884l80 36z" />
    <glyph glyph-name="bracketright" unicode="]" horiz-adv-x="316" 
d="M46 -87h84v726h-84v90h182v-906h-182v90z" />
    <glyph glyph-name="asciicircum" unicode="^" 
d="M250 592l-130 -240h-104l171 317h126l171 -317h-104z" />
    <glyph glyph-name="underscore" unicode="_" horiz-adv-x="400" 
d="M0 -144v86h400v-86h-400z" />
    <glyph glyph-name="grave" unicode="`" 
d="M241 485l-156 144l90 46l120 -156z" />
    <glyph glyph-name="a" unicode="a" horiz-adv-x="530" 
d="M370 372l-0.000976562 49h98v-421h-98v44c-32.667 -38 -74.667 -57 -126 -57c-62 0 -111.5 22 -148.5 66s-55.5 96.667 -55.5 158c0 66.667 19.833 120.167 59.5 160.5s88.167 60.5 145.5 60.5c52.667 0 94.334 -20 125.001 -60zM256.999 344
c-34.667 0 -62.834 -13 -84.501 -39s-32.5 -58 -32.5 -96c0 -37.333 10.833 -69 32.5 -95s49.834 -39 84.501 -39c33.333 0 61.5 11.667 84.5 35s34.5 56 34.5 98c0 43.333 -11.5 76.833 -34.5 100.5s-51.167 35.5 -84.5 35.5z" />
    <glyph glyph-name="b" unicode="b" horiz-adv-x="530" 
d="M160 729l-0.000976562 -357c30.667 40 72.334 60 125.001 60c57.333 0 105.833 -20.167 145.5 -60.5s59.5 -93.833 59.5 -160.5c0 -61.333 -18.5 -114 -55.5 -158s-86.5 -66 -148.5 -66c-51.333 0 -93.333 19 -126 57v-44h-98v729h98zM272.999 344
c-33.333 0 -61.5 -11.833 -84.5 -35.5s-34.5 -57.167 -34.5 -100.5c0 -42 11.5 -74.667 34.5 -98s51.167 -35 84.5 -35c34.667 0 62.834 13 84.501 39s32.5 57.667 32.5 95c0 38 -10.833 70 -32.5 96s-49.834 39 -84.501 39z" />
    <glyph glyph-name="c" unicode="c" horiz-adv-x="420" 
d="M388 402v-129c-27.333 47.333 -68 71 -122 71c-34 0 -63.5 -12 -88.5 -36s-37.5 -56.667 -37.5 -98c0 -38 11.5 -70 34.5 -96s53.167 -39 90.5 -39c24.667 0 48 6.33301 70 19s39.667 30.334 53 53.001v-129c-36 -20.667 -74.667 -31 -116 -31
c-72.667 0 -130 21.333 -172 64c-40 41.333 -60 94 -60 158c0 67.333 22.667 122.666 68 165.999c40 38 93.667 57 161 57c46 0 85.667 -10 119 -30z" />
    <glyph glyph-name="d" unicode="d" horiz-adv-x="530" 
d="M370 372l-0.000976562 357h98v-729h-98v44c-32.667 -38 -74.667 -57 -126 -57c-62 0 -111.5 22 -148.5 66s-55.5 96.667 -55.5 158c0 66.667 19.833 120.167 59.5 160.5s88.167 60.5 145.5 60.5c52.667 0 94.334 -20 125.001 -60zM256.999 344
c-34.667 0 -62.834 -13 -84.501 -39s-32.5 -58 -32.5 -96c0 -37.333 10.833 -69 32.5 -95s49.834 -39 84.501 -39c33.333 0 61.5 11.667 84.5 35s34.5 56 34.5 98c0 43.333 -11.5 76.833 -34.5 100.5s-51.167 35.5 -84.5 35.5z" />
    <glyph glyph-name="e" unicode="e" horiz-adv-x="486" 
d="M364 156l81.998 -46c-15.333 -29.333 -33.666 -53.333 -54.999 -72c-38.667 -34 -85.667 -51 -141 -51c-57.333 0 -106.666 19 -147.999 57s-62 92.667 -62 164c0 66.667 18.667 120.667 56 162s87 62 149 62c69.333 0 122 -25.667 158 -77
c26 -37.333 39 -88.333 39 -153v-15h-302c1.33301 -36 13.5 -63.667 36.5 -83s48.833 -29 77.5 -29c26 0 48.333 7.66699 67 23c18.667 14 33 33.333 43 58zM146.998 267h195c-5.33301 23.333 -16.833 42 -34.5 56s-38.5 21 -62.5 21s-44.667 -7 -62 -21
s-29.333 -32.667 -36 -56z" />
    <glyph glyph-name="f" unicode="f" horiz-adv-x="262" 
d="M268 331l-105.999 0.000976562v-331h-98v331h-34v90h34v162c0 59.333 14.667 101.666 44 126.999c23.333 20.667 53.333 31 90 31c24.667 0 48 -5 70 -15v-99c-22.667 13.333 -43.334 20 -62.001 20c-16 0 -27.333 -5 -34 -15c-6.66699 -8.66699 -10 -24.667 -10 -48
v-163h106v-90z" />
    <glyph glyph-name="g" unicode="g" horiz-adv-x="530" 
d="M370 375l0.00195312 45.998h98v-411c0 -24 -0.5 -43.167 -1.5 -57.5s-4.33301 -31.166 -10 -50.499s-13.834 -36.666 -24.501 -51.999c-38.667 -53.333 -95 -80 -169 -80c-61.333 0 -111.333 18.833 -150 56.5s-56.667 87.167 -54 148.5h95c-1.33301 -34 8 -62 28 -84
s47 -33 81 -33c71.333 0 107 44.667 107 134v55c-32.667 -40 -74.667 -60 -126 -60c-62.667 0 -112.334 22 -149.001 66s-55 96.667 -55 158c0 66.667 19.833 120.167 59.5 160.5s88.167 60.5 145.5 60.5c51.333 0 93 -19 125 -57zM257.002 343.998
c-34.667 0 -62.834 -13 -84.501 -39s-32.5 -58 -32.5 -96c0 -37.333 10.833 -69 32.5 -95s49.834 -39 84.501 -39c33.333 0 61.5 11.667 84.5 35s34.5 56 34.5 98c0 43.333 -11.5 76.833 -34.5 100.5s-51.167 35.5 -84.5 35.5z" />
    <glyph glyph-name="h" unicode="h" horiz-adv-x="486" 
d="M62 0l-0.00195312 728.999h98v-344c30.667 31.333 68.334 47 113.001 47c56 0 97.333 -19 124 -57c18 -26 27 -65 27 -117v-258h-98v249c0 34.667 -6.33301 59 -19 73c-13.333 14.667 -31.666 22 -54.999 22c-32 0 -56 -11.667 -72 -35
c-13.333 -19.333 -20 -54.666 -20 -105.999v-203h-98z" />
    <glyph glyph-name="i" unicode="i" horiz-adv-x="222" 
d="M62 421h98v-421h-98v421zM48 595c0 18 6 33 18 45s27 18 45 18s33 -6 45 -18s18 -27 18 -45s-6 -33 -18 -45s-27 -18 -45 -18s-33 6 -45 18s-18 27 -18 45z" />
    <glyph glyph-name="j" unicode="j" horiz-adv-x="222" 
d="M62 421h98v-650h-98v650zM48 595c0 18 6 33 18 45s27 18 45 18s33 -6 45 -18s18 -27 18 -45s-6 -33 -18 -45s-27 -18 -45 -18s-33 6 -45 18s-18 27 -18 45z" />
    <glyph glyph-name="k" unicode="k" horiz-adv-x="442" 
d="M62 729h98v-449l137 141h130l-181 -175l194 -246h-124l-138 180l-18 -18v-162h-98v729z" />
    <glyph glyph-name="l" unicode="l" horiz-adv-x="222" 
d="M62 729h98v-729h-98v729z" />
    <glyph glyph-name="m" unicode="m" horiz-adv-x="702" 
d="M62 0l-0.000976562 421h98v-39c27.333 33.333 62 50 104 50c48.667 0 85 -20.667 109 -62c28.667 41.333 70.334 62 125.001 62s94.667 -22 120 -66c14.667 -26 22 -61.333 22 -106v-260h-98v232c0 36.667 -3 61.667 -9 75c-9.33301 24.667 -28 37 -56 37
c-24 0 -43.333 -10.333 -58 -31c-12.667 -18 -19 -50 -19 -96v-217h-98v232c0 36.667 -3 61.667 -9 75c-9.33301 24.667 -28 37 -56 37c-24 0 -43.333 -10.333 -58 -31c-12.667 -18 -19 -50 -19 -96v-217h-98z" />
    <glyph glyph-name="n" unicode="n" horiz-adv-x="485" 
d="M61 0l0.00195312 420.998h98v-39c30 33.333 68 50 114 50c55.333 0 96.666 -19 123.999 -57c17.333 -24.667 26 -63.667 26 -117v-258h-98v234c0 25.333 -2 46 -6 62s-10.333 27.167 -19 33.5s-16.5 10.333 -23.5 12s-16.5 2.5 -28.5 2.5
c-14 0 -25.167 -1.16699 -33.5 -3.5s-17.333 -7.66602 -27 -15.999s-16.834 -22.666 -21.501 -42.999s-7 -46.833 -7 -79.5v-202h-98z" />
    <glyph glyph-name="o" unicode="o" horiz-adv-x="530" 
d="M265 432c64 0 117.5 -20.833 160.5 -62.5s64.5 -94.834 64.5 -159.501c0 -64 -21.5 -117.167 -64.5 -159.5s-96.5 -63.5 -160.5 -63.5s-117.5 21.167 -160.5 63.5s-64.5 95.5 -64.5 159.5c0 64.667 21.5 117.834 64.5 159.501s96.5 62.5 160.5 62.5zM265 75
c38 0 68.333 12.167 91 36.5s34 56.833 34 97.5c0 44.667 -12.167 78.334 -36.5 101.001s-53.833 34 -88.5 34s-64.167 -11.333 -88.5 -34s-36.5 -56.334 -36.5 -101.001c0 -40.667 11.333 -73.167 34 -97.5s53 -36.5 91 -36.5z" />
    <glyph glyph-name="p" unicode="p" horiz-adv-x="530" 
d="M160 49l-0.000976562 -278.001h-98v650h98v-46c32 38 73.667 57 125 57c57.333 0 105.833 -20.167 145.5 -60.5s59.5 -93.166 59.5 -158.499c0 -67.333 -20.667 -121.833 -62 -163.5s-88.666 -62.5 -141.999 -62.5c-50 0 -92 20.667 -126 62zM272.999 343.999
c-33.333 0 -61.5 -11.833 -84.5 -35.5s-34.5 -57.167 -34.5 -100.5c0 -42 11.5 -74.667 34.5 -98s51.167 -35 84.5 -35c34.667 0 62.834 13 84.501 39s32.5 57.667 32.5 95c0 38 -10.833 70 -32.5 96s-49.834 39 -84.501 39z" />
    <glyph glyph-name="q" unicode="q" horiz-adv-x="530" 
d="M370 375l0.000976562 46h98v-650h-98v276c-32.667 -40 -74.667 -60 -126 -60c-62.667 0 -112.334 22 -149.001 66s-55 96.667 -55 158c0 66.667 19.833 120.167 59.5 160.5s88.167 60.5 145.5 60.5c51.333 0 93 -19 125 -57zM257.001 344
c-34.667 0 -62.834 -13 -84.501 -39s-32.5 -58 -32.5 -96c0 -37.333 10.833 -69 32.5 -95s49.834 -39 84.501 -39c33.333 0 61.5 11.667 84.5 35s34.5 56 34.5 98c0 43.333 -11.5 76.833 -34.5 100.5s-51.167 35.5 -84.5 35.5z" />
    <glyph glyph-name="r" unicode="r" horiz-adv-x="332" 
d="M62 0l-0.000976562 421h98v-38c27.333 32.667 60.333 49 99 49c26.667 0 53 -8.33301 79 -25l-44 -89c-19.333 13.333 -37.666 20 -54.999 20c-27.333 0 -48 -11 -62 -33c-11.333 -18 -17 -47 -17 -87v-218h-98z" />
    <glyph glyph-name="s" unicode="s" horiz-adv-x="360" 
d="M307 349l-81.001 -43.0049c-9.33301 25.333 -25 38 -47 38c-8 0 -15.333 -2.16699 -22 -6.5s-10 -11.166 -10 -20.499c0 -2.66699 0.333008 -5.33398 1 -8.00098s1.66699 -5.16699 3 -7.5s2.66602 -4.33301 3.99902 -6s3.33301 -3.5 6 -5.5l6.5 -5
c1.66699 -1.33301 4.33398 -3 8.00098 -5s6.5 -3.33301 8.5 -4s5.16699 -2.16699 9.5 -4.5s7.5 -3.83301 9.5 -4.5c36.667 -17.333 63.334 -31.666 80.001 -42.999c34 -24.667 51 -56 51 -94c0 -40 -14.833 -73.833 -44.5 -101.5s-66.167 -41.5 -109.5 -41.5
c-7.33301 0 -15.5 0.833008 -24.5 2.5s-21.833 5.33398 -38.5 11.001s-32.5 16.334 -47.5 32.001s-26.833 35.167 -35.5 58.5l82 38c5.33301 -15.333 13.833 -28.166 25.5 -38.499s26.167 -15.5 43.5 -15.5c14.667 0 26.5 4.16699 35.5 12.5s13.5 19.166 13.5 32.499
c0 9.33301 -2.66699 17.833 -8 25.5s-10.5 13 -15.5 16s-12.167 6.83301 -21.5 11.5c-52 24.667 -80 38.334 -84 41.001c-33.333 22 -50 52.667 -50 92c0 38.667 12.5 69.334 37.5 92.001s56.5 34 94.5 34c56 0 96 -27.667 120 -83z" />
    <glyph glyph-name="t" unicode="t" horiz-adv-x="242" 
d="M238 331h-75v-331h-98v331h-41v90h41v154h98v-154h75v-90z" />
    <glyph glyph-name="u" unicode="u" horiz-adv-x="484" 
d="M62 421h98.001v-241c0 -35.333 6 -60.666 18 -75.999c14.667 -19.333 36 -29 64 -29s49.333 9.66699 64 29c12 15.333 18 40.666 18 75.999v241h98v-244c0 -62 -15 -108 -45 -138c-34.667 -34.667 -80.334 -52 -137.001 -52c-54.667 0 -99 17.333 -133 52
c-30 30 -45 76 -45 138v244z" />
    <glyph glyph-name="v" unicode="v" horiz-adv-x="448" 
d="M6 421h110l108 -240l108 240h110l-218 -451z" />
    <glyph glyph-name="w" unicode="w" horiz-adv-x="686" 
d="M6 421h110l109 -241l118 277l118 -277l109 241h110l-219 -451l-118 269l-118 -269z" />
    <glyph glyph-name="x" unicode="x" horiz-adv-x="496" 
d="M6 0l186 228l-150 193h116l93 -123l94 123h120l-155 -193l180 -228h-118l-121 157l-125 -157h-120z" />
    <glyph glyph-name="y" unicode="y" horiz-adv-x="482" 
d="M31 -229l162 307l-187 343h118l124 -237l118 237h110l-335 -650h-110z" />
    <glyph glyph-name="z" unicode="z" horiz-adv-x="480" 
d="M472 421l-271 -331h250v-90h-443l273 331h-215v90h406z" />
    <glyph glyph-name="braceleft" unicode="{" 
d="M288 512v-148.002c0 -32.667 -4 -57.334 -12 -74.001c-10.667 -21.333 -27.334 -37 -50.001 -47c22.667 -10 39.334 -25.667 50.001 -47c8 -16.667 12 -41.334 12 -74.001v-148c0 -31.333 5.66699 -52.666 17 -63.999c11.333 -10.667 35 -16 71 -16h8v-84h-47
c-47.333 0 -81.666 8 -102.999 24c-29.333 22 -44 60.333 -44 115v171c0 48.667 -18.667 76.334 -56 83.001v80c37.333 6.66699 56 34.334 56 83.001v171c0 54.667 14.667 93 44 115c21.333 16 55.666 24 102.999 24h47v-84h-8c-36 0 -59.667 -5.33301 -71 -16
c-11.333 -11.333 -17 -32.666 -17 -63.999z" />
    <glyph glyph-name="bar" unicode="|" 
d="M202 -250v1000h96v-1000h-96z" />
    <glyph glyph-name="braceright" unicode="}" 
d="M230 -26l0.000976562 148.002c0 32.667 4 57.334 12 74.001c10.667 21.333 27.334 37 50.001 47c-22.667 10 -39.334 25.667 -50.001 47c-8 16.667 -12 41.334 -12 74.001v148c0 31.333 -5.66699 52.666 -17 63.999c-11.333 10.667 -35 16 -71 16h-8v84h47
c47.333 0 81.666 -8 102.999 -24c29.333 -22 44 -60.333 44 -115v-171c0 -48.667 18.667 -76.334 56 -83.001v-80c-37.333 -6.66699 -56 -34.334 -56 -83.001v-171c0 -54.667 -14.667 -93 -44 -115c-20.667 -16 -55 -24 -103 -24h-47v84h8c36 0 59.667 5.33301 71 16
c11.333 11.333 17 32.666 17 63.999z" />
    <glyph glyph-name="asciitilde" unicode="~" horiz-adv-x="668" 
d="M519 736l57 -32.999c-17.333 -40.667 -39.333 -71.667 -66 -93c-24 -18.667 -51.667 -28 -83 -28c-24 0 -61.333 10.667 -112 32c-40.667 17.333 -69.667 26 -87 26c-20.667 0 -37.667 -7.33301 -51 -22c-12 -12 -21.667 -27 -29 -45l-56 36c14 34 30.667 61.667 50 83
c24.667 28 55.334 42 92.001 42c25.333 0 62 -10.333 110 -31c43.333 -18.667 74.333 -28 93 -28c19.333 0 35.666 6 48.999 18c13.333 11.333 24.333 25.666 33 42.999z" />
    <glyph glyph-name="currency" unicode="&#xa4;" horiz-adv-x="668" 
d="M92 660l99 -99c39.333 32 87 48 143 48s103.667 -16 143 -48l99 99l54 -54l-99 -99c30 -38.667 45 -85.334 45 -140.001s-15 -101.334 -45 -140.001l99 -99l-54 -54l-99 99c-39.333 -32 -87 -48 -143 -48s-103.667 16 -143 48l-99 -99l-54 54l99 99
c-30 38.667 -45 85.334 -45 140.001s15 101.334 45 140.001l-99 99zM334 211c43.333 0 79.5 14.667 108.5 44s43.5 66.666 43.5 111.999s-14.5 82.666 -43.5 111.999s-65.167 44 -108.5 44s-79.5 -14.667 -108.5 -44s-43.5 -66.666 -43.5 -111.999
s14.5 -82.666 43.5 -111.999s65.167 -44 108.5 -44z" />
    <glyph glyph-name="brokenbar" unicode="&#xa6;" 
d="M202 390v360h96v-360h-96zM202 -250v360h96v-360h-96z" />
    <glyph glyph-name="section" unicode="&#xa7;" horiz-adv-x="568" 
d="M484 533l-93.9971 0.000976562c1.33301 28 -4.33398 52 -17.001 72c-16.667 25.333 -41.334 38 -74.001 38c-27.333 0 -50 -8.5 -68 -25.5s-27 -38.5 -27 -64.5c0 -12 2 -22.5 6 -31.5s9.83301 -16.667 17.5 -23s15 -11.333 22 -15s15.5 -7.16699 25.5 -10.5
c79.333 -28 130 -50.667 152 -68c38 -30 57 -71.667 57 -125c0 -72 -31.333 -123.333 -94 -154c49.333 -26 74 -69.667 74 -131c0 -56 -18.167 -100.333 -54.5 -133s-80.833 -49 -133.5 -49c-35.333 0 -68.833 8.16699 -100.5 24.5s-55.834 42.166 -72.501 77.499
c-13.333 29.333 -19.666 60.333 -18.999 93h94c1.33301 -26 7 -46.333 17 -61c16 -26.667 43 -40 81 -40c30 0 52.833 8.66699 68.5 26s23.5 38.333 23.5 63c0 22.667 -10.333 42.667 -31 60c-14.667 12.667 -44.334 26.334 -89.001 41.001
c-48.667 17.333 -83 34.333 -103 51c-36.667 30.667 -55 74 -55 130c0 72.667 32 123 96 151c-52 29.333 -78 72.666 -78 129.999c0 52 17.667 94.667 53 128s81 50 137 50c71.333 0 123.333 -26 156 -78c21.333 -34 31.333 -76 30 -126zM287.003 377.001
c-27.333 0 -50.333 -9.33301 -69 -28s-28 -42 -28 -70s9.33301 -51.333 28 -70s41.667 -28 69 -28c28 0 51.167 9.33301 69.5 28s27.5 42 27.5 70s-9.16699 51.333 -27.5 70s-41.5 28 -69.5 28z" />
    <glyph glyph-name="copyright" unicode="&#xa9;" horiz-adv-x="758" 
d="M33 333c0 100 32.667 182.833 98 248.5s148 98.5 248 98.5s182.667 -32.833 248 -98.5s98 -148.5 98 -248.5s-32.667 -182.833 -98 -248.5s-148 -98.5 -248 -98.5s-182.667 32.833 -248 98.5s-98 148.5 -98 248.5zM669 333c0 84 -27.333 154.5 -82 211.5
s-124 85.5 -208 85.5s-153.333 -28.5 -208 -85.5s-82 -127.5 -82 -211.5s27.5 -154.5 82.5 -211.5s124.167 -85.5 207.5 -85.5s152.5 28.5 207.5 85.5s82.5 127.5 82.5 211.5zM512 510l-0.000976562 -86.998c-34 33.333 -73.333 50 -118 50c-36 0 -68.167 -12.333 -96.5 -37
s-42.5 -59.334 -42.5 -104.001c0 -40.667 13 -73.834 39 -99.501s59.667 -38.5 101 -38.5s80.333 17 117 51v-88c-36.667 -20.667 -76 -31 -118 -31c-61.333 0 -112.5 19.667 -153.5 59s-61.5 88.333 -61.5 147c0 60.667 20.833 110.667 62.5 150s93.834 59 156.501 59
c40.667 0 78.667 -10.333 114 -31z" />
    <glyph glyph-name="guillemotleft" unicode="&#xab;" horiz-adv-x="510" 
d="M140 217l130 -169l-65 -47l-165 216l165 216l65 -47zM326 217l130 -169l-65 -47l-165 216l165 216l65 -47z" />
    <glyph glyph-name="logicalnot" unicode="&#xac;" 
d="M467 0h-98v179h-336v88h434v-267z" />
    <glyph glyph-name="registered" unicode="&#xae;" horiz-adv-x="758" 
d="M33 333c0 100 32.667 182.833 98 248.5s148 98.5 248 98.5s182.667 -32.833 248 -98.5s98 -148.5 98 -248.5s-32.667 -182.833 -98 -248.5s-148 -98.5 -248 -98.5s-182.667 32.833 -248 98.5s-98 148.5 -98 248.5zM669 333c0 84 -27.333 154.5 -82 211.5
s-124 85.5 -208 85.5s-153.333 -28.5 -208 -85.5s-82 -127.5 -82 -211.5s27.5 -154.5 82.5 -211.5s124.167 -85.5 207.5 -85.5s152.5 28.5 207.5 85.5s82.5 127.5 82.5 211.5zM548 153l-86.999 -0.000976562l-116 148v-148h-71v374h99c28 0 51.667 -4 71 -12
s33.166 -18.333 41.499 -31s14 -24.5 17 -35.5s4.5 -22.167 4.5 -33.5c0 -27.333 -7.5 -50.166 -22.5 -68.499s-35.167 -30.833 -60.5 -37.5zM345.001 463.999v-104h14c52 0 78 17.667 78 53c0 34 -25.333 51 -76 51h-16z" />
    <glyph glyph-name="degree" unicode="&#xb0;" 
d="M104 522c0 40.667 14 75 42 103s62.667 42 104 42s76 -14 104 -42s42 -62.333 42 -103s-14 -75 -42 -103s-62.667 -42 -104 -42s-76 14 -104 42s-42 62.333 -42 103zM166 522c0 -24.667 8.16699 -45.334 24.5 -62.001s36.166 -25 59.499 -25s43.166 8.33301 59.499 25
s24.5 37.334 24.5 62.001s-8.16699 45.334 -24.5 62.001s-36.166 25 -59.499 25s-43.166 -8.33301 -59.499 -25s-24.5 -37.334 -24.5 -62.001z" />
    <glyph glyph-name="plusminus" unicode="&#xb1;" 
d="M33 350v90h170v163h94v-163h170v-90h-170v-163h-94v163h-170zM33 60v90h434v-90h-434z" />
    <glyph glyph-name="mu" unicode="&#xb5;" horiz-adv-x="524" 
d="M160 -170l-98.001 -0.000976562v591h98v-205c0 -39.333 5.66699 -69.666 17 -90.999c17.333 -32.667 45.333 -49 84 -49c36.667 0 64.334 16.667 83.001 50c13.333 23.333 20 55.333 20 96v199h98v-421h-98v73c-8 -26 -21.5 -46.667 -40.5 -62s-40.833 -23 -65.5 -23
c-44 0 -76.667 23 -98 69v-227z" />
    <glyph glyph-name="mu" unicode="&#x3bc;" horiz-adv-x="524" 
d="M160 -170l-98.001 -0.000976562v591h98v-205c0 -39.333 5.66699 -69.666 17 -90.999c17.333 -32.667 45.333 -49 84 -49c36.667 0 64.334 16.667 83.001 50c13.333 23.333 20 55.333 20 96v199h98v-421h-98v73c-8 -26 -21.5 -46.667 -40.5 -62s-40.833 -23 -65.5 -23
c-44 0 -76.667 23 -98 69v-227z" />
    <glyph glyph-name="paragraph" unicode="&#xb6;" horiz-adv-x="616" 
d="M301 -96h-83v413h-13c-53.333 0 -96.833 15.833 -130.5 47.5s-50.5 73.167 -50.5 124.5c0 38 9.66699 71.5 29 100.5s46 49.5 80 61.5c32 10.667 70.333 16 115 16h297v-76h-66v-687h-82v687h-96v-687z" />
    <glyph glyph-name="periodcentered" unicode="&#xb7;" horiz-adv-x="200" 
d="M22 340c0 22 7.5 40.5 22.5 55.5s33.5 22.5 55.5 22.5s40.5 -7.5 55.5 -22.5s22.5 -33.5 22.5 -55.5s-7.5 -40.5 -22.5 -55.5s-33.5 -22.5 -55.5 -22.5s-40.5 7.5 -55.5 22.5s-22.5 33.5 -22.5 55.5z" />
    <glyph glyph-name="periodcentered" unicode="&#x2219;" horiz-adv-x="200" 
d="M22 340c0 22 7.5 40.5 22.5 55.5s33.5 22.5 55.5 22.5s40.5 -7.5 55.5 -22.5s22.5 -33.5 22.5 -55.5s-7.5 -40.5 -22.5 -55.5s-33.5 -22.5 -55.5 -22.5s-40.5 7.5 -55.5 22.5s-22.5 33.5 -22.5 55.5z" />
    <glyph glyph-name="guillemotright" unicode="&#xbb;" horiz-adv-x="510" 
d="M184 217l-130 169l65 47l165 -216l-165 -216l-65 47zM370 217l-130 169l65 47l165 -216l-165 -216l-65 47z" />
    <glyph glyph-name="afii10023" unicode="&#x401;" 
d="M448 667v-96h-266v-159h258v-96h-258v-220h266v-96h-368v667h368zM104 795c0 17.333 6 32 18 44s26.667 18 44 18s32 -6 44 -18s18 -26.667 18 -44s-6 -32 -18 -44s-26.667 -18 -44 -18s-32 6 -44 18s-18 26.667 -18 44zM300 795c0 17.333 6 32 18 44s26.667 18 44 18
s32 -6 44 -18s18 -26.667 18 -44s-6 -32 -18 -44s-26.667 -18 -44 -18s-32 6 -44 18s-18 26.667 -18 44z" />
    <glyph glyph-name="afii10051" unicode="&#x402;" horiz-adv-x="700" 
d="M486 571h-219.999v-178c44 4.66699 87.333 7 130 7c66 0 118.333 -10.333 157 -31c66 -34.667 99 -94.334 99 -179.001c0 -61.333 -18.5 -110.166 -55.5 -146.499s-84.5 -54.5 -142.5 -54.5c-46.667 0 -89.334 10 -128.001 30l24 93c34 -19.333 69 -29 105 -29
c28.667 0 51.667 9.33301 69 28s26 44 26 76c0 50.667 -20 84.667 -60 102c-24 11.333 -57 17 -99 17c-38 0 -79.667 -2.33301 -125 -7v-299h-102v571h-154v96h476v-96z" />
    <glyph glyph-name="afii10052" unicode="&#x403;" horiz-adv-x="428" 
d="M80 0v667h334v-96h-232v-571h-102zM234 727l-48 40l138 139l86 -60z" />
    <glyph glyph-name="afii10053" unicode="&#x404;" horiz-adv-x="620" 
d="M574 631l0.00195312 -120c-54 49.333 -114.333 74 -181 74c-76.667 0 -136 -23.333 -178 -70c-31.333 -34 -51 -75.667 -59 -125h328v-96h-331c4.66699 -54 25 -100.333 61 -139c44.667 -49.333 104.667 -74 180 -74c66 0 126 25.667 180 77v-121
c-56 -33.333 -117 -50 -183 -50c-92.667 0 -171.334 30.667 -236.001 92c-71.333 66.667 -107 150.667 -107 252c0 106.667 35.667 193.667 107 261c61.333 58 141.666 87 240.999 87c68.667 0 128 -16 178 -48z" />
    <glyph glyph-name="afii10054" unicode="&#x405;" horiz-adv-x="516" 
d="M450 567l-81.998 -48.001c-6.66699 16 -16.667 30 -30 42c-20 16 -44 24 -72 24c-30 0 -53.167 -7.66699 -69.5 -23s-24.5 -34.333 -24.5 -57c0 -34.667 24 -61.667 72 -81l67 -27c104.667 -42.667 157 -108 157 -196c0 -63.333 -20.167 -114.833 -60.5 -154.5
s-91.833 -59.5 -154.5 -59.5c-64.667 0 -117 22.333 -157 67c-32.667 36.667 -51.334 80 -56.001 130l101 22c0 -32 9.33301 -60.333 28 -85c21.333 -26.667 50.333 -40 87 -40c31.333 0 57.5 10.333 78.5 31s31.5 47.667 31.5 81c0 30.667 -8.83301 54.334 -26.5 71.001
s-40.834 31 -69.501 43l-64 27c-90.667 38 -136 94.333 -136 169c0 48 17.5 89.333 52.5 124s82.5 52 142.5 52c54 0 98.667 -15 134 -45c20.667 -18.667 37.667 -41 51 -67z" />
    <glyph glyph-name="afii10055" unicode="&#x406;" horiz-adv-x="262" 
d="M80 667h102v-667h-102v667z" />
    <glyph glyph-name="afii10056" unicode="&#x407;" horiz-adv-x="262" 
d="M80 667h102v-667h-102v667zM0 795c0 15.333 5.66699 28.5 17 39.5s24.333 16.5 39 16.5s27.667 -5.5 39 -16.5s17 -24.167 17 -39.5s-5.66699 -28.5 -17 -39.5s-24.333 -16.5 -39 -16.5s-27.667 5.5 -39 16.5s-17 24.167 -17 39.5zM150 795
c0 15.333 5.66699 28.5 17 39.5s24.333 16.5 39 16.5s27.667 -5.5 39 -16.5s17 -24.167 17 -39.5s-5.66699 -28.5 -17 -39.5s-24.333 -16.5 -39 -16.5s-27.667 5.5 -39 16.5s-17 24.167 -17 39.5z" />
    <glyph glyph-name="afii10057" unicode="&#x408;" horiz-adv-x="362" 
d="M180 667l102 -0.000976562v-432c0 -68 -8.33301 -118.667 -25 -152c-32 -64 -84.333 -96 -157 -96c-44 0 -83.333 11.333 -118 34l50 86c18.667 -16 42 -24 70 -24c32.667 0 55 15 67 45c7.33301 18.667 11 54.334 11 107.001v432z" />
    <glyph glyph-name="afii10058" unicode="&#x409;" horiz-adv-x="900" 
d="M144 667l426 0.00195312v-269h76c71.333 0 127 -17.667 167 -53c42 -36.667 63 -85.667 63 -147c0 -32 -7.16699 -62.5 -21.5 -91.5s-34.833 -52.5 -61.5 -70.5c-36 -24 -84.667 -36 -146 -36h-179v571h-222v-332c0 -32 -1 -57.833 -3 -77.5
s-8.16699 -41.834 -18.5 -66.501s-25.166 -45 -44.499 -61c-32.667 -26.667 -73 -40 -121 -40c-14 0 -29 2 -45 6v94c13.333 -4 25.666 -6 36.999 -6c24.667 0 44.667 7.66699 60 23c10.667 10 18.5 25.167 23.5 45.5s7.83301 37.166 8.5 50.499s1 34 1 62v398zM570 302.002
l0.000976562 -205.999h72c89.333 0 134 33.667 134 101c0 29.333 -9.83301 54.166 -29.5 74.499s-53.834 30.5 -102.501 30.5h-74z" />
    <glyph glyph-name="afii10059" unicode="&#x40a;" horiz-adv-x="900" 
d="M182 667v-269h286v269h102v-269h76c71.333 0 127 -17.667 167 -53c42 -36.667 63 -85.667 63 -147c0 -32 -7.16699 -62.5 -21.5 -91.5s-34.833 -52.5 -61.5 -70.5c-36 -24 -84.667 -36 -146 -36h-179v302h-286v-302h-102v667h102zM570 302l0.000976562 -205.999h72
c89.333 0 134 33.667 134 101c0 29.333 -9.83301 54.166 -29.5 74.499s-53.834 30.5 -102.501 30.5h-74z" />
    <glyph glyph-name="afii10060" unicode="&#x40b;" horiz-adv-x="690" 
d="M486 571h-220.001v-178c41.333 4.66699 84.333 7 129 7c78.667 0 135.334 -13.667 170.001 -41c43.333 -34 65 -88 65 -162v-197h-102v182c0 50 -12 84.333 -36 103c-18 14 -53.333 21 -106 21c-36.667 0 -76.667 -2.33301 -120 -7v-299h-102v571h-154v96h476v-96z" />
    <glyph glyph-name="afii10061" unicode="&#x40c;" horiz-adv-x="586" 
d="M182 667v-266l258 266h134l-301 -302l303 -365h-136l-238 296l-20 -20v-276h-102v667h102zM277 727l-48 40l138 139l86 -60z" />
    <glyph glyph-name="afii10062" unicode="&#x40e;" horiz-adv-x="570" 
d="M6 667h124l175 -346l153 346h106l-301 -667h-106l90 199zM129 832l80.0039 36c4 -12.667 10.167 -23.167 18.5 -31.5s17.666 -14 27.999 -17s18.166 -5 23.499 -6s10.333 -1.5 15 -1.5s9.66699 0.5 15 1.5s13.166 3 23.499 6s19.666 8.66699 27.999 17
s14.5 18.833 18.5 31.5l80 -36c-15.333 -37.333 -38.5 -63.666 -69.5 -78.999s-62.833 -23 -95.5 -23s-64.5 7.66699 -95.5 23s-54.167 41.666 -69.5 78.999z" />
    <glyph glyph-name="afii10145" unicode="&#x40f;" horiz-adv-x="640" 
d="M80 0v667h102v-571h276v571h102v-667h-192v-180h-96v180h-192z" />
    <glyph glyph-name="afii10017" unicode="&#x410;" horiz-adv-x="656" 
d="M542 0l-70 161h-285l-73 -161h-110l332 706l316 -706h-110zM229 257h202l-99 226z" />
    <glyph glyph-name="afii10018" unicode="&#x411;" horiz-adv-x="526" 
d="M80 0v667h334v-96h-232v-173h66c71.333 0 127 -17.667 167 -53c42 -36.667 63 -85.667 63 -147c0 -32 -7.16699 -62.5 -21.5 -91.5s-34.833 -52.5 -61.5 -70.5c-36 -24 -84.667 -36 -146 -36h-169zM182 302l0.000976562 -205.999h62c89.333 0 134 33.667 134 101
c0 29.333 -9.83301 54.166 -29.5 74.499s-53.834 30.5 -102.501 30.5h-64z" />
    <glyph glyph-name="afii10019" unicode="&#x412;" horiz-adv-x="526" 
d="M80 667l101 -0.00195312c73.333 0 126.666 -11.667 159.999 -35c51.333 -34.667 77 -85 77 -151c0 -52 -18.667 -92.667 -56 -122c36.667 -11.333 65.167 -31.166 85.5 -59.499s30.5 -60.166 30.5 -95.499c0 -68.667 -22.333 -121 -67 -157
c-24.667 -20.667 -50.167 -33.667 -76.5 -39s-60.166 -8 -101.499 -8h-153v667zM182 570.998v-191h31c72.667 0 109 32.667 109 98c0 62 -35 93 -105 93h-35zM182 295.998v-200.001h62c50.667 0 85.667 9.83301 105 29.5s29 42.834 29 69.501c0 67.333 -44 101 -132 101h-64
z" />
    <glyph glyph-name="afii10020" unicode="&#x413;" horiz-adv-x="428" 
d="M80 0v667h334v-96h-232v-571h-102z" />
    <glyph glyph-name="afii10021" unicode="&#x414;" horiz-adv-x="650" 
d="M144 667h415.998v-571h76v-246h-96v150h-430v-150h-96v246c22.667 -0.666992 43.334 7.5 62.001 24.5s33.334 38.833 44.001 65.5c16 40.667 24 99 24 175v306zM245.998 571v-210c0 -83.333 -7.66699 -145.333 -23 -186c-12 -30.667 -29.333 -57 -52 -79h287v475h-212z
" />
    <glyph glyph-name="afii10022" unicode="&#x415;" 
d="M448 667v-96h-266v-159h258v-96h-258v-220h266v-96h-368v667h368z" />
    <glyph glyph-name="afii10024" unicode="&#x416;" horiz-adv-x="846" 
d="M372 667h102v-269l238 269h124l-275 -306l281 -361h-126l-226 294l-16 -18v-276h-102v276l-16 18l-226 -294h-126l281 361l-275 306h124l238 -269v269z" />
    <glyph glyph-name="afii10025" unicode="&#x417;" horiz-adv-x="570" 
d="M143 516l-67.0039 65.001c51.333 64.667 118.333 97 201 97c62 0 111.333 -15.667 148 -47s55 -72.333 55 -123c0 -63.333 -27.333 -110.333 -82 -141c28.667 -7.33301 52.334 -19.5 71.001 -36.5s31.334 -35.833 38.001 -56.5s10.834 -36.5 12.501 -47.5
s2.5 -21.5 2.5 -31.5c0 -70.667 -29 -125 -87 -163c-44.667 -29.333 -97.334 -44 -158.001 -44c-36.667 0 -70.167 5.5 -100.5 16.5s-55.333 25.5 -75 43.5s-35.167 34.833 -46.5 50.5s-21 32.167 -29 49.5l90 46c12.667 -31.333 32.834 -57.833 60.501 -79.5
s62.167 -32.5 103.5 -32.5c38 0 68.667 7.33301 92 22c33.333 19.333 50 48.666 50 87.999c0 74.667 -53.333 112 -160 112h-60v96h60c32 0 60 8.33301 84 25s36 41.667 36 75c0 24 -7.66699 43.333 -23 58c-18 17.333 -44.667 26 -80 26
c-57.333 0 -102.666 -22.667 -135.999 -68z" />
    <glyph glyph-name="afii10026" unicode="&#x418;" horiz-adv-x="712" 
d="M530 0v449l-450 -479v697h102v-451l450 479v-695h-102z" />
    <glyph glyph-name="afii10027" unicode="&#x419;" horiz-adv-x="712" 
d="M530 0v449l-450 -479v697h102v-451l450 479v-695h-102zM191 832l80.0059 36c4 -12.667 10.167 -23.167 18.5 -31.5s17.666 -14 27.999 -17s18.166 -5 23.499 -6s10.333 -1.5 15 -1.5s9.66699 0.5 15 1.5s13.166 3 23.499 6s19.666 8.66699 27.999 17
s14.5 18.833 18.5 31.5l80 -36c-12.667 -34 -34.334 -59.5 -65.001 -76.5s-64 -25.5 -100 -25.5s-69.333 8.5 -100 25.5s-52.334 42.5 -65.001 76.5z" />
    <glyph glyph-name="afii10028" unicode="&#x41a;" horiz-adv-x="586" 
d="M182 667v-266l258 266h134l-301 -302l303 -365h-136l-238 296l-20 -20v-276h-102v667h102z" />
    <glyph glyph-name="afii10029" unicode="&#x41b;" horiz-adv-x="650" 
d="M144 667l426 0.00195312v-667h-102v571h-222v-332c0 -32 -1 -57.833 -3 -77.5s-8.16699 -41.834 -18.5 -66.501s-25.166 -45 -44.499 -61c-32.667 -26.667 -73 -40 -121 -40c-14 0 -29 2 -45 6v94c13.333 -4 25.666 -6 36.999 -6c24.667 0 44.667 7.66699 60 23
c10.667 10 18.5 25.167 23.5 45.5s7.83301 37.166 8.5 50.499s1 34 1 62v398z" />
    <glyph glyph-name="afii10030" unicode="&#x41c;" horiz-adv-x="852" 
d="M164 0h-104l140 717l232 -518l234 518l126 -717h-104l-68 402l-194 -433l-192 434z" />
    <glyph glyph-name="afii10031" unicode="&#x41d;" horiz-adv-x="650" 
d="M182 667v-260h286v260h102v-667h-102v311h-286v-311h-102v667h102z" />
    <glyph glyph-name="afii10032" unicode="&#x41e;" horiz-adv-x="790" 
d="M395 679c99.333 0 182 -33 248 -99s99 -148.333 99 -247s-33 -181 -99 -247s-148.667 -99 -248 -99s-182 33 -248 99s-99 148.333 -99 247s33 181 99 247s148.667 99 248 99zM395 81c71.333 0 130 23.5 176 70.5s69 107.5 69 181.5s-23 134.5 -69 181.5
s-104.667 70.5 -176 70.5s-130 -23.5 -176 -70.5s-69 -107.5 -69 -181.5s23 -134.5 69 -181.5s104.667 -70.5 176 -70.5z" />
    <glyph glyph-name="afii10033" unicode="&#x41f;" horiz-adv-x="650" 
d="M80 667h490v-667h-102v571h-286v-571h-102v667z" />
    <glyph glyph-name="afii10034" unicode="&#x420;" horiz-adv-x="480" 
d="M80 667h147c61.333 0 110 -12 146 -36c26.667 -18 47.167 -41.5 61.5 -70.5s21.5 -59.5 21.5 -91.5c0 -60 -21.667 -108.667 -65 -146c-40.667 -34.667 -95 -52 -163 -52h-46v-271h-102v667zM182 573v-208h46c42.667 0 75 9.5 97 28.5s33 44.5 33 76.5
c0 11.333 -1.5 22 -4.5 32s-8.66699 20.833 -17 32.5s-21.833 21 -40.5 28s-41.667 10.5 -69 10.5h-45z" />
    <glyph glyph-name="afii10035" unicode="&#x421;" horiz-adv-x="620" 
d="M574 631l0.00195312 -120c-54.667 49.333 -115 74 -181 74c-72 0 -130.5 -23.833 -175.5 -71.5s-67.5 -108.5 -67.5 -182.5c0 -71.333 23 -130.833 69 -178.5s104.333 -71.5 175 -71.5c66 0 126 25.667 180 77v-121c-56 -33.333 -117 -50 -183 -50
c-92.667 0 -171.334 30.667 -236.001 92c-71.333 66.667 -107 150.667 -107 252c0 106.667 35.667 193.667 107 261c61.333 58 141.666 87 240.999 87c68.667 0 128 -16 178 -48z" />
    <glyph glyph-name="afii10036" unicode="&#x422;" horiz-adv-x="428" 
d="M418 571h-153v-571h-102v571h-153v96h408v-96z" />
    <glyph glyph-name="afii10037" unicode="&#x423;" horiz-adv-x="570" 
d="M6 667h124l175 -346l153 346h106l-301 -667h-106l90 199z" />
    <glyph glyph-name="afii10038" unicode="&#x424;" horiz-adv-x="826" 
d="M362 0v94h-18c-98.667 0 -172.667 24.167 -222 72.5s-74 110.833 -74 187.5s24.667 139.167 74 187.5s123.333 72.5 222 72.5h18v80h102v-80h18c98.667 0 172.667 -24.167 222 -72.5s74 -110.833 74 -187.5s-24.667 -139.167 -74 -187.5s-123.333 -72.5 -222 -72.5h-18
v-94h-102zM362 188v332h-20c-64 0 -112 -15.167 -144 -45.5s-48 -70.5 -48 -120.5s16 -90.167 48 -120.5s80 -45.5 144 -45.5h20zM464 520v-332h20c64 0 112 15.167 144 45.5s48 70.5 48 120.5s-16 90.167 -48 120.5s-80 45.5 -144 45.5h-20z" />
    <glyph glyph-name="afii10039" unicode="&#x425;" horiz-adv-x="546" 
d="M10 0l210 348l-184 319h114l130 -226l133 226h114l-192 -319l201 -348h-114l-146 255l-152 -255h-114z" />
    <glyph glyph-name="afii10040" unicode="&#x426;" horiz-adv-x="660" 
d="M80 0v667h102v-571h276v571h102v-571h86v-246h-96v150h-470z" />
    <glyph glyph-name="afii10041" unicode="&#x427;" horiz-adv-x="606" 
d="M424 0v274c-60.667 -4.66699 -106 -7 -136 -7c-74 0 -128.333 13.667 -163 41c-43.333 34 -65 88 -65 162v197h102v-182c0 -50 12 -84.333 36 -103c18 -14 53.333 -21 106 -21c38 0 78 2.33301 120 7v299h102v-667h-102z" />
    <glyph glyph-name="afii10042" unicode="&#x428;" horiz-adv-x="938" 
d="M80 0v667h102v-571h236v571h102v-571h236v571h102v-667h-778z" />
    <glyph glyph-name="afii10043" unicode="&#x429;" horiz-adv-x="958" 
d="M80 0v667h102v-571h236v571h102v-571h236v571h102v-571h86v-246h-96v150h-768z" />
    <glyph glyph-name="afii10044" unicode="&#x42a;" horiz-adv-x="592" 
d="M160 0v571h-150v96h252v-269h76c71.333 0 127 -17.667 167 -53c42 -36.667 63 -85.667 63 -147c0 -32 -7.16699 -62.5 -21.5 -91.5s-34.833 -52.5 -61.5 -70.5c-36 -24 -84.667 -36 -146 -36h-179zM262 302l0.000976562 -205.999h72c89.333 0 134 33.667 134 101
c0 29.333 -9.83301 54.166 -29.5 74.499s-53.834 30.5 -102.501 30.5h-74z" />
    <glyph glyph-name="afii10045" unicode="&#x42b;" horiz-adv-x="740" 
d="M80 0v667h102v-269h76c71.333 0 127 -17.667 167 -53c42 -36.667 63 -85.667 63 -147c0 -32 -7.16699 -62.5 -21.5 -91.5s-34.833 -52.5 -61.5 -70.5c-36 -24 -84.667 -36 -146 -36h-179zM182 302l0.000976562 -205.999h72c89.333 0 134 33.667 134 101
c0 29.333 -9.83301 54.166 -29.5 74.499s-53.834 30.5 -102.501 30.5h-74zM558.001 667.001h102v-667h-102v667z" />
    <glyph glyph-name="afii10046" unicode="&#x42c;" horiz-adv-x="512" 
d="M80 0v667h102v-269h76c71.333 0 127 -17.667 167 -53c42 -36.667 63 -85.667 63 -147c0 -32 -7.16699 -62.5 -21.5 -91.5s-34.833 -52.5 -61.5 -70.5c-36 -24 -84.667 -36 -146 -36h-179zM182 302l0.000976562 -205.999h72c89.333 0 134 33.667 134 101
c0 29.333 -9.83301 54.166 -29.5 74.499s-53.834 30.5 -102.501 30.5h-74z" />
    <glyph glyph-name="afii10047" unicode="&#x42d;" horiz-adv-x="622" 
d="M48 511l0.000976562 120c50.667 32 114 48 190 48c98.667 0 177.667 -29 237 -87c66 -63.333 99 -150.333 99 -261c0 -102.667 -33 -186.667 -99 -252c-62 -61.333 -141 -92 -237 -92c-70 0 -133.333 16.667 -190 50v121c54 -51.333 115 -77 183 -77
c76 0 136 23.667 180 71c35.333 38 54.666 85.333 57.999 142h-331v96h328c-6.66699 52 -27 95.667 -61 131c-40.667 42.667 -96.667 64 -168 64c-69.333 0 -132.333 -24.667 -189 -74z" />
    <glyph glyph-name="afii10048" unicode="&#x42e;" horiz-adv-x="1000" 
d="M182 402l100 0.00195312c11.333 69.333 41 128.666 89 177.999c64.667 66 146 99 244 99c97.333 0 177.833 -33 241.5 -99s95.5 -148.333 95.5 -247s-32 -181 -96 -247s-144.333 -99 -241 -99c-110.667 0 -197.667 39 -261 117c-46 57.333 -70 124.666 -72 201.999h-100
v-306h-102v667h102v-265zM615 81.002c68.667 0 125 23.667 169 71s66 107.666 66 180.999s-22 133.666 -66 180.999s-100.333 71 -169 71s-125 -23.667 -169 -71s-66 -107.666 -66 -180.999s22 -133.666 66 -180.999s100.333 -71 169 -71z" />
    <glyph glyph-name="afii10049" unicode="&#x42f;" horiz-adv-x="534" 
d="M20 0l197.999 278.001c-39.333 4.66699 -73.666 19.667 -102.999 45c-38 33.333 -57 80.666 -57 141.999c0 56 17 102.333 51 139c18 19.333 39.333 34 64 44s44.667 15.667 60 17s34.333 2 57 2h164v-667h-102v267h-24l-182 -267h-126zM351.999 573.001h-50
c-54.667 0 -92.667 -10.333 -114 -31c-21.333 -20 -32 -45.667 -32 -77c0 -36 12.667 -62.667 38 -80c24 -16 58 -24 102 -24h56v212z" />
    <glyph glyph-name="afii10065" unicode="&#x430;" horiz-adv-x="530" 
d="M370 372l-0.000976562 49h98v-421h-98v44c-32.667 -38 -74.667 -57 -126 -57c-62 0 -111.5 22 -148.5 66s-55.5 96.667 -55.5 158c0 66.667 19.833 120.167 59.5 160.5s88.167 60.5 145.5 60.5c52.667 0 94.334 -20 125.001 -60zM256.999 344
c-34.667 0 -62.834 -13 -84.501 -39s-32.5 -58 -32.5 -96c0 -37.333 10.833 -69 32.5 -95s49.834 -39 84.501 -39c33.333 0 61.5 11.667 84.5 35s34.5 56 34.5 98c0 43.333 -11.5 76.833 -34.5 100.5s-51.167 35.5 -84.5 35.5z" />
    <glyph glyph-name="afii10066" unicode="&#x431;" horiz-adv-x="530" 
d="M380 710l99.9971 -0.000976562c-7.33301 -34.667 -22.666 -64.667 -45.999 -90s-52 -42.666 -86 -51.999l-66 -18c-17.333 -4.66699 -30.666 -8.66699 -39.999 -12s-20.833 -9.5 -34.5 -18.5s-25.167 -19.833 -34.5 -32.5c-22 -29.333 -33.667 -67.333 -35 -114h1
c29.333 39.333 77 59 143 59c59.333 0 108.333 -20 147 -60c40.667 -42 61 -95.333 61 -160c0 -65.333 -21.5 -119.166 -64.5 -161.499s-96.5 -63.5 -160.5 -63.5s-115.333 18.667 -154 56c-21.333 20 -37.666 44.667 -48.999 74s-17.833 53.5 -19.5 72.5
s-2.5 42.167 -2.5 69.5c0 130.667 21.333 227 64 289c32 47.333 74 77.333 126 90l70 17c46 11.333 72.667 29.666 80 54.999zM264.997 74.999c38 0 68.333 12.167 91 36.5s34 56.833 34 97.5c0 44.667 -12.167 78.334 -36.5 101.001s-53.833 34 -88.5 34
s-64.167 -11.333 -88.5 -34s-36.5 -56.334 -36.5 -101.001c0 -40.667 11.333 -73.167 34 -97.5s53 -36.5 91 -36.5z" />
    <glyph glyph-name="afii10067" unicode="&#x432;" horiz-adv-x="442" 
d="M62 421h164.999c42 0 74 -8.33301 96 -25c26 -20.667 39 -47.667 39 -81c0 -38 -16.667 -65.333 -50 -82c21.333 -4 40.333 -13.333 57 -28c22 -20 33 -47 33 -81c0 -40.667 -15.333 -72.667 -46 -96c-25.333 -18.667 -57.666 -28 -96.999 -28h-197v421zM159.999 257h50
c17.333 0 30.333 3 39 9c12.667 8 19 19.333 19 34c0 14 -5.66699 25 -17 33c-8 5.33301 -22.333 8 -43 8h-48v-84zM159.999 80l72.999 0.000976562c22 0 39 4 51 12c13.333 8.66699 20 21 20 37c0 17.333 -6.33301 29.666 -19 36.999
c-11.333 7.33301 -27.666 11 -48.999 11h-76v-97z" />
    <glyph glyph-name="afii10068" unicode="&#x433;" horiz-adv-x="328" 
d="M62 0v421h258v-90h-160v-331h-98z" />
    <glyph glyph-name="afii10069" unicode="&#x434;" horiz-adv-x="486" 
d="M98 421h316v-331h64v-210h-90v120h-294v-120h-90v210c34 2 59.667 20.333 77 55c11.333 24.667 17 61.667 17 111v165zM316 90v241h-124v-112c0 -60.667 -16.333 -103.667 -49 -129h173z" />
    <glyph glyph-name="afii10070" unicode="&#x435;" horiz-adv-x="486" 
d="M364 156l81.998 -46c-15.333 -29.333 -33.666 -53.333 -54.999 -72c-38.667 -34 -85.667 -51 -141 -51c-57.333 0 -106.666 19 -147.999 57s-62 92.667 -62 164c0 66.667 18.667 120.667 56 162s87 62 149 62c69.333 0 122 -25.667 158 -77
c26 -37.333 39 -88.333 39 -153v-15h-302c1.33301 -36 13.5 -63.667 36.5 -83s48.833 -29 77.5 -29c26 0 48.333 7.66699 67 23c18.667 14 33 33.333 43 58zM146.998 267h195c-5.33301 23.333 -16.833 42 -34.5 56s-38.5 21 -62.5 21s-44.667 -7 -62 -21
s-29.333 -32.667 -36 -56z" />
    <glyph glyph-name="afii10072" unicode="&#x436;" horiz-adv-x="624" 
d="M263 421h98v-156l127 156h118l-163 -192l179 -229h-122l-127 169l-12 -14v-155h-98v155l-12 14l-127 -169h-122l179 229l-163 192h118l127 -156v156z" />
    <glyph glyph-name="afii10073" unicode="&#x437;" horiz-adv-x="440" 
d="M127 312l-63.001 55c15.333 17.333 33.333 31.333 54 42c30 15.333 63.333 23 100 23c46 0 82.333 -10 109 -30c28.667 -22 43 -48.667 43 -80c0 -42 -19.333 -71.667 -58 -89c20 -3.33301 38.333 -12.333 55 -27c22 -20.667 33 -45.334 33 -74.001
c0 -22.667 -5.33301 -44 -16 -64s-25 -36 -43 -48c-32.667 -22 -74 -33 -124 -33c-47.333 0 -87.666 11.667 -120.999 35c-22 15.333 -40.667 37 -56 65l78 40c7.33301 -17.333 18.333 -31.333 33 -42c16.667 -12 37 -18 61 -18c27.333 0 48.333 4.66699 63 14
c16.667 11.333 25 27.333 25 48c0 18.667 -6.66699 32.334 -20 41.001c-11.333 7.33301 -30 11 -56 11h-51v80h44c18.667 0 32.667 3.33301 42 10c11.333 8 17 19.333 17 34c0 15.333 -6 27.333 -18 36c-10 7.33301 -25 11 -45 11c-20.667 0 -38.667 -4.33301 -54 -13
c-12 -6 -22.667 -15 -32 -27z" />
    <glyph glyph-name="afii10074" unicode="&#x438;" horiz-adv-x="510" 
d="M62 421h98v-239l288 277v-459h-98v245l-288 -277v453z" />
    <glyph glyph-name="afii10075" unicode="&#x439;" horiz-adv-x="510" 
d="M62 421h98v-239l288 277v-459h-98v245l-288 -277v453zM94 603l80.001 23c12.667 -43.333 40 -65 82 -65c41.333 0 68.666 21.667 81.999 65l80 -23c-10.667 -38 -32.167 -67.167 -64.5 -87.5s-64.833 -30.5 -97.5 -30.5s-65.167 10.167 -97.5 30.5
s-53.833 49.5 -64.5 87.5z" />
    <glyph glyph-name="afii10076" unicode="&#x43a;" horiz-adv-x="442" 
d="M62 421h98v-150l140 150h130l-184 -184l194 -237h-124l-140 173l-16 -16v-157h-98v421z" />
    <glyph glyph-name="afii10077" unicode="&#x43b;" horiz-adv-x="470" 
d="M408 421v-420.999h-98v331h-124v-167c0 -52 -13.333 -92.333 -40 -121c-34 -38 -80 -52.333 -138 -43v90c28.667 -6.66699 51.667 -0.333984 69 18.999c10 12 15 30.333 15 55v257h316z" />
    <glyph glyph-name="afii10078" unicode="&#x43c;" horiz-adv-x="580" 
d="M14 0l102 459l174 -321l174 321l102 -459h-100l-42 211l-134 -243l-134 243l-42 -211h-100z" />
    <glyph glyph-name="afii10079" unicode="&#x43d;" horiz-adv-x="494" 
d="M62 0v421h98v-156h174v156h98v-421h-98v175h-174v-175h-98z" />
    <glyph glyph-name="afii10080" unicode="&#x43e;" horiz-adv-x="530" 
d="M265 432c64 0 117.5 -20.833 160.5 -62.5s64.5 -94.834 64.5 -159.501c0 -64 -21.5 -117.167 -64.5 -159.5s-96.5 -63.5 -160.5 -63.5s-117.5 21.167 -160.5 63.5s-64.5 95.5 -64.5 159.5c0 64.667 21.5 117.834 64.5 159.501s96.5 62.5 160.5 62.5zM265 75
c38 0 68.333 12.167 91 36.5s34 56.833 34 97.5c0 44.667 -12.167 78.334 -36.5 101.001s-53.833 34 -88.5 34s-64.167 -11.333 -88.5 -34s-36.5 -56.334 -36.5 -101.001c0 -40.667 11.333 -73.167 34 -97.5s53 -36.5 91 -36.5z" />
    <glyph glyph-name="afii10081" unicode="&#x43f;" horiz-adv-x="490" 
d="M62 421h366v-421h-98v331h-170v-331h-98v421z" />
    <glyph glyph-name="afii10082" unicode="&#x440;" horiz-adv-x="530" 
d="M160 49l-0.000976562 -278.001h-98v650h98v-46c32 38 73.667 57 125 57c57.333 0 105.833 -20.167 145.5 -60.5s59.5 -93.166 59.5 -158.499c0 -67.333 -20.667 -121.833 -62 -163.5s-88.666 -62.5 -141.999 -62.5c-50 0 -92 20.667 -126 62zM272.999 343.999
c-33.333 0 -61.5 -11.833 -84.5 -35.5s-34.5 -57.167 -34.5 -100.5c0 -42 11.5 -74.667 34.5 -98s51.167 -35 84.5 -35c34.667 0 62.834 13 84.501 39s32.5 57.667 32.5 95c0 38 -10.833 70 -32.5 96s-49.834 39 -84.501 39z" />
    <glyph glyph-name="afii10083" unicode="&#x441;" horiz-adv-x="420" 
d="M388 402v-129c-27.333 47.333 -68 71 -122 71c-34 0 -63.5 -12 -88.5 -36s-37.5 -56.667 -37.5 -98c0 -38 11.5 -70 34.5 -96s53.167 -39 90.5 -39c24.667 0 48 6.33301 70 19s39.667 30.334 53 53.001v-129c-36 -20.667 -74.667 -31 -116 -31
c-72.667 0 -130 21.333 -172 64c-40 41.333 -60 94 -60 158c0 67.333 22.667 122.666 68 165.999c40 38 93.667 57 161 57c46 0 85.667 -10 119 -30z" />
    <glyph glyph-name="afii10084" unicode="&#x442;" horiz-adv-x="360" 
d="M352 331h-123v-331h-98v331h-123v90h344v-90z" />
    <glyph glyph-name="afii10085" unicode="&#x443;" horiz-adv-x="482" 
d="M31 -229l162 307l-187 343h118l124 -237l118 237h110l-335 -650h-110z" />
    <glyph glyph-name="afii10086" unicode="&#x444;" horiz-adv-x="670" 
d="M286 -229v222c-72 -0.666992 -129.667 17.666 -173 54.999c-47.333 40 -71 94.333 -71 163c0 68 23.333 122 70 162c42.667 36.667 100.667 55 174 55v239h98v-239c73.333 0 131.333 -18.333 174 -55c46.667 -40 70 -94 70 -162c0 -68.667 -23.667 -123 -71 -163
c-43.333 -37.333 -101 -55.666 -173 -54.999v-222h-98zM286 81l0.000976562 259.001c-38.667 0 -69.334 -7.33301 -92.001 -22c-34.667 -20.667 -52 -56.334 -52 -107.001c0 -47.333 16.333 -82.333 49 -105c25.333 -18 57 -26.333 95 -25zM384.001 340.001
l0.000976562 -259.001c38 -1.33301 69.667 7 95 25c32.667 22.667 49 57.667 49 105c0 50.667 -17.333 86.334 -52 107.001c-22.667 14.667 -53.334 22 -92.001 22z" />
    <glyph glyph-name="afii10087" unicode="&#x445;" horiz-adv-x="496" 
d="M6 0l186 228l-150 193h116l93 -123l94 123h120l-155 -193l180 -228h-118l-121 157l-125 -157h-120z" />
    <glyph glyph-name="afii10088" unicode="&#x446;" horiz-adv-x="502" 
d="M62 0v421h98v-331h166v331h98v-331h70v-210h-90v120h-342z" />
    <glyph glyph-name="afii10089" unicode="&#x447;" horiz-adv-x="450" 
d="M290 0l0.000976562 163c-30 -6 -58.667 -9 -86 -9c-48 0 -85 10.333 -111 31c-27.333 22 -41 55.667 -41 101v135h98v-115c0 -28.667 8.33301 -48 25 -58c11.333 -6.66699 27.666 -10 48.999 -10c24 0 46 3.66699 66 11v172h98v-421h-98z" />
    <glyph glyph-name="afii10090" unicode="&#x448;" horiz-adv-x="698" 
d="M62 0v421h98v-331h140v331h98v-331h140v331h98v-421h-574z" />
    <glyph glyph-name="afii10091" unicode="&#x449;" horiz-adv-x="714" 
d="M62 0v421h98v-331h140v331h98v-331h140v331h98v-331h70v-210h-90v120h-554z" />
    <glyph glyph-name="afii10092" unicode="&#x44a;" horiz-adv-x="436" 
d="M98 0v331.002h-90v90h188v-149h56c18 0 32.667 -0.5 44 -1.5s25 -4.83301 41 -11.5s30 -16.667 42 -30c22 -24.667 33 -55.334 33 -92.001c0 -42 -12.667 -75.667 -38 -101c-11.333 -11.333 -24.833 -19.833 -40.5 -25.5s-28.667 -8.83398 -39 -9.50098
s-24.833 -1 -43.5 -1h-153zM196 84.002h45c24 0 41 3 51 9c14.667 10.667 22 25 22 43c0 18.667 -7 32.667 -21 42c-10.667 6.66699 -27.667 10 -51 10h-46v-104z" />
    <glyph glyph-name="afii10093" unicode="&#x44b;" horiz-adv-x="580" 
d="M62 0v421.002h98v-149h56c18 0 32.667 -0.5 44 -1.5s25 -4.83301 41 -11.5s30 -16.667 42 -30c22 -24.667 33 -55.334 33 -92.001c0 -42 -12.667 -75.667 -38 -101c-11.333 -11.333 -24.833 -19.833 -40.5 -25.5s-28.667 -8.83398 -39 -9.50098s-24.833 -1 -43.5 -1h-153
zM160 84.002h45c24 0 41 3 51 9c14.667 10.667 22 25 22 43c0 18.667 -7 32.667 -21 42c-10.667 6.66699 -27.667 10 -51 10h-46v-104zM420 0.00195312v421h98v-421h-98z" />
    <glyph glyph-name="afii10094" unicode="&#x44c;" horiz-adv-x="400" 
d="M62 0v421.002h98v-149h56c18 0 32.667 -0.5 44 -1.5s25 -4.83301 41 -11.5s30 -16.667 42 -30c22 -24.667 33 -55.334 33 -92.001c0 -42 -12.667 -75.667 -38 -101c-11.333 -11.333 -24.833 -19.833 -40.5 -25.5s-28.667 -8.83398 -39 -9.50098s-24.833 -1 -43.5 -1h-153
zM160 84.002h45c24 0 41 3 51 9c14.667 10.667 22 25 22 43c0 18.667 -7 32.667 -21 42c-10.667 6.66699 -27.667 10 -51 10h-46v-104z" />
    <glyph glyph-name="afii10095" unicode="&#x44d;" horiz-adv-x="428" 
d="M40 317l-0.00195312 93c34.667 14.667 72.667 22 114 22c72.667 0 129.834 -20.833 171.501 -62.5s62.5 -95.5 62.5 -161.5c0 -65.333 -20.833 -118.5 -62.5 -159.5s-95.167 -61.5 -160.5 -61.5c-49.333 0 -91 8 -125 24v93c36.667 -19.333 76 -29 118 -29
c30.667 0 57.834 8.5 81.501 25.5s37.5 40.833 41.5 71.5h-195v90h192c-6.66699 26 -21.5 46.167 -44.5 60.5s-48.5 21.5 -76.5 21.5c-40 0 -79 -9 -117 -27z" />
    <glyph glyph-name="afii10096" unicode="&#x44e;" horiz-adv-x="700" 
d="M160 265l67.001 0.00195312c6.66699 39.333 25 74.333 55 105c41.333 41.333 93.666 62 156.999 62c62.667 0 115.167 -20.833 157.5 -62.5s63.5 -94.834 63.5 -159.501c0 -64 -21.167 -117.167 -63.5 -159.5s-94.833 -63.5 -157.5 -63.5
c-66.667 0 -120.667 22.333 -162 67c-30.667 33.333 -48 73.666 -52 120.999h-65v-175h-98v421h98v-156zM439.001 344.002c-34 0 -62.667 -11.333 -86 -34s-35 -56.334 -35 -101.001s11.667 -78.167 35 -100.5s52 -33.5 86 -33.5s62.667 11.167 86 33.5s35 55.833 35 100.5
s-11.667 78.334 -35 101.001s-52 34 -86 34z" />
    <glyph glyph-name="afii10097" unicode="&#x44f;" horiz-adv-x="418" 
d="M8 0l131.999 167c-26 4 -48.333 14.667 -67 32c-23.333 22.667 -35 51.667 -35 87c0 40 13 72.333 39 97c26.667 25.333 67.334 38 122.001 38h157v-421h-98v155h-20l-115 -155h-115zM257.999 235v102h-57c-23.333 0 -40.333 -3 -51 -9c-16 -10 -24 -24 -24 -42
s6.66699 -31.667 20 -41c10 -6.66699 28 -10 54 -10h58z" />
    <glyph glyph-name="afii10071" unicode="&#x451;" horiz-adv-x="488" 
d="M366 156l82 -46c-13.333 -26.667 -31.666 -50.667 -54.999 -72c-38.667 -34 -86 -51 -142 -51c-64.667 0 -116 20.333 -154 61s-57 94 -57 160c0 66.667 18.667 120.667 56 162s87 62 149 62c70.667 0 124 -25.667 160 -77c26 -37.333 39 -88.333 39 -153v-15h-302
c0.666992 -34 11.667 -61.167 33 -81.5s48.333 -30.5 81 -30.5c26 0 48.333 7.66699 67 23c19.333 16 33.666 35.333 42.999 58zM149 267h195c-5.33301 23.333 -16.833 42 -34.5 56s-38.5 21 -62.5 21s-44.667 -7 -62 -21s-29.333 -32.667 -36 -56zM102 547
c0 17.333 6 32 18 44s26.667 18 44 18s32 -6 44 -18s18 -26.667 18 -44s-6 -32 -18 -44s-26.667 -18 -44 -18s-32 6 -44 18s-18 26.667 -18 44zM282 547c0 17.333 6 32 18 44s26.667 18 44 18s32 -6 44 -18s18 -26.667 18 -44s-6 -32 -18 -44s-26.667 -18 -44 -18
s-32 6 -44 18s-18 26.667 -18 44z" />
    <glyph glyph-name="afii10099" unicode="&#x452;" horiz-adv-x="486" 
d="M62 0l-0.00292969 551.999h-72v76h72v101h98v-101h200v-76h-200v-167c30.667 31.333 68.334 47 113.001 47c56 0 97.333 -19 124 -57c18 -26 27 -65 27 -117v-348c0 -55.333 -14.667 -94.333 -44 -117c-22.667 -18 -52.667 -27 -90 -27c-28 0 -50 3 -66 9v88
c14.667 -6 30.334 -9 47.001 -9c22 0 37.333 7.33301 46 22c6 10 9 30 9 60v313c0 34.667 -6.33301 59 -19 73c-13.333 14.667 -31.666 22 -54.999 22c-32 0 -56 -11.667 -72 -35c-13.333 -19.333 -20 -54.666 -20 -105.999v-203h-98z" />
    <glyph glyph-name="afii10100" unicode="&#x453;" horiz-adv-x="328" 
d="M62 0v421h258v-90h-160v-331h-98zM265 675l90 -46l-156 -144l-54 34z" />
    <glyph glyph-name="afii10101" unicode="&#x454;" horiz-adv-x="428" 
d="M388 404v-103.999c-32 29.333 -70.333 44 -115 44c-28.667 0 -54.667 -7.16699 -78 -21.5s-38.333 -34.5 -45 -60.5h192v-90h-195c4 -30 18 -53.667 42 -71s52 -26 84 -26c45.333 0 83.666 15.333 114.999 46v-104c-31.333 -20 -71.333 -30 -120 -30
c-70.667 0 -126.667 21.333 -168 64c-40 40 -60 92.667 -60 158c0 69.333 22.667 124.666 68 165.999c40 38 93.667 57 161 57c44.667 0 84.334 -9.33301 119.001 -28z" />
    <glyph glyph-name="afii10102" unicode="&#x455;" horiz-adv-x="360" 
d="M307 349l-81.001 -43.0049c-9.33301 25.333 -25 38 -47 38c-8 0 -15.333 -2.16699 -22 -6.5s-10 -11.166 -10 -20.499c0 -2.66699 0.333008 -5.33398 1 -8.00098s1.66699 -5.16699 3 -7.5s2.66602 -4.33301 3.99902 -6s3.33301 -3.5 6 -5.5l6.5 -5
c1.66699 -1.33301 4.33398 -3 8.00098 -5s6.5 -3.33301 8.5 -4s5.16699 -2.16699 9.5 -4.5s7.5 -3.83301 9.5 -4.5c36.667 -17.333 63.334 -31.666 80.001 -42.999c34 -24.667 51 -56 51 -94c0 -40 -14.833 -73.833 -44.5 -101.5s-66.167 -41.5 -109.5 -41.5
c-7.33301 0 -15.5 0.833008 -24.5 2.5s-21.833 5.33398 -38.5 11.001s-32.5 16.334 -47.5 32.001s-26.833 35.167 -35.5 58.5l82 38c5.33301 -15.333 13.833 -28.166 25.5 -38.499s26.167 -15.5 43.5 -15.5c14.667 0 26.5 4.16699 35.5 12.5s13.5 19.166 13.5 32.499
c0 9.33301 -2.66699 17.833 -8 25.5s-10.5 13 -15.5 16s-12.167 6.83301 -21.5 11.5c-52 24.667 -80 38.334 -84 41.001c-33.333 22 -50 52.667 -50 92c0 38.667 12.5 69.334 37.5 92.001s56.5 34 94.5 34c56 0 96 -27.667 120 -83z" />
    <glyph glyph-name="afii10103" unicode="&#x456;" horiz-adv-x="222" 
d="M62 421h98v-421h-98v421zM48 595c0 18 6 33 18 45s27 18 45 18s33 -6 45 -18s18 -27 18 -45s-6 -33 -18 -45s-27 -18 -45 -18s-33 6 -45 18s-18 27 -18 45z" />
    <glyph glyph-name="afii10104" unicode="&#x457;" horiz-adv-x="222" 
d="M62 421h98v-421h-98v421zM0 547c0 13.333 4.66699 24.666 14 33.999s20.666 14 33.999 14s24.666 -4.66699 33.999 -14s14 -20.666 14 -33.999s-4.66699 -24.666 -14 -33.999s-20.666 -14 -33.999 -14s-24.666 4.66699 -33.999 14s-14 20.666 -14 33.999zM126 547
c0 13.333 4.66699 24.666 14 33.999s20.666 14 33.999 14s24.666 -4.66699 33.999 -14s14 -20.666 14 -33.999s-4.66699 -24.666 -14 -33.999s-20.666 -14 -33.999 -14s-24.666 4.66699 -33.999 14s-14 20.666 -14 33.999z" />
    <glyph glyph-name="afii10105" unicode="&#x458;" horiz-adv-x="222" 
d="M62 421h98v-650h-98v650zM48 595c0 18 6 33 18 45s27 18 45 18s33 -6 45 -18s18 -27 18 -45s-6 -33 -18 -45s-27 -18 -45 -18s-33 6 -45 18s-18 27 -18 45z" />
    <glyph glyph-name="afii10106" unicode="&#x459;" horiz-adv-x="648" 
d="M408 421v-148.998h56c18 0 32.667 -0.5 44 -1.5s25 -4.83301 41 -11.5s30 -16.667 42 -30c22 -24.667 33 -55.334 33 -92.001c0 -42 -12.667 -75.667 -38 -101c-11.333 -11.333 -24.833 -19.833 -40.5 -25.5s-28.667 -8.83398 -39 -9.50098s-24.833 -1 -43.5 -1h-153v331
h-124v-167c0 -52 -13.333 -92.333 -40 -121c-28 -30 -65.667 -45 -113 -45c-6 0 -14.333 0.666992 -25 2v90c8 -1.33301 14.333 -2 19 -2c21.333 0 38 7 50 21c10 12 15 30.333 15 55v257h316zM408 84.002h45c24 0 41 3 51 9c14.667 10.667 22 25 22 43
c0 18.667 -7 32.667 -21 42c-10.667 6.66699 -27.667 10 -51 10h-46v-104z" />
    <glyph glyph-name="afii10107" unicode="&#x45a;" horiz-adv-x="672" 
d="M62 0v421.002h98v-149h174v149h98v-149h56c18 0 32.667 -0.5 44 -1.5s25 -4.83301 41 -11.5s30 -16.667 42 -30c22 -24.667 33 -55.334 33 -92.001c0 -42 -12.667 -75.667 -38 -101c-11.333 -11.333 -24.833 -19.833 -40.5 -25.5s-28.667 -8.83398 -39 -9.50098
s-24.833 -1 -43.5 -1h-153v188h-174v-188h-98zM432 84.002h45c24 0 41 3 51 9c14.667 10.667 22 25 22 43c0 18.667 -7 32.667 -21 42c-10.667 6.66699 -27.667 10 -51 10h-46v-104z" />
    <glyph glyph-name="afii10108" unicode="&#x45b;" horiz-adv-x="486" 
d="M62 0l-0.00195312 551.999h-72v76h72v101h98v-101h200v-76h-200v-167c30.667 31.333 68.334 47 113.001 47c56 0 97.333 -19 124 -57c18 -26 27 -65 27 -117v-258h-98v249c0 34.667 -6.33301 59 -19 73c-13.333 14.667 -31.666 22 -54.999 22c-32 0 -56 -11.667 -72 -35
c-13.333 -19.333 -20 -54.666 -20 -105.999v-203h-98z" />
    <glyph glyph-name="afii10109" unicode="&#x45c;" horiz-adv-x="442" 
d="M62 421h98v-150l140 150h130l-184 -184l194 -237h-124l-140 173l-16 -16v-157h-98v421zM296 675l90 -46l-156 -144l-54 34z" />
    <glyph glyph-name="afii10110" unicode="&#x45e;" horiz-adv-x="482" 
d="M31 -229l162 307l-187 343h118l124 -237l118 237h110l-335 -650h-110zM79 603l80.001 23c12.667 -43.333 40 -65 82 -65c41.333 0 68.666 21.667 81.999 65l80 -23c-10.667 -38 -32.167 -67.167 -64.5 -87.5s-64.833 -30.5 -97.5 -30.5s-65.167 10.167 -97.5 30.5
s-53.833 49.5 -64.5 87.5z" />
    <glyph glyph-name="afii10193" unicode="&#x45f;" horiz-adv-x="486" 
d="M62 0v421h98v-331h166v331h98v-421h-136v-140h-90v140h-136z" />
    <glyph glyph-name="afii10050" unicode="&#x490;" horiz-adv-x="428" 
d="M80 0v667h238v150h96v-246h-232v-571h-102z" />
    <glyph glyph-name="afii10098" unicode="&#x491;" horiz-adv-x="328" 
d="M62 0v421h168v120h90v-210h-160v-331h-98z" />
    <glyph glyph-name="endash" unicode="&#x2013;" horiz-adv-x="580" 
d="M50 168v90h480v-90h-480z" />
    <glyph glyph-name="emdash" unicode="&#x2014;" horiz-adv-x="800" 
d="M50 168v90h700v-90h-700z" />
    <glyph glyph-name="quoteleft" unicode="&#x2018;" horiz-adv-x="290" 
d="M240 669l-102 -254l-88 34l124 247z" />
    <glyph glyph-name="quoteright" unicode="&#x2019;" horiz-adv-x="340" 
d="M50 442l102 254l88 -34l-124 -247z" />
    <glyph glyph-name="quotesinglbase" unicode="&#x201a;" horiz-adv-x="340" 
d="M50 -129l102 254l88 -34l-124 -247z" />
    <glyph glyph-name="quotedblleft" unicode="&#x201c;" horiz-adv-x="462" 
d="M412 669l-102 -254l-86 34l123 247zM238 669l-102 -254l-86 34l123 247z" />
    <glyph glyph-name="quotedblright" unicode="&#x201d;" horiz-adv-x="512" 
d="M50 442l102 254l86 -34l-123 -247zM224 442l102 254l86 -34l-123 -247z" />
    <glyph glyph-name="quotedblbase" unicode="&#x201e;" horiz-adv-x="512" 
d="M50 -129l102 254l86 -34l-123 -247zM224 -129l102 254l86 -34l-123 -247z" />
    <glyph glyph-name="dagger" unicode="&#x2020;" horiz-adv-x="568" 
d="M235 575v154h98v-154h138v-94h-138v-658h-98v658h-138v94h138z" />
    <glyph glyph-name="daggerdbl" unicode="&#x2021;" horiz-adv-x="568" 
d="M235 575v154h98v-154h138v-94h-138v-262h138v-94h-138v-302h-98v302h-138v94h138v262h-138v94h138z" />
    <glyph glyph-name="bullet" unicode="&#x2022;" horiz-adv-x="668" 
d="M194 340c0 38.667 13.667 71.667 41 99s60.333 41 99 41s71.667 -13.667 99 -41s41 -60.333 41 -99s-13.667 -71.667 -41 -99s-60.333 -41 -99 -41s-71.667 13.667 -99 41s-41 60.333 -41 99z" />
    <glyph glyph-name="ellipsis" unicode="&#x2026;" horiz-adv-x="800" 
d="M80 48c0 16.667 5.83301 30.834 17.5 42.501s25.834 17.5 42.501 17.5s30.834 -5.83301 42.501 -17.5s17.5 -25.834 17.5 -42.501s-5.83301 -30.834 -17.5 -42.501s-25.834 -17.5 -42.501 -17.5s-30.834 5.83301 -42.501 17.5s-17.5 25.834 -17.5 42.501zM340 48
c0 16.667 5.83301 30.834 17.5 42.501s25.834 17.5 42.501 17.5s30.834 -5.83301 42.501 -17.5s17.5 -25.834 17.5 -42.501s-5.83301 -30.834 -17.5 -42.501s-25.834 -17.5 -42.501 -17.5s-30.834 5.83301 -42.501 17.5s-17.5 25.834 -17.5 42.501zM600 48
c0 16.667 5.83301 30.834 17.5 42.501s25.834 17.5 42.501 17.5s30.834 -5.83301 42.501 -17.5s17.5 -25.834 17.5 -42.501s-5.83301 -30.834 -17.5 -42.501s-25.834 -17.5 -42.501 -17.5s-30.834 5.83301 -42.501 17.5s-17.5 25.834 -17.5 42.501z" />
    <glyph glyph-name="perthousand" unicode="&#x2030;" horiz-adv-x="1200" 
d="M194 673c44 0 81.833 -15.5 113.5 -46.5s47.5 -67.833 47.5 -110.5s-15.833 -79.5 -47.5 -110.5s-69.5 -46.5 -113.5 -46.5s-81.833 15.5 -113.5 46.5s-47.5 67.833 -47.5 110.5s15.833 79.5 47.5 110.5s69.5 46.5 113.5 46.5zM194 431c26 0 46.333 8.83301 61 26.5
s22 37.167 22 58.5s-7.33301 40.833 -22 58.5s-35 26.5 -61 26.5s-46.333 -8.83301 -61 -26.5s-22 -37.167 -22 -58.5s7.33301 -40.833 22 -58.5s35 -26.5 61 -26.5zM191 18l381 660l47 -27l-381 -662zM616 307c44 0 81.833 -15.5 113.5 -46.5s47.5 -67.833 47.5 -110.5
s-15.833 -79.5 -47.5 -110.5s-69.5 -46.5 -113.5 -46.5s-81.833 15.5 -113.5 46.5s-47.5 67.833 -47.5 110.5s15.833 79.5 47.5 110.5s69.5 46.5 113.5 46.5zM616 65c26 0 46.333 8.83301 61 26.5s22 37.167 22 58.5s-7.33301 40.833 -22 58.5s-35 26.5 -61 26.5
s-46.333 -8.83301 -61 -26.5s-22 -37.167 -22 -58.5s7.33301 -40.833 22 -58.5s35 -26.5 61 -26.5zM1006 307c44 0 81.833 -15.5 113.5 -46.5s47.5 -67.833 47.5 -110.5s-15.833 -79.5 -47.5 -110.5s-69.5 -46.5 -113.5 -46.5s-81.833 15.5 -113.5 46.5
s-47.5 67.833 -47.5 110.5s15.833 79.5 47.5 110.5s69.5 46.5 113.5 46.5zM1006 65c26 0 46.333 8.83301 61 26.5s22 37.167 22 58.5s-7.33301 40.833 -22 58.5s-35 26.5 -61 26.5s-46.333 -8.83301 -61 -26.5s-22 -37.167 -22 -58.5s7.33301 -40.833 22 -58.5
s35 -26.5 61 -26.5z" />
    <glyph glyph-name="guilsinglleft" unicode="&#x2039;" horiz-adv-x="324" 
d="M140 217l130 -169l-65 -47l-165 216l165 216l65 -47z" />
    <glyph glyph-name="guilsinglright" unicode="&#x203a;" horiz-adv-x="324" 
d="M184 217l-130 169l65 47l165 -216l-165 -216l-65 47z" />
    <glyph glyph-name="Euro" unicode="&#x20ac;" horiz-adv-x="568" 
d="M524 637v-94.002c-36.667 32.667 -87 49 -151 49c-50.667 0 -90.5 -13.5 -119.5 -40.5s-47.167 -63.833 -54.5 -110.5h286l-27 -73h-270c-0.666992 -5.33301 -1 -15.666 -1 -30.999c0 -16.667 0.333008 -28 1 -34h246l-27 -73h-208c7.33301 -50 26 -88.333 56 -115
s69.667 -40 119 -40c62.667 0 112.667 16.667 150 50v-96c-33.333 -26 -87.666 -39 -162.999 -39c-148 0 -234.667 80 -260 240h-78l27 73h43c-0.666992 6 -1 17.333 -1 34c0 14.667 0.333008 25 1 31h-70l27 73h50c12 72.667 39.5 130.334 82.5 173.001s102.5 64 178.5 64
c71.333 0 125.666 -13.667 162.999 -41z" />
    <glyph glyph-name="afii61352" unicode="&#x2116;" horiz-adv-x="1060" 
d="M182 0h-102v712l444 -483v438h102v-708l-444 483v-442zM857 667c44 0 81.833 -15.5 113.5 -46.5s47.5 -67.833 47.5 -110.5s-15.833 -79.5 -47.5 -110.5s-69.5 -46.5 -113.5 -46.5s-81.833 15.5 -113.5 46.5s-47.5 67.833 -47.5 110.5s15.833 79.5 47.5 110.5
s69.5 46.5 113.5 46.5zM857 425c26 0 46.333 8.83301 61 26.5s22 37.167 22 58.5s-7.33301 40.833 -22 58.5s-35 26.5 -61 26.5s-46.333 -8.83301 -61 -26.5s-22 -37.167 -22 -58.5s7.33301 -40.833 22 -58.5s35 -26.5 61 -26.5zM716 203v80h282v-80h-282z" />
    <glyph glyph-name="trademark" unicode="&#x2122;" horiz-adv-x="710" 
d="M238 601h-84v-314h-70v314h-84v66h238v-66zM331 287h-71l82 414l126 -280l127 280l81 -414h-71l-35 206l-102 -213l-102 213z" />
    <glyph glyph-name=".null" horiz-adv-x="0" 
 />
    <glyph glyph-name="nonmarkingreturn" horiz-adv-x="333" 
 />
    <glyph glyph-name="hyphenminus" horiz-adv-x="320" 
d="M40 162v102h240v-102h-240z" />
    </font>
</defs>
</svg>
