<svg width="21" height="20" viewBox="0 0 21 20" fill="none" xmlns="http://www.w3.org/2000/svg">
<path fill-rule="evenodd" clip-rule="evenodd" d="M11.8428 1.65349C14.0842 2.58018 16.0123 3.72072 17.2896 4.81374C18.7598 6.04933 19.4587 7.30868 19.049 8.30665C19.0008 8.42546 18.9285 8.54427 18.8562 8.63931L11.4572 18.3814C11.0956 19.0468 10.1316 19.3081 8.85424 19.2131C7.74559 19.118 6.32362 18.7616 4.85345 18.1438L4.80526 18.1201C3.35919 17.526 2.10594 16.7894 1.2865 16.0766C0.346561 15.2925 -0.135471 14.4608 0.0332363 13.748L1.91314 1.86734C1.91314 1.65349 1.96133 1.43964 2.03363 1.24955C2.46745 0.251571 3.86531 -0.12861 5.79339 0.0377189C7.43227 0.156525 9.60137 0.726797 11.8428 1.65349ZM20.3022 17.1459C20.3022 15.1499 19.2659 13.4391 18.6152 12.3698C18.567 12.2748 18.4706 12.2035 18.3742 12.1322C18.0608 11.9421 17.627 12.0372 17.4342 12.3698C17.1209 12.8688 16.7353 13.5579 16.3979 14.3658C16.0605 15.1974 15.7953 16.1716 15.7953 17.1696C15.7953 17.7874 16.0364 18.3339 16.4461 18.7379C16.8558 19.1418 17.4101 19.3794 18.0367 19.3794C18.6634 19.3794 19.2177 19.1418 19.6274 18.7379C20.0612 18.3102 20.3022 17.7637 20.3022 17.1459ZM18.6875 17.7637C18.8562 17.5973 18.9526 17.3835 18.9526 17.1459C18.9526 16.0291 18.5188 14.9361 18.0367 14.0806C17.9162 14.3183 17.7957 14.5796 17.6752 14.8648C17.386 15.5539 17.1691 16.3617 17.1691 17.1696C17.1691 17.4072 17.2655 17.6211 17.4342 17.7874C17.6029 17.9537 17.8198 18.0488 18.0609 18.0488C18.3019 18.025 18.5188 17.9062 18.6875 17.7637ZM16.4702 9.54224C16.1087 9.566 15.723 9.54224 15.3133 9.51848C13.6263 9.37591 11.4572 8.8294 9.21576 7.87895C6.97436 6.95226 5.04627 5.81172 3.76891 4.7187C3.4556 4.45732 3.19049 4.19595 2.94948 3.93457L1.407 13.7242V13.7718C1.407 13.8668 1.3829 13.9381 1.3588 14.0331V14.0569C1.3106 14.1995 1.62391 14.5559 2.17823 15.0311C2.92536 15.6489 4.03403 16.3142 5.33548 16.8607L5.38368 16.8845C6.73334 17.431 7.98661 17.7637 8.97475 17.8587C9.60138 17.9062 10.0352 17.9062 10.2039 17.8112L16.4702 9.54224ZM16.422 5.81172C15.241 4.81374 13.4334 3.74448 11.3125 2.88908C9.19165 2.00991 7.16715 1.48716 5.62469 1.36835C4.29913 1.24955 3.40739 1.39211 3.23868 1.77229C3.06998 2.15247 3.6002 2.88908 4.61244 3.72072C5.7934 4.7187 7.60098 5.78795 9.69777 6.64336C11.8187 7.52253 13.8432 8.04528 15.3856 8.16408C16.5666 8.25913 17.4342 8.16409 17.6993 7.85519L17.7475 7.80767L17.7716 7.76014C17.9644 7.37996 17.4342 6.66712 16.422 5.81172Z" fill="#E5270E"/>
</svg>
