<svg width="22" height="22" viewBox="0 0 22 22" fill="none" xmlns="http://www.w3.org/2000/svg">
<path fill-rule="evenodd" clip-rule="evenodd" d="M9.78114 11.5417H11.4439C11.5173 11.395 11.5662 11.1994 11.5907 10.9549L12.2998 5.01284C12.2998 4.89057 12.2753 4.76831 12.202 4.69495C12.202 4.69495 12.202 4.6705 12.2264 4.6705H8.97421C8.99867 4.6705 8.99865 4.6705 8.99865 4.69495C8.94975 4.76831 8.90086 4.89057 8.90086 5.01284L9.60997 10.9549C9.65888 11.1994 9.70778 11.395 9.78114 11.5417ZM10.6125 13.987C11.1994 13.987 11.7374 14.2316 12.1286 14.6228C12.5199 15.0141 12.7644 15.552 12.7644 16.1389C12.7644 16.7258 12.5199 17.2637 12.1286 17.655C11.7374 18.0462 11.1994 18.2907 10.6125 18.2907C10.0257 18.2907 9.48771 18.0462 9.09647 17.655C8.70522 17.2637 8.4607 16.7258 8.4607 16.1389C8.4607 15.552 8.70522 15.0141 9.09647 14.6228C9.48771 14.2316 10.0257 13.987 10.6125 13.987ZM11.1505 15.5765C11.0038 15.4298 10.8326 15.3564 10.6125 15.3564C10.3925 15.3564 10.2213 15.4542 10.0746 15.5765C9.92787 15.7232 9.85452 15.8944 9.85452 16.1144C9.85452 16.3345 9.92787 16.5057 10.0746 16.6524C10.2213 16.7991 10.3925 16.8725 10.6125 16.8725C10.8326 16.8725 11.0038 16.7991 11.1505 16.6524C11.2972 16.5057 11.3706 16.3345 11.3706 16.1144C11.3706 15.9188 11.2728 15.7232 11.1505 15.5765ZM10.6125 0C13.5469 0 16.2123 1.19819 18.1196 3.10551C20.0514 5.03729 21.2251 7.6782 21.2251 10.6125C21.2251 13.5469 20.0269 16.2122 18.1196 18.1196C16.1878 20.0513 13.5469 21.2251 10.6125 21.2251C7.67821 21.2251 5.01285 20.0269 3.10552 18.1196C1.17375 16.1878 0 13.5469 0 10.6125C0 7.6782 1.1982 5.01284 3.10552 3.10551C5.01285 1.19819 7.67821 0 10.6125 0ZM17.1415 4.10808C18.8043 5.77087 19.8557 8.0939 19.8557 10.637C19.8557 13.1801 18.8287 15.5031 17.1415 17.1659C15.4542 18.8287 13.1556 19.8802 10.6125 19.8802C8.06945 19.8802 5.74644 18.8532 4.08364 17.1659C2.42085 15.4787 1.36937 13.1801 1.36937 10.637C1.36937 8.0939 2.39639 5.77087 4.08364 4.10808C5.74644 2.44529 8.06945 1.39381 10.6125 1.39381C13.1556 1.39381 15.4787 2.42083 17.1415 4.10808ZM11.5662 12.9111H9.63443C9.16983 12.9111 8.82749 12.6666 8.58296 12.2509C8.41179 11.9574 8.28953 11.5417 8.24062 11.1016L7.53148 5.23291L7.50705 4.98838C7.50705 4.57268 7.6293 4.18144 7.82493 3.91246C8.06945 3.57012 8.41179 3.32559 8.77859 3.27668C9.83006 3.20332 11.3217 3.20332 12.3732 3.27668C12.74 3.32559 13.0823 3.54566 13.3268 3.91246C13.5224 4.20589 13.6447 4.57268 13.6447 4.98838L13.6203 5.23291L12.9111 11.1016C12.8622 11.5417 12.74 11.933 12.5688 12.2509C12.3732 12.6666 12.0308 12.9111 11.5662 12.9111Z" fill="#C81912"/>
</svg>
