<svg width="22" height="22" viewBox="0 0 22 22" fill="none" xmlns="http://www.w3.org/2000/svg">
<path fill-rule="evenodd" clip-rule="evenodd" d="M12.5932 6.06431C12.7888 5.74642 13.229 5.64861 13.5469 5.84423C13.8648 6.03986 13.9626 6.48001 13.767 6.79789L11.2728 10.7348L12.7399 13.0334C12.9356 13.3513 12.8622 13.7914 12.5199 13.987C12.202 14.1827 11.7618 14.1093 11.5662 13.767L9.92786 11.2239C9.73224 11.0282 9.68333 10.6614 9.8545 10.368L12.5932 6.06431ZM11.3217 2.78763C11.3217 3.17887 11.0038 3.47231 10.637 3.47231C10.2457 3.47231 9.95232 3.15442 9.95232 2.78763V1.41827C7.6782 1.58944 5.62416 2.56755 4.10808 4.10808C2.592 5.62416 1.58944 7.6782 1.41827 9.95231H2.78762C3.17887 9.95231 3.47231 10.2702 3.47231 10.637C3.47231 11.0282 3.15442 11.3217 2.78762 11.3217H1.41827C1.58944 13.5958 2.592 15.6498 4.10808 17.1659C5.62416 18.682 7.6782 19.6846 9.95232 19.8557V18.4864C9.95232 18.0951 10.2702 17.8017 10.637 17.8017C11.0282 17.8017 11.3217 18.1196 11.3217 18.4864V19.8557C13.5958 19.6846 15.6498 18.682 17.1659 17.1659C18.682 15.6498 19.6845 13.5958 19.8557 11.3217H18.4864C18.0951 11.3217 17.8017 11.0038 17.8017 10.637C17.8017 10.2457 18.1196 9.95231 18.4864 9.95231H19.8557C19.6845 7.6782 18.682 5.62416 17.1659 4.10808C15.6498 2.592 13.5958 1.58944 11.3217 1.41827V2.78763ZM10.6125 0C7.67819 0 5.01283 1.19819 3.10551 3.10551C1.17374 5.03729 0 7.6782 0 10.6125C0 13.5469 1.19819 16.2122 3.10551 18.1196C5.03729 20.0513 7.67819 21.2251 10.6125 21.2251C13.5469 21.2251 16.2122 20.0269 18.1196 18.1196C20.0513 16.1878 21.2251 13.5469 21.2251 10.6125C21.2251 7.6782 20.0269 5.01284 18.1196 3.10551C16.2122 1.19819 13.5469 0 10.6125 0Z" fill="#E5270E"/>
</svg>
