<svg width="20" height="20" viewBox="0 0 20 20" fill="none" xmlns="http://www.w3.org/2000/svg">
<path fill-rule="evenodd" clip-rule="evenodd" d="M0.561964 3.84512L8.78298 0.153805C9.04895 0.030761 9.41164 -0.0184566 9.77434 0.0061522C10.1128 0.030761 10.4755 0.104587 10.7657 0.25224L18.5515 3.74669C18.7933 3.86973 18.9867 3.99278 19.1076 4.14043C19.2527 4.28808 19.3252 4.48495 19.3494 4.65721C19.3736 4.87869 19.3252 5.10017 19.156 5.29704C19.0593 5.42009 18.9384 5.51852 18.7691 5.59235L15.2389 7.16731L18.5273 8.64384C18.7691 8.74227 18.9625 8.88993 19.0834 9.03758C19.2285 9.18523 19.301 9.35749 19.3252 9.55436C19.3494 9.77584 19.301 9.99732 19.1318 10.1942C19.0834 10.3172 18.9384 10.4157 18.7933 10.4895L15.0938 12.1383L18.5757 13.6886C18.8175 13.8117 19.0109 13.9347 19.1318 14.0824C19.2527 14.23 19.3494 14.4023 19.3736 14.5992C19.3978 14.8206 19.3494 15.0421 19.1801 15.239C19.0834 15.362 18.9384 15.4605 18.7933 15.5343L10.5723 19.2256C10.3063 19.3487 9.94359 19.3979 9.5809 19.3733C9.24239 19.3487 8.8797 19.2748 8.58954 19.1272L0.80376 15.6327C0.561965 15.5343 0.368531 15.3866 0.247633 15.239C0.102557 15.0913 0.0300173 14.9191 0.00583781 14.7222C-0.0183416 14.5007 0.0300171 14.2792 0.199273 14.0824C0.295991 13.9593 0.441068 13.8609 0.586144 13.7871L4.2856 12.1383L0.80376 10.5879C0.561965 10.4649 0.368531 10.3418 0.247633 10.1942C0.102557 10.0465 0.0300173 9.87428 0.00583781 9.67741C-0.0183416 9.45593 0.0300171 9.23445 0.199273 9.03758C0.295991 8.91453 0.441068 8.8161 0.586144 8.74227L4.11634 7.16731L0.82794 5.69078C0.586145 5.56774 0.392706 5.44469 0.271809 5.29704C0.126732 5.14939 0.0541973 4.95252 0.0300178 4.78026C0.00583836 4.55878 0.0541971 4.3373 0.223453 4.14043C0.271812 4.01739 0.392708 3.91895 0.561964 3.84512ZM13.498 12.8765L10.5481 14.2054C10.2821 14.3285 9.91941 14.3777 9.55672 14.3531C9.21821 14.3285 8.85552 14.2546 8.56536 14.107L5.85727 12.8765L1.79512 14.6976L9.07314 17.9706C9.24239 18.0444 9.43583 18.0936 9.62926 18.0936C9.79852 18.0936 9.94359 18.0936 10.0161 18.069L17.5359 14.6976L13.498 12.8765ZM1.06974 14.9929L0.973015 14.7714L1.06974 14.9929ZM0.973015 14.7714L0.924655 14.6238L0.973015 14.7714ZM0.924655 14.6484L0.82794 14.4269L0.924655 14.6484ZM13.6672 7.88096L10.5481 9.28367C10.2821 9.40671 9.91941 9.45593 9.55672 9.43132C9.21821 9.40671 8.85552 9.33288 8.56536 9.18523L5.66383 7.88096L1.77094 9.62819L9.07314 12.9012C9.24239 12.975 9.43583 13.0242 9.62926 13.0242C9.79852 13.0242 9.94359 13.0242 10.0161 12.9996L17.5359 9.62819L13.6672 7.88096ZM9.31493 1.35964L1.79512 4.73104L9.09731 8.00401C9.26657 8.07784 9.46001 8.12705 9.65344 8.12705C9.8227 8.12705 9.96777 8.12705 10.0403 8.10244L17.5601 4.73104L10.2579 1.45807C10.0887 1.38424 9.89524 1.33503 9.7018 1.33503C9.53255 1.31042 9.38747 1.31042 9.31493 1.35964Z" fill="#E5270E"/>
</svg>
