<svg width="22" height="22" viewBox="0 0 22 22" fill="none" xmlns="http://www.w3.org/2000/svg">
<path fill-rule="evenodd" clip-rule="evenodd" d="M11.7712 0C11.7712 2.46248 13.0431 5.11439 15.0185 7.08979C16.8856 8.95695 19.3481 10.2288 22 10.2288V11.7712C19.2128 11.7712 16.615 12.9077 14.7478 14.7749C12.9348 16.5879 11.7712 19.1046 11.7712 22H10.2288C10.2288 18.9422 9.33579 16.2903 7.49569 14.4502C5.81796 12.7724 3.32841 11.7712 0 11.7712V10.2288C3.13899 10.2288 5.5203 9.09225 7.22509 7.41451C9.22755 5.41205 10.2288 2.59779 10.2288 0H11.7712ZM13.936 8.1722C12.7183 6.95449 11.7442 5.49323 11.0947 3.97786C10.5264 5.62854 9.60639 7.19803 8.3075 8.49692C7.30627 9.49815 6.0615 10.337 4.62731 10.9323C6.22386 11.4736 7.54981 12.3124 8.60516 13.3678C9.76876 14.5314 10.5806 15.9385 11.1218 17.5351C11.7171 16.0738 12.583 14.7749 13.6654 13.6925C14.8831 12.4748 16.3715 11.5277 17.9951 10.9323C16.4797 10.2829 15.0996 9.33579 13.936 8.1722Z" fill="#E5270E"/>
</svg>
