<svg width="21" height="22" viewBox="0 0 21 22" fill="none" xmlns="http://www.w3.org/2000/svg">
<path fill-rule="evenodd" clip-rule="evenodd" d="M16.202 10.4461L16.1779 12.4413C16.4187 12.5386 16.6353 12.6846 16.8279 12.8549C17.165 13.1956 17.3816 13.6579 17.3816 14.1932V19.0352C17.3816 19.5462 17.165 20.0085 16.8279 20.3491C16.4909 20.6898 16.0335 20.9088 15.5038 20.9088C14.9983 20.9088 14.5168 20.6898 14.1798 20.3491C13.8427 20.0085 13.626 19.5462 13.626 19.0109V14.1932C13.626 13.6822 13.8427 13.1956 14.1798 12.8549C14.3483 12.6846 14.5649 12.5386 14.8057 12.4413L14.8298 10.4461H11.3871C11.0019 10.4461 10.7131 10.1298 10.7131 9.76478C10.7131 9.64312 10.7371 9.52146 10.8094 9.42413L14.902 0.397017C15.0464 0.0563712 15.4557 -0.0896199 15.7927 0.0563712C15.9372 0.129367 16.0576 0.251026 16.1298 0.397017L20.2465 9.4728C20.3909 9.81344 20.2465 10.2271 19.9094 10.3731C19.8372 10.4217 19.7409 10.4461 19.6446 10.4461H16.202ZM3.41854 10.3001H4.59819V8.69418C4.35745 8.59685 4.14078 8.45086 3.97226 8.28054C3.63522 7.93989 3.41854 7.47759 3.41854 6.94229V2.10025C3.41854 1.58928 3.63522 1.10264 3.97226 0.761995C4.3093 0.421349 4.76671 0.202362 5.29635 0.202362C5.80191 0.202362 6.25932 0.421349 6.59636 0.761995C6.9334 1.10264 7.15007 1.56495 7.15007 2.10025V6.94229C7.15007 7.45325 6.9334 7.91556 6.59636 8.28054C6.40376 8.47519 6.18709 8.59685 5.94635 8.69418V10.3001H7.12599C7.6797 10.3001 8.13711 10.5191 8.47415 10.8597C8.81119 11.2247 9.05193 11.7113 9.14823 12.2223L10.5205 19.0109C10.5445 19.1325 10.5445 19.2299 10.5445 19.3272C10.5445 19.8138 10.3279 20.2275 10.0149 20.5681C9.72601 20.8601 9.31675 21.0791 8.90749 21.1764C8.76304 21.2008 8.61859 21.2251 8.49822 21.2251H2.04631C1.90187 21.2251 1.7815 21.2008 1.63705 21.1764C1.20372 21.0791 0.818529 20.8844 0.529637 20.5681C0.216672 20.2275 0 19.8138 0 19.3272C0 19.2299 -4.04025e-06 19.1082 0.0240702 19.0109L1.39631 12.2223C1.49261 11.7113 1.73335 11.2004 2.07039 10.8597C2.40743 10.5191 2.86484 10.3001 3.41854 10.3001ZM7.15007 11.687H3.44262C3.29818 11.687 3.15373 11.76 3.05744 11.8573C2.91299 12.0033 2.79262 12.2466 2.74447 12.5143L1.37223 19.3515C1.37223 19.4489 1.42038 19.5462 1.4926 19.6192C1.61297 19.7408 1.75742 19.8138 1.92594 19.8382L2.07039 19.8625H3.3704L3.39447 16.5777C3.39447 16.1884 3.70744 15.8964 4.06855 15.8964C4.45374 15.8964 4.74264 16.2127 4.74264 16.5777L4.71856 19.8625H5.8982L5.92227 17.3806C5.92227 16.9913 6.23524 16.6994 6.59636 16.6994C6.95747 16.6994 7.27044 17.0157 7.27044 17.3806L7.24636 19.8382H8.47415L8.6186 19.8138C8.78712 19.7895 8.93156 19.6922 9.02786 19.5948C9.10008 19.5219 9.17231 19.4245 9.17231 19.3272L7.80007 12.4899C7.75192 12.2223 7.63155 11.979 7.4871 11.833C7.41488 11.7357 7.29451 11.687 7.15007 11.687ZM16.9724 5.50671L15.5279 2.31923L12.4705 9.05916H18.6094L16.9724 5.50671ZM5.27227 7.45325C5.41671 7.45325 5.53709 7.40459 5.63338 7.30726C5.72968 7.20994 5.77783 7.08828 5.77783 6.94229V2.10025C5.77783 1.95426 5.72968 1.8326 5.63338 1.7596C5.53709 1.66227 5.41672 1.61361 5.29635 1.61361C5.1519 1.61361 5.03153 1.66227 4.95931 1.7596C4.86301 1.85693 4.81486 1.97859 4.81486 2.10025V6.94229C4.81486 7.08828 4.86301 7.20994 4.95931 7.30726C5.00745 7.38026 5.15189 7.45325 5.27227 7.45325ZM15.865 13.8282C15.7687 13.7309 15.6483 13.6822 15.5038 13.6822C15.3594 13.6822 15.239 13.7309 15.1668 13.8282C15.0705 13.9255 15.0224 14.0472 15.0224 14.1688V19.0109C15.0224 19.1569 15.0705 19.2785 15.1668 19.3759C15.2631 19.4732 15.3835 19.5219 15.5279 19.5219C15.6724 19.5219 15.7927 19.4732 15.889 19.3759C15.9853 19.2785 16.0335 19.1569 16.0335 19.0109V14.1932C16.0094 14.0472 15.9613 13.9255 15.865 13.8282Z" fill="#E5270E"/>
</svg>
