<svg width="24" height="18" viewBox="0 0 24 18" fill="none" xmlns="http://www.w3.org/2000/svg">
<path fill-rule="evenodd" clip-rule="evenodd" d="M8.45191 11.5406C9.2627 11.5406 10.0244 11.8873 10.5649 12.4074C10.958 12.8036 11.2283 13.2741 11.3511 13.819H14.6926C14.8154 13.2741 15.1102 12.7788 15.4788 12.4074C16.0193 11.8625 16.7564 11.5406 17.5918 11.5406C18.4025 11.5406 19.1642 11.8873 19.7047 12.4074C20.0978 12.8036 20.3681 13.2741 20.491 13.819H21.7194V9.85655L18.0094 3.36807H13.9555C13.5624 3.36807 13.2675 3.04612 13.2675 2.67464V1.38685H4.49622C4.10311 1.38685 3.80828 1.0649 3.80828 0.693426C3.80828 0.321948 4.12768 0 4.49622 0H13.9555C14.3486 0 14.6434 0.321948 14.6434 0.693426V1.98122H18.378C18.6237 1.98122 18.8448 2.10504 18.9676 2.32793L22.9479 9.28695C23.0216 9.41078 23.0707 9.5346 23.0707 9.68319V14.5124C23.0707 14.9086 22.7513 15.2058 22.3828 15.2058H20.4664C20.3435 15.7507 20.0487 16.246 19.6802 16.6174C19.1396 17.1623 18.4025 17.509 17.5672 17.509C16.7564 17.509 15.9947 17.1623 15.4542 16.6422C15.0611 16.246 14.7908 15.7754 14.668 15.2306H11.3265C11.2037 15.7754 10.9089 16.2707 10.5403 16.6422C10.0244 17.187 9.28727 17.5338 8.45191 17.5338C7.64111 17.5338 6.87946 17.187 6.33893 16.667C5.97039 16.2707 5.67556 15.8002 5.55271 15.2554H1.62159C1.22848 15.2554 0.933652 14.9334 0.933652 14.5619C0.933652 14.1657 1.25305 13.8685 1.62159 13.8685H5.55271C5.67556 13.3237 5.97039 12.8284 6.33893 12.4569C6.90403 11.8625 7.64111 11.5406 8.45191 11.5406ZM15.9947 14.5124V14.5619V14.5867C15.9947 15.0077 16.1913 15.404 16.4616 15.6764C16.7564 15.9488 17.1495 16.1221 17.5918 16.1221C18.034 16.1221 18.4271 15.9488 18.6974 15.6516C18.9922 15.3544 19.1642 14.9582 19.1642 14.5124C19.1642 14.0666 18.9922 13.6704 18.6974 13.3732C18.4025 13.076 18.0094 12.9027 17.5672 12.9027C17.1249 12.9027 16.7318 13.076 16.437 13.3732C16.1913 13.6704 16.0193 14.0666 15.9947 14.5124ZM1.22847 4.30914H7.76396C8.15708 4.30914 8.45191 3.9872 8.45191 3.61572C8.45191 3.21948 8.13251 2.92229 7.76396 2.92229H1.22847C0.835362 2.92229 0.540532 3.24424 0.540532 3.61572C0.540532 3.9872 0.859932 4.30914 1.22847 4.30914ZM0.687942 7.47909H6.11781C6.51093 7.47909 6.80576 7.15714 6.80576 6.78567C6.80576 6.38942 6.48636 6.09224 6.11781 6.09224H0.687942C0.294831 6.09224 0 6.41419 0 6.78567C0 7.15714 0.3194 7.47909 0.687942 7.47909ZM2.48152 10.5747H6.6092C7.00231 10.5747 7.29714 10.2528 7.29714 9.88131C7.29714 9.48507 6.97774 9.18789 6.6092 9.18789H2.48152C2.08841 9.18789 1.79358 9.50984 1.79358 9.88131C1.79358 10.2776 2.11298 10.5747 2.48152 10.5747ZM9.5821 13.398C9.28727 13.1008 8.89416 12.9274 8.45191 12.9274C8.00966 12.9274 7.61655 13.1008 7.32171 13.398C7.02688 13.6952 6.85489 14.0914 6.85489 14.5372C6.85489 14.9829 7.02688 15.3792 7.32171 15.6764C7.61655 15.9736 8.00966 16.1469 8.45191 16.1469C8.89416 16.1469 9.28727 15.9736 9.5821 15.6764C9.87694 15.3792 10.0489 14.9829 10.0489 14.5372C10.0489 14.0914 9.87694 13.6952 9.5821 13.398Z" fill="#E5270E"/>
</svg>
