<svg width="19" height="22" viewBox="0 0 19 22" fill="none" xmlns="http://www.w3.org/2000/svg">
<path fill-rule="evenodd" clip-rule="evenodd" d="M11.8365 20.1442C13.1307 19.059 13.9396 17.5398 13.9396 15.8578C13.9396 9.48234 10.0031 3.89369 7.49558 0.366863C7.44166 0.285475 7.38773 0.204087 7.30684 0.149828C6.95633 -0.0943363 6.47101 -0.0400775 6.22834 0.312605C5.04199 1.94037 3.50513 4.21924 2.23789 6.90505C0.970651 9.59086 0 12.6565 0 15.8578C0 17.5126 0.808876 19.0319 2.10308 20.1171C3.37032 21.1751 5.09592 21.8262 6.98329 21.8262C8.87067 21.8262 10.5963 21.1751 11.8365 20.1442ZM12.4028 15.8578C12.4028 17.0514 11.8096 18.1366 10.8659 18.9505C9.86829 19.7915 8.4932 20.307 6.95633 20.307C5.44643 20.307 4.07134 19.7915 3.07373 18.9505C2.13004 18.1637 1.53686 17.0514 1.53686 15.8578C1.53686 12.9006 2.42663 10.0521 3.61298 7.52903C4.61059 5.44006 5.82391 3.56813 6.84848 2.10314C9.22118 5.49432 12.4028 10.459 12.4028 15.8578Z" fill="#E5270E"/>
<path fill-rule="evenodd" clip-rule="evenodd" d="M17.4451 7.82743C17.9843 7.39336 18.3079 6.76939 18.3079 6.06402C18.3079 3.89367 17.0137 2.04887 16.1778 0.882305C16.1239 0.800917 16.07 0.719529 15.9891 0.66527C15.6386 0.421106 15.1532 0.475364 14.9106 0.828047C14.5061 1.37063 13.9939 2.13026 13.5894 2.9984C13.158 3.89367 12.8345 4.95172 12.8345 6.06402C12.8345 6.76939 13.158 7.39336 13.6703 7.82743C14.1556 8.2615 14.8297 8.50567 15.5577 8.50567C16.2857 8.50567 16.9597 8.23437 17.4451 7.82743ZM16.771 6.06402C16.771 6.28106 16.6632 6.49809 16.4744 6.66087C16.2587 6.85077 15.9352 6.95929 15.5847 6.93216C15.2072 6.93216 14.8836 6.82364 14.6679 6.63374C14.4792 6.49809 14.3713 6.28106 14.3713 6.06402C14.3713 5.22301 14.641 4.40913 14.9915 3.67663C15.1532 3.29682 15.342 2.94414 15.5307 2.64572C16.1509 3.59525 16.771 4.81607 16.771 6.06402Z" fill="#E5270E"/>
</svg>
