<svg width="21" height="20" viewBox="0 0 21 20" fill="none" xmlns="http://www.w3.org/2000/svg">
<path fill-rule="evenodd" clip-rule="evenodd" d="M10.1511 0C12.8367 0 15.276 0.336198 17.0499 0.912538C19.0703 1.53691 20.3022 2.49747 20.3022 3.65015C20.3022 3.79424 20.2776 3.91431 20.253 4.05839L16.9268 16.93C16.8528 17.7224 15.9905 18.3708 14.66 18.7791C13.502 19.1393 11.9005 19.3794 10.1511 19.3794C8.40178 19.3794 6.80027 19.1633 5.64225 18.7791C4.36104 18.3948 3.54797 17.7945 3.40013 17.026L0.147833 4.27452C0.0492783 4.05839 0 3.84226 0 3.62614C0 2.47346 1.23193 1.51289 3.2523 0.888524C5.05093 0.336198 7.49015 0 10.1511 0ZM18.3312 5.85945C17.9369 6.05157 17.5181 6.21967 17.0499 6.36375C15.276 6.91608 12.8367 7.27629 10.1511 7.27629C7.46551 7.27629 5.02629 6.94009 3.2523 6.36375C2.78417 6.21967 2.36531 6.05157 1.97109 5.88347L4.75526 16.8339C4.80454 17.026 5.29731 17.2662 6.03647 17.5063C7.0713 17.8185 8.52498 18.0346 10.1265 18.0346C11.728 18.0346 13.1817 17.8425 14.2165 17.5063C14.8817 17.2902 15.3252 17.0981 15.4731 16.906L18.3312 5.85945ZM18.8732 3.79424L18.8978 3.72219C18.8978 3.69818 18.8978 3.67417 18.8978 3.65015C18.8978 3.16987 18.0355 2.64156 16.6065 2.2093C14.9557 1.705 12.6889 1.36881 10.1265 1.36881C7.58871 1.36881 5.29731 1.68099 3.64652 2.2093C2.24212 2.64156 1.35513 3.16987 1.35513 3.65015C1.35513 4.13043 2.21748 4.65875 3.64652 5.091C5.29731 5.5953 7.56407 5.9315 10.1265 5.9315C12.6643 5.9315 14.9557 5.61931 16.6065 5.091C17.8877 4.68276 18.7254 4.22649 18.8732 3.79424Z" fill="#E5270E"/>
</svg>
