<svg width="19" height="22" viewBox="0 0 19 22" fill="none" xmlns="http://www.w3.org/2000/svg">
<path fill-rule="evenodd" clip-rule="evenodd" d="M3.28679 0H13.046C13.9562 0 14.7906 0.363029 15.3721 0.919673C15.8019 1.33111 16.1306 1.86355 16.257 2.4686H17.7487C18.1532 2.4686 18.4566 2.78322 18.4566 3.14625V6.41351C18.4566 6.70393 18.2796 6.94595 18.0015 7.04276L8.9249 11.4717L8.89962 12.8028C9.15245 12.8996 9.37999 13.0448 9.55698 13.2142C9.91094 13.5773 10.1385 14.0371 10.1385 14.5454V19.3615C10.1385 19.8698 9.91094 20.3296 9.55698 20.6684C9.20301 21.0073 8.72264 21.2251 8.16641 21.2251C7.63547 21.2251 7.12981 21.0073 6.77585 20.6684C6.44717 20.3296 6.21962 19.8698 6.21962 19.3615V14.5454C6.21962 14.0371 6.44717 13.5531 6.80113 13.2142C6.97811 13.0448 7.23094 12.8996 7.48377 12.8028L7.50905 11.0361C7.50905 10.7941 7.66075 10.552 7.91358 10.431L17.0913 6.02628V3.8481H16.2823C16.1306 4.42895 15.8272 4.98559 15.3973 5.39703C14.7906 5.95367 13.9562 6.3167 13.046 6.3167H3.28679C2.3766 6.3167 1.54226 5.95367 0.960754 5.39703C0.379245 4.84038 0 4.01752 0 3.17045C0 2.29918 0.379245 1.50052 0.960754 0.943875C1.54226 0.387231 2.40189 0 3.28679 0ZM8.54566 14.2065C8.44452 14.1097 8.31811 14.0613 8.16641 14.0613C8.01471 14.0613 7.8883 14.1097 7.81245 14.2065C7.71132 14.2791 7.66075 14.4243 7.66075 14.5454V19.3615C7.66075 19.5067 7.71132 19.6278 7.81245 19.7246C7.91358 19.7972 8.04 19.8456 8.16641 19.8456C8.31811 19.8456 8.44452 19.7972 8.54566 19.7004C8.64679 19.6278 8.69735 19.4825 8.69735 19.3615V14.5454C8.69735 14.4243 8.64679 14.2791 8.54566 14.2065ZM13.046 1.37951H3.28679C2.78113 1.37951 2.30075 1.57312 1.97207 1.91195C1.6434 2.25078 1.44113 2.66221 1.44113 3.14625C1.44113 3.63029 1.6434 4.09012 1.99736 4.40475C2.35132 4.71937 2.78113 4.93719 3.28679 4.93719H13.046C13.5517 4.93719 14.0321 4.74358 14.3607 4.40475C14.7147 4.09012 14.917 3.65449 14.917 3.17045C14.917 2.68641 14.7147 2.22658 14.3607 1.91195C14.0321 1.57312 13.577 1.37951 13.046 1.37951Z" fill="#E5270E"/>
</svg>
