<svg width="37" height="37" viewBox="0 0 37 37" fill="none" xmlns="http://www.w3.org/2000/svg">
<path d="M37 18.5C37 28.7173 28.7173 37 18.5 37C8.28273 37 0 28.7173 0 18.5C0 8.28273 8.28273 0 18.5 0C28.7173 0 37 8.28273 37 18.5Z" fill="#D3D3D3"/>
<path fill-rule="evenodd" clip-rule="evenodd" d="M24.825 17.6817L21.9431 15.154C21.7098 14.9494 21.3722 14.9494 21.1649 15.154C20.9315 15.3587 20.9315 15.6548 21.1649 15.8366L23.0862 17.5217H12.5464C12.2349 17.5217 12.0015 17.7264 12.0015 17.9996C12.0015 18.2729 12.2349 18.4775 12.5464 18.4775H23.0862L21.1649 20.1627C20.9315 20.3673 20.9315 20.6634 21.1649 20.8452C21.3982 21.0499 21.7358 21.0499 21.9431 20.8452L24.825 18.3175C25.0584 18.1129 25.0584 17.8168 24.825 17.635V17.6817Z" fill="white"/>
</svg>
