<svg width="37" height="37" viewBox="0 0 37 37" fill="none" xmlns="http://www.w3.org/2000/svg">
<path d="M0 18.5C0 28.7173 8.28273 37 18.5 37C28.7173 37 37 28.7173 37 18.5C37 8.28273 28.7173 0 18.5 0C8.28273 0 0 8.28273 0 18.5Z" fill="#C81912"/>
<path fill-rule="evenodd" clip-rule="evenodd" d="M12.175 17.6817L15.0569 15.154C15.2902 14.9494 15.6278 14.9494 15.8351 15.154C16.0685 15.3587 16.0685 15.6548 15.8351 15.8366L13.9138 17.5217H24.4536C24.7651 17.5217 24.9985 17.7264 24.9985 17.9996C24.9985 18.2729 24.7651 18.4775 24.4536 18.4775H13.9138L15.8351 20.1627C16.0685 20.3673 16.0685 20.6634 15.8351 20.8452C15.6018 21.0499 15.2642 21.0499 15.0569 20.8452L12.175 18.3175C11.9416 18.1129 11.9416 17.8168 12.175 17.635V17.6817Z" fill="white"/>
</svg>
