<svg width="40" height="41" viewBox="0 0 40 41" fill="none" xmlns="http://www.w3.org/2000/svg">
<path fill-rule="evenodd" clip-rule="evenodd" d="M39.0816 20.5C39.0816 31.3019 30.5385 40.0587 20 40.0587C9.46152 40.0587 0.918388 31.3019 0.918388 20.5C0.918388 9.69805 9.46152 0.941345 20 0.941345C30.5385 0.941345 39.0816 9.69805 39.0816 20.5ZM20 0C31.0457 0 40 9.17816 40 20.5C40 31.8218 31.0457 41 20 41C8.95431 41 0 31.8218 0 20.5C0 9.17816 8.95431 0 20 0Z" fill="#D3D3D3"/>
<path d="M21.6786 26.9328C21.761 27.0176 21.8641 27.06 21.9775 27.06C22.0908 27.06 22.1939 27.0176 22.2763 26.9328C22.4412 26.7631 22.4412 26.4874 22.2763 26.3178L17.0203 20.91L22.2763 15.5022C22.4412 15.3326 22.4412 15.0569 22.2763 14.8872C22.1114 14.7176 21.8435 14.7176 21.6786 14.8872L16.1237 20.6025C15.9588 20.7722 15.9588 21.0478 16.1237 21.2175L21.6786 26.9328Z" fill="#D3D3D3"/>
</svg>
