<svg width="40" height="41" viewBox="0 0 40 41" fill="none" xmlns="http://www.w3.org/2000/svg">
<path fill-rule="evenodd" clip-rule="evenodd" d="M0.918386 20.5C0.918386 31.3019 9.46152 40.0587 20 40.0587C30.5385 40.0587 39.0816 31.3019 39.0816 20.5C39.0816 9.69805 30.5385 0.941345 20 0.941345C9.46152 0.941345 0.918386 9.69805 0.918386 20.5ZM20 0C8.95431 0 0 9.17816 0 20.5C0 31.8218 8.95431 41 20 41C31.0457 41 40 31.8218 40 20.5C40 9.17816 31.0457 0 20 0Z" fill="#C81912"/>
<path d="M18.3214 26.9328C18.239 27.0176 18.1359 27.06 18.0225 27.06C17.9092 27.06 17.8061 27.0176 17.7237 26.9328C17.5588 26.7631 17.5588 26.4874 17.7237 26.3178L22.9797 20.91L17.7237 15.5022C17.5588 15.3326 17.5588 15.0569 17.7237 14.8872C17.8886 14.7176 18.1565 14.7176 18.3214 14.8872L23.8763 20.6025C24.0412 20.7722 24.0412 21.0478 23.8763 21.2175L18.3214 26.9328Z" fill="#C81912"/>
</svg>
