<svg width="16" height="16" viewBox="0 0 16 16" fill="none" xmlns="http://www.w3.org/2000/svg">
<path d="M8 16C12.4183 16 16 12.4183 16 8C16 3.58172 12.4183 0 8 0C3.58172 0 0 3.58172 0 8C0 12.4183 3.58172 16 8 16Z" fill="#C81912"/>
<path fill-rule="evenodd" clip-rule="evenodd" d="M6.8302 11.2453C6.64152 11.2453 6.4151 11.1698 6.26416 11.0189L4.3019 8.98115C4.00001 8.67926 4.00001 8.15096 4.3019 7.84907C4.60378 7.54719 5.13209 7.54719 5.43397 7.84907L6.8302 9.32077L10.6415 4.83021C10.9434 4.52832 11.4717 4.52832 11.7736 4.83021C12.0755 5.13209 12.0755 5.66039 11.7736 5.96228L7.39624 11.0189C7.24529 11.1698 7.01888 11.2453 6.8302 11.2453Z" fill="#FCFDFF"/>
</svg>
