<svg width="12" height="12" viewBox="0 0 12 12" fill="none" xmlns="http://www.w3.org/2000/svg">
<path fill-rule="evenodd" clip-rule="evenodd" d="M6.81389 5.99991L11.8314 0.982465C12.0562 0.757749 12.0562 0.393372 11.8314 0.168588C11.6067 -0.0561959 11.2423 -0.0561959 11.0175 0.168588L6 5.18603L0.98248 0.169332C0.757761 -0.0553839 0.393378 -0.0553839 0.16859 0.169332C-0.0561968 0.394116 -0.0561968 0.758425 0.16859 0.983209L5.18611 6.00065L0.169335 11.0173C-0.0554525 11.2421 -0.0554525 11.6064 0.169335 11.8312C0.282067 11.9432 0.428564 12 0.575874 12C0.723183 12 0.870492 11.944 0.982412 11.8312L5.99993 6.81378L11.0175 11.8312C11.1303 11.9432 11.2767 12 11.424 12C11.5713 12 11.7185 11.944 11.8305 11.8312C12.0552 11.6065 12.0552 11.2421 11.8305 11.0173L6.81375 5.99991H6.81389Z" fill="#D9D9D9"/>
</svg>
