<svg width="19" height="20" viewBox="0 0 19 20" fill="none" xmlns="http://www.w3.org/2000/svg">
<path fill-rule="evenodd" clip-rule="evenodd" d="M18.0203 17.3012H0.950794C0.425061 17.3012 0 17.7315 0 18.2637C0 18.796 0.425061 19.2263 0.950794 19.2263H18.0203C18.5461 19.2263 18.9711 18.796 18.9711 18.2637C18.9711 17.7315 18.5461 17.3012 18.0203 17.3012Z" fill="#C81912"/>
<path fill-rule="evenodd" clip-rule="evenodd" d="M9.49659 0C8.97086 0 8.5458 0.444552 8.5458 0.994392V11.4999L5.42496 8.22421C5.24599 8.03703 4.9999 7.93174 4.75381 7.93174C4.22808 7.93174 3.80302 8.37629 3.80302 8.92613C3.80302 9.1952 3.90369 9.44087 4.08266 9.62805L8.82545 14.5883C9.00442 14.7755 9.25051 14.8808 9.49659 14.8808C9.75387 14.8808 9.98877 14.7755 10.1677 14.5883L14.9105 9.62805C15.0895 9.44087 15.1902 9.1835 15.1902 8.92613C15.1902 8.37629 14.7651 7.93174 14.2394 7.93174C13.9821 7.93174 13.7472 8.03703 13.5682 8.22421L10.4474 11.4999V0.994392C10.4474 0.444552 10.0223 0 9.49659 0Z" fill="#C81912"/>
</svg>
