<svg width="93" height="48" viewBox="0 0 93 48" fill="none" xmlns="http://www.w3.org/2000/svg">
<path d="M2.34192 22.5615C2.94891 22.5615 3.55589 22.8644 4.01113 23.3186C4.46637 23.7729 4.61811 24.2271 4.61811 24.9842C4.61811 25.5899 4.46637 26.0442 4.01113 26.4984C3.55589 26.9527 2.94891 27.2555 2.34192 27.2555C1.73494 27.2555 1.12796 26.9527 0.672718 26.4984C0.217481 26.0442 0.0657349 25.5899 0.0657349 24.8328C0.0657349 24.2271 0.217481 23.7729 0.672718 23.3186C1.12796 22.8644 1.73494 22.5615 2.34192 22.5615ZM0.520973 28.4669H4.16287V42.7003H0.520973V28.4669ZM7.34954 28.4669H10.9914V29.9811C11.7502 29.224 12.5089 28.7697 13.2676 28.4669C13.8746 28.3155 14.4816 28.164 15.2403 28.164C16.606 28.164 17.82 28.6183 18.8822 29.5268C19.641 30.4353 20.0962 31.6467 20.0962 33.3123V42.7003H16.606V36.4921C16.606 34.8265 16.4543 33.6152 16.3025 33.1609C16.1508 32.5552 15.8473 32.101 15.5438 31.7981C15.0886 31.4953 14.6333 31.3439 14.1781 31.3439C13.4194 31.3439 12.8124 31.6467 12.2054 32.101C11.7502 32.5552 11.2949 33.3123 11.1432 34.0694C10.9914 34.5237 10.9914 35.5836 10.9914 37.0978V42.7003H7.34954V28.4669ZM32.5394 22.5615C33.1463 22.5615 33.7533 22.8644 34.2086 23.3186C34.6638 23.7729 34.8155 24.2271 34.8155 24.9842C34.8155 25.5899 34.6638 26.0442 34.2086 26.4984C33.7533 26.9527 33.1463 27.2555 32.5394 27.2555C31.9324 27.2555 31.4771 26.9527 31.0219 26.4984C30.5667 26.0442 30.2632 25.5899 30.2632 24.8328C30.2632 24.2271 30.5667 23.7729 31.0219 23.3186C31.3254 22.8644 31.9324 22.5615 32.5394 22.5615ZM30.7184 28.4669H34.3603V42.7003H30.7184V28.4669ZM38.0022 23.1672H41.6441V28.4669H43.7685V31.4953H41.6441V42.7003H38.0022V31.4953H36.1813V28.4669H38.0022V23.1672ZM56.3635 28.4669H59.8536V42.7003H56.3635V41.1861C55.6047 41.9432 54.846 42.3975 54.239 42.7003C53.4803 43.0032 52.7216 43.1546 51.9628 43.1546C49.9901 43.1546 48.4727 42.3975 47.107 41.0347C45.7412 39.5205 44.9825 37.7035 44.9825 35.5836C44.9825 33.4637 45.7412 31.6467 46.9552 30.2839C48.3209 28.7697 49.9901 28.164 51.8111 28.164C52.7216 28.164 53.4803 28.3155 54.239 28.6183C54.9977 28.9211 55.6047 29.3754 56.3635 29.9811V28.4669ZM52.5698 31.3439C51.3558 31.3439 50.4454 31.7981 49.6866 32.5552C49.0797 33.3123 48.6244 34.3723 48.6244 35.5836C48.6244 36.795 49.0797 37.8549 49.8384 38.612C50.5971 39.3691 51.5076 39.8234 52.5698 39.8234C53.632 39.8234 54.5425 39.3691 55.3012 38.612C56.06 37.8549 56.5152 36.795 56.5152 35.5836C56.5152 34.3723 56.06 33.3123 55.3012 32.5552C54.5425 31.7981 53.632 31.3439 52.5698 31.3439ZM63.192 2.87698H66.6822V42.7003H63.192V2.87698ZM68.3514 28.4669H72.145L75.7869 37.4006L79.8841 28.4669H83.526L74.573 48H70.9311L73.8142 41.6404L68.3514 28.4669Z" fill="#060705"/>
<path d="M63.0403 5.45111C66.6822 8.32808 70.4758 7.26815 73.359 6.05679C73.359 11.9622 73.359 17.4133 73.359 23.47C70.0206 25.1357 64.1025 25.4385 63.0403 21.3502C63.0403 16.8076 63.0403 11.5079 63.0403 5.45111Z" fill="#118F40"/>
<path d="M83.0707 0.757098C86.4091 -0.757098 90.658 0 92.9342 3.02839V20.7445C88.3818 15.4448 83.2225 18.776 83.0707 18.6246C83.0707 12.8707 83.0707 6.35962 83.0707 0.757098Z" fill="#C52226"/>
<path fill-rule="evenodd" clip-rule="evenodd" d="M73.359 6.0568L83.0707 0.757111V18.6246L73.359 23.47V6.0568Z" fill="white"/>
<path d="M0.217468 7.7224H2.94889V8.93376C3.40413 8.4795 4.01112 8.02524 4.6181 7.87382C5.22508 7.57099 5.83207 7.41957 6.5908 7.41957C7.19778 7.41957 7.80476 7.57099 8.41175 7.87382C9.01873 8.32808 9.47397 8.78234 9.77746 9.38802C10.2327 8.78234 10.8397 8.32808 11.4467 7.87382C12.0536 7.57099 12.8124 7.41957 13.5711 7.41957C14.3298 7.41957 15.0886 7.57099 15.6956 8.02524C16.3025 8.32808 16.7578 8.78234 17.0613 9.38802C17.3648 9.9937 17.3648 11.0536 17.3648 12.4164V18.9275H14.6333V13.1735C14.6333 11.9622 14.4816 11.0536 14.1781 10.5994C13.8746 10.2965 13.2676 9.9937 12.6606 9.9937C12.2054 9.9937 11.7502 10.1451 11.4467 10.448C10.9914 10.7508 10.6879 11.0536 10.5362 11.5079C10.3844 11.9622 10.2327 12.8707 10.2327 13.9306V18.9275H7.34953V13.4763C7.34953 12.5678 7.34953 11.8107 7.19778 11.3565C7.04603 10.9022 6.74254 10.5994 6.43905 10.2965C6.13556 10.1451 5.83207 9.9937 5.37683 9.9937C4.92159 9.9937 4.46635 10.1451 4.16286 10.448C3.70762 10.7508 3.40413 11.0536 3.25239 11.5079C3.10064 12.1136 2.94889 12.8707 2.94889 13.9306V18.9275H0.217468V7.7224ZM28.4422 7.7224H31.3254V18.9275H28.4422V17.7161C27.8352 18.3218 27.38 18.6246 26.773 18.9275C26.166 19.0789 25.559 19.2303 24.9521 19.2303C23.5863 19.2303 22.2206 18.6246 21.1584 17.5647C20.0962 16.3533 19.6409 14.9905 19.6409 13.3249C19.6409 11.6593 20.0962 10.1451 21.1584 9.08518C22.2206 8.02524 23.4346 7.41957 24.9521 7.41957C25.559 7.41957 26.166 7.57099 26.773 7.7224C27.38 8.02524 27.987 8.4795 28.4422 8.93376V7.7224ZM25.4073 9.9937C24.6486 9.9937 23.8898 10.2965 23.2828 10.9022C22.6759 11.5079 22.3724 12.265 22.3724 13.3249C22.3724 14.2334 22.6759 14.9905 23.2828 15.7476C23.8898 16.3533 24.6486 16.6562 25.4073 16.6562C26.3178 16.6562 27.0765 16.3533 27.6835 15.7476C28.2905 15.142 28.594 14.2334 28.594 13.3249C28.594 12.265 28.2905 11.5079 27.6835 10.9022C27.0765 10.2965 26.3178 9.9937 25.4073 9.9937ZM42.4028 3.33124H45.286V18.9275H42.4028V17.7161C41.9476 18.3218 41.3406 18.6246 40.7336 18.9275C40.2784 19.0789 39.6714 19.2303 38.9127 19.2303C37.547 19.2303 36.1812 18.6246 35.119 17.5647C34.0568 16.3533 33.6016 14.9905 33.6016 13.3249C33.6016 11.6593 34.0568 10.1451 35.119 9.08518C36.1812 8.02524 37.3952 7.41957 38.9127 7.41957C39.5197 7.41957 40.1266 7.57099 40.7336 7.7224C41.3406 8.02524 41.9476 8.4795 42.4028 8.93376V3.33124ZM39.5197 9.9937C38.6092 9.9937 37.8505 10.2965 37.2435 10.9022C36.6365 11.5079 36.4847 12.265 36.4847 13.3249C36.4847 14.2334 36.6365 14.9905 37.2435 15.7476C37.8505 16.3533 38.6092 16.6562 39.5197 16.6562C40.4301 16.6562 41.0371 16.3533 41.6441 15.7476C42.2511 15.142 42.5546 14.2334 42.5546 13.3249C42.5546 12.265 42.2511 11.5079 41.6441 10.9022C41.0371 10.2965 40.4301 9.9937 39.5197 9.9937ZM59.3984 14.082H50.2936C50.4454 14.8391 50.7489 15.5962 51.3558 16.0505C51.9628 16.5047 52.7216 16.6562 53.4803 16.6562C54.5425 16.6562 55.453 16.3533 56.2117 15.5962L58.6396 16.8076C58.0327 17.5647 57.2739 18.1704 56.5152 18.6246C55.6047 18.9275 54.6942 19.2303 53.4803 19.2303C51.8111 19.2303 50.2936 18.6246 49.2314 17.5647C48.1692 16.3533 47.5622 14.9905 47.5622 13.3249C47.5622 11.6593 48.1692 10.2965 49.2314 9.08518C50.2936 8.02524 51.6593 7.41957 53.3285 7.41957C55.1495 7.41957 56.6669 8.02524 57.7292 9.08518C58.7914 10.2965 59.3984 11.6593 59.3984 13.6278V14.082ZM56.5152 11.9622C56.3635 11.3565 56.06 10.7508 55.453 10.448C54.846 9.9937 54.239 9.84228 53.4803 9.84228C52.7216 9.84228 52.1146 9.9937 51.5076 10.448C51.0523 10.7508 50.7489 11.2051 50.4454 11.9622H56.5152Z" fill="#060705"/>
</svg>
