<svg width="94" height="46" viewBox="0 0 94 46" fill="none" xmlns="http://www.w3.org/2000/svg">
<path fill-rule="evenodd" clip-rule="evenodd" d="M1.15556 44.3252L1.84444 44.2359C1.88889 44.5262 1.97778 44.7495 2.08889 44.9058C2.22222 45.0398 2.37778 45.1068 2.6 45.1068C2.82222 45.1068 3 45.0398 3.11111 44.9282C3.22222 44.7942 3.28889 44.6602 3.28889 44.4816C3.28889 44.3699 3.26667 44.2806 3.22222 44.2136C3.17778 44.1466 3.08889 44.0796 2.97778 44.0126C2.88889 43.968 2.71111 43.901 2.4 43.8116C2.02222 43.7 1.75556 43.5437 1.6 43.365C1.37778 43.1194 1.26667 42.8068 1.26667 42.4495C1.26667 42.2262 1.31111 42.0029 1.42222 41.8019C1.53333 41.601 1.66667 41.4447 1.86667 41.333C2.06667 41.2214 2.28889 41.1767 2.55556 41.1767C3 41.1767 3.33333 41.3107 3.55556 41.5563C3.77778 41.8019 3.88889 42.1369 3.91111 42.5612L3.2 42.6058C3.17778 42.3825 3.11111 42.2039 3 42.0922C2.91111 41.9806 2.75556 41.9359 2.55556 41.9359C2.35556 41.9359 2.17778 41.9806 2.06667 42.0922C2 42.1592 1.95556 42.2485 1.95556 42.3825C1.95556 42.4942 2 42.5835 2.06667 42.6505C2.15556 42.7398 2.37778 42.8515 2.71111 42.9631C3.06667 43.0748 3.31111 43.1864 3.46667 43.2981C3.62222 43.4097 3.75556 43.566 3.84444 43.767C3.93333 43.968 3.97778 44.2136 3.97778 44.4816C3.97778 44.7495 3.91111 44.9951 3.8 45.2184C3.68889 45.4417 3.53333 45.6204 3.33333 45.732C3.13333 45.8437 2.86667 45.8883 2.57778 45.8883C2.13333 45.8883 1.8 45.7544 1.55556 45.4864C1.35556 45.2184 1.2 44.8388 1.15556 44.3252Z" fill="#E41B13"/>
<path fill-rule="evenodd" clip-rule="evenodd" d="M4.57778 45.799V41.266H5.28889V45.799H4.57778Z" fill="#E41B13"/>
<path fill-rule="evenodd" clip-rule="evenodd" d="M5.8 44.3252L6.48889 44.2359C6.53333 44.5262 6.62222 44.7495 6.73333 44.9058C6.86667 45.0398 7.02222 45.1068 7.24444 45.1068C7.46667 45.1068 7.64444 45.0398 7.75556 44.9282C7.86667 44.7942 7.93333 44.6602 7.93333 44.4816C7.93333 44.3699 7.91111 44.2806 7.86667 44.2136C7.82222 44.1466 7.73333 44.0796 7.62222 44.0126C7.53333 43.968 7.35556 43.901 7.04445 43.8116C6.66667 43.7 6.4 43.5437 6.24444 43.365C6.02222 43.1194 5.91111 42.8068 5.91111 42.4495C5.91111 42.2262 5.95556 42.0029 6.06667 41.8019C6.17778 41.601 6.31111 41.4447 6.51111 41.333C6.71111 41.2214 6.93333 41.1767 7.2 41.1767C7.64445 41.1767 7.97778 41.3107 8.2 41.5563C8.42222 41.8019 8.53333 42.1369 8.55556 42.5612L7.84444 42.6058C7.82222 42.3825 7.75556 42.2039 7.64444 42.0922C7.55556 41.9806 7.4 41.9359 7.2 41.9359C7 41.9359 6.82222 41.9806 6.71111 42.0922C6.64444 42.1592 6.6 42.2485 6.6 42.3825C6.6 42.4942 6.64444 42.5835 6.71111 42.6505C6.8 42.7398 7.02222 42.8515 7.35556 42.9631C7.71111 43.0748 7.95556 43.1864 8.11111 43.2981C8.26667 43.4097 8.4 43.566 8.48889 43.767C8.57778 43.968 8.62222 44.2136 8.62222 44.4816C8.62222 44.7495 8.55556 44.9951 8.44444 45.2184C8.33333 45.4417 8.17778 45.6204 7.97778 45.732C7.77778 45.8437 7.51111 45.8883 7.22222 45.8883C6.77778 45.8883 6.44444 45.7544 6.2 45.4864C5.97778 45.2184 5.84444 44.8388 5.8 44.3252Z" fill="#E41B13"/>
<path fill-rule="evenodd" clip-rule="evenodd" d="M10.0222 45.799V42.0252H9V41.266H11.8V42.0252H10.7556V45.799H10.0222Z" fill="#E41B13"/>
<path fill-rule="evenodd" clip-rule="evenodd" d="M12.2444 45.799V41.266H14.8444V42.0252H12.9556V43.0301H14.7111V43.7893H12.9556V45.0175H14.9111V45.7767H12.2444V45.799Z" fill="#E41B13"/>
<path fill-rule="evenodd" clip-rule="evenodd" d="M15.4889 45.799V41.266H16.5556L17.2 44.3699L17.8222 41.266H18.8889V45.799H18.2222V42.2262L17.5333 45.799H16.8444L16.1556 42.2262V45.799H15.4889Z" fill="#E41B13"/>
<path fill-rule="evenodd" clip-rule="evenodd" d="M19.5778 45.799V41.266H20.2889V45.799H19.5778Z" fill="#E41B13"/>
<path fill-rule="evenodd" clip-rule="evenodd" d="M23.2 45.799L21.9556 41.266H22.7333L23.6222 44.6155L24.4889 41.266H25.2444L23.9778 45.799H23.2Z" fill="#E41B13"/>
<path fill-rule="evenodd" clip-rule="evenodd" d="M25.5778 45.799V41.266H28.1778V42.0252H26.2889V43.0301H28.0444V43.7893H26.2889V45.0175H28.2444V45.7767H25.5778V45.799Z" fill="#E41B13"/>
<path fill-rule="evenodd" clip-rule="evenodd" d="M28.8667 41.266H30.3556C30.7333 41.266 31 41.3107 31.1778 41.3777C31.3556 41.467 31.4889 41.601 31.5778 41.8019C31.6889 42.0029 31.7333 42.2485 31.7333 42.5165C31.7333 42.8515 31.6667 43.1417 31.5111 43.365C31.3556 43.5883 31.1333 43.7223 30.8222 43.7893C30.9778 43.901 31.1111 44.035 31.2 44.1689C31.2889 44.3029 31.4444 44.5485 31.6 44.9058L32.0222 45.799H31.1778L30.6667 44.8165C30.4889 44.4592 30.3556 44.2359 30.2889 44.1466C30.2222 44.0573 30.1556 43.9903 30.0667 43.968C29.9778 43.9456 29.8667 43.9233 29.7111 43.9233H29.5778V45.8214H28.8667V41.266ZM29.5778 43.1864H30.1111C30.4444 43.1864 30.6667 43.1641 30.7556 43.1417C30.8444 43.0971 30.9111 43.0301 30.9556 42.9408C31 42.8515 31.0222 42.7398 31.0222 42.6058C31.0222 42.4495 31 42.3379 30.9333 42.2262C30.8667 42.1369 30.7778 42.0699 30.6667 42.0476C30.6 42.0476 30.4444 42.0252 30.1556 42.0252H29.6V43.1864H29.5778Z" fill="#E41B13"/>
<path fill-rule="evenodd" clip-rule="evenodd" d="M32.4 45.799V41.266H33.0889L34.5333 44.3029V41.266H35.2V45.799H34.4889L33.0667 42.8515V45.799H32.4Z" fill="#E41B13"/>
<path fill-rule="evenodd" clip-rule="evenodd" d="M35.9111 45.799V41.266H36.6222V45.799H35.9111Z" fill="#E41B13"/>
<path fill-rule="evenodd" clip-rule="evenodd" d="M39.5556 44.1243L40.2444 44.4146C40.1333 44.9058 39.9556 45.2854 39.7111 45.5087C39.4667 45.7544 39.1556 45.866 38.7778 45.866C38.3111 45.866 37.9333 45.665 37.6222 45.2408C37.3111 44.8388 37.1778 44.2582 37.1778 43.5437C37.1778 42.7845 37.3333 42.2039 37.6222 41.7796C37.9333 41.3553 38.3111 41.1544 38.8222 41.1544C39.2444 41.1544 39.6 41.3107 39.8667 41.6456C40.0222 41.8466 40.1556 42.1146 40.2222 42.4718L39.5111 42.6951C39.4667 42.4495 39.3778 42.2709 39.2444 42.1369C39.1111 42.0029 38.9556 41.9359 38.7556 41.9359C38.4889 41.9359 38.2889 42.0476 38.1333 42.2932C37.9778 42.5388 37.8889 42.9184 37.8889 43.4767C37.8889 44.0573 37.9778 44.4592 38.1333 44.7049C38.2889 44.9505 38.5111 45.0621 38.7556 45.0621C38.9333 45.0621 39.1111 44.9951 39.2444 44.8388C39.4 44.7049 39.4889 44.4592 39.5556 44.1243Z" fill="#E41B13"/>
<path fill-rule="evenodd" clip-rule="evenodd" d="M40.8222 45.799V41.266H41.5333V45.799H40.8222Z" fill="#E41B13"/>
<path fill-rule="evenodd" clip-rule="evenodd" d="M45.3778 45.799H44.6L44.2889 44.7718H42.8889L42.6 45.799H41.8444L43.2222 41.266H43.9778L45.3778 45.799ZM44.0667 44.0126L43.5778 42.3379L43.1111 44.0126H44.0667Z" fill="#E41B13"/>
<path fill-rule="evenodd" clip-rule="evenodd" d="M45.7556 45.799V41.266H46.4444L47.8889 44.3029V41.266H48.5556V45.799H47.8444L46.4222 42.8515V45.799H45.7556Z" fill="#E41B13"/>
<path fill-rule="evenodd" clip-rule="evenodd" d="M50.0667 45.799V42.0252H49.0222V41.266H51.8222V42.0252H50.7778V45.799H50.0667Z" fill="#E41B13"/>
<path fill-rule="evenodd" clip-rule="evenodd" d="M52.2667 45.799V41.266H52.9778V45.799H52.2667Z" fill="#E41B13"/>
<path fill-rule="evenodd" clip-rule="evenodd" d="M55 41.266H56.1333C56.5556 41.266 56.8444 41.2883 56.9778 41.333C57.1778 41.4 57.3556 41.5563 57.4889 41.7796C57.6222 42.0029 57.6889 42.2932 57.6889 42.6728C57.6889 42.9408 57.6444 43.1864 57.5778 43.365C57.4889 43.566 57.4 43.7 57.2889 43.8116C57.1778 43.9233 57.0444 43.9903 56.9111 44.035C56.7333 44.0796 56.4889 44.1019 56.1778 44.1019H55.7111V45.8214H55V41.266ZM55.7111 42.0252V43.3204H56.0889C56.3778 43.3204 56.5555 43.2981 56.6444 43.2534C56.7333 43.2087 56.8222 43.1417 56.8667 43.0301C56.9111 42.9184 56.9556 42.8068 56.9556 42.6728C56.9556 42.5165 56.9111 42.3825 56.8444 42.2709C56.7778 42.1592 56.6667 42.0922 56.5555 42.0699C56.4667 42.0476 56.3111 42.0476 56.0444 42.0476H55.7111V42.0252Z" fill="#E41B13"/>
<path fill-rule="evenodd" clip-rule="evenodd" d="M58.2667 45.799V41.266H60.8667V42.0252H58.9778V43.0301H60.7333V43.7893H58.9778V45.0175H60.9333V45.7767H58.2667V45.799Z" fill="#E41B13"/>
<path fill-rule="evenodd" clip-rule="evenodd" d="M61.5555 41.266H63.0444C63.4222 41.266 63.6889 41.3107 63.8667 41.3777C64.0444 41.467 64.1778 41.601 64.2667 41.8019C64.3778 42.0029 64.4222 42.2485 64.4222 42.5165C64.4222 42.8515 64.3556 43.1417 64.2 43.365C64.0444 43.5883 63.8222 43.7223 63.5111 43.7893C63.6667 43.901 63.8 44.035 63.8889 44.1689C63.9778 44.3029 64.1333 44.5485 64.2889 44.9058L64.7111 45.799H63.8667L63.3555 44.8165C63.1778 44.4592 63.0444 44.2359 62.9778 44.1466C62.9111 44.0573 62.8444 43.9903 62.7556 43.968C62.6667 43.9456 62.5556 43.9233 62.4 43.9233H62.2667V45.8214H61.5555V41.266ZM62.2667 43.1864H62.8C63.1333 43.1864 63.3555 43.1641 63.4444 43.1417C63.5333 43.1194 63.6 43.0301 63.6444 42.9408C63.6889 42.8515 63.7111 42.7398 63.7111 42.6058C63.7111 42.4495 63.6889 42.3379 63.6222 42.2262C63.5556 42.1369 63.4667 42.0699 63.3555 42.0476C63.2889 42.0476 63.1333 42.0252 62.8444 42.0252H62.2889V43.1864H62.2667Z" fill="#E41B13"/>
<path fill-rule="evenodd" clip-rule="evenodd" d="M66.4667 45.799V41.2883H67.1778V45.0175H68.9333V45.7767H66.4667V45.799Z" fill="#E41B13"/>
<path fill-rule="evenodd" clip-rule="evenodd" d="M70.2667 42.1146H69.8444L69.1778 41.199H69.9333L70.2667 42.1146Z" fill="#E41B13"/>
<path fill-rule="evenodd" clip-rule="evenodd" d="M71.0667 45.799V41.266H73.6667V42.0252H71.7778V43.0301H73.5333V43.7893H71.7778V45.0175H73.7333V45.7767H71.0667V45.799Z" fill="#E41B13"/>
<path fill-rule="evenodd" clip-rule="evenodd" d="M74.3556 41.266H75.6444C75.9333 41.266 76.1556 41.2883 76.3111 41.3553C76.5111 41.4447 76.6889 41.5786 76.8444 41.7796C77 41.9806 77.1111 42.2262 77.1778 42.5165C77.2444 42.8068 77.2889 43.1641 77.2889 43.5883C77.2889 43.968 77.2444 44.2806 77.1778 44.5485C77.0889 44.8835 76.9556 45.1515 76.8 45.3524C76.6667 45.5087 76.5111 45.6204 76.3111 45.7097C76.1556 45.7767 75.9556 45.799 75.6889 45.799H74.3556V41.266ZM75.0444 42.0252V45.0398H75.5778C75.7778 45.0398 75.9111 45.0175 76 44.9951C76.1111 44.9505 76.2 44.9058 76.2889 44.8165C76.3556 44.7272 76.4222 44.5709 76.4667 44.3699C76.5111 44.1689 76.5333 43.901 76.5333 43.5437C76.5333 43.1864 76.5111 42.9184 76.4667 42.7398C76.4222 42.5612 76.3556 42.4049 76.2667 42.2932C76.1778 42.1815 76.0667 42.1146 75.9333 42.0699C75.8444 42.0476 75.6444 42.0252 75.3556 42.0252H75.0444Z" fill="#E41B13"/>
<path fill-rule="evenodd" clip-rule="evenodd" d="M77.8667 45.799V41.266H78.5778V45.799H77.8667Z" fill="#E41B13"/>
<path fill-rule="evenodd" clip-rule="evenodd" d="M79.2667 45.799V41.2883H79.9778V45.0175H81.7333V45.7767H79.2667V45.799Z" fill="#E41B13"/>
<path fill-rule="evenodd" clip-rule="evenodd" d="M82.2222 45.799V41.266H82.9333V45.799H82.2222Z" fill="#E41B13"/>
<path fill-rule="evenodd" clip-rule="evenodd" d="M83.3111 45.799V44.9728L85.1555 42.0252H83.5111V41.266H86.0889V41.9806L84.1555 45.0398H86.1555V45.799H83.3111Z" fill="#E41B13"/>
<path fill-rule="evenodd" clip-rule="evenodd" d="M86.5778 45.799V41.266H87.2889V45.799H86.5778Z" fill="#E41B13"/>
<path fill-rule="evenodd" clip-rule="evenodd" d="M91.1333 45.799H90.3556L90.0444 44.7718H88.6444L88.3556 45.799H87.6L88.9778 41.266H89.7333L91.1333 45.799ZM89.8222 44.0126L89.3333 42.3379L88.8667 44.0126H89.8222Z" fill="#E41B13"/>
<path fill-rule="evenodd" clip-rule="evenodd" d="M88.8889 7.25728C88.8889 7.25728 90.9778 7.27961 91.1111 8.77573V16.9485H83.0667C83.2444 15.5194 82.2889 14.8049 79.5111 14.0903C76.9333 13.4204 75.5555 11.634 75.5555 11.634C75.3556 13.733 73.0222 13.8 73.0222 13.8C73.0667 13.9117 73.5555 14.6485 73.5555 15.3408C75.0222 15.3408 75.0667 16.3903 74.9556 16.6359C75.2 16.7029 75.1556 16.9262 75.1556 16.9262H72.8C72.8444 16.368 72.2889 14.5146 71.1333 14.4029C71.3333 13.867 71.3111 13.5097 71.1778 13.3981C71.0444 13.2864 70.7556 13.733 70.7556 13.733C70.7556 13.733 70.4444 14.1573 70.1555 14.1573C70.5778 14.7379 70.4222 14.9165 70.3556 15.3184C71.6889 15.3184 71.8 16.368 71.6889 16.6136C71.9111 16.6806 71.8889 16.9039 71.8889 16.9039H69.5111C69.6444 14.7602 68.5111 14.4476 68.0667 14.2689C68.2 13.3534 68.8 13.1971 69.0667 12.5495C69.5778 11.3883 68.1778 11.0311 68.0222 9.98155C67.6444 11.6786 66.4889 15.2738 64.0222 14.1126C61.9556 12.9738 63.8 10.2718 64.1333 9.4233C64.4889 8.57476 63.8667 8.3068 63.4 8.5301C59.5778 10.0262 60.3333 6.29709 60.3333 6.29709C60.3333 6.29709 60.6444 7.23495 61.6222 7.1233C62.6 7.01165 63.0889 5.82816 64.4889 6.05146C65.9111 6.27476 66.1333 7.88252 65.1555 9.31165C64.0889 10.8301 63.1333 12.8621 64.3778 13.4204C65.5778 13.9563 66.4667 12.5942 66.8222 9.73592C67.1778 6.87767 68.9778 6.11845 69.6222 6.02913C71.6889 5.69417 74.2667 6.54272 75.4667 6.85534C77.4889 7.39126 78.5333 7.10097 78.5555 6.58738C78.5555 6.11845 78.0444 5.73883 76.7111 5.80583C72.9333 5.96214 71.6444 5.09126 70.9556 4.55534C63.1556 4.97961 61.6889 0 61.6889 0C61.6889 0 65.0444 2.50097 73.2 1.27282C75.9556 0.870874 84.9111 -1.96505 82.5778 5.67184C82.4889 6.14078 82.4889 6.83301 83.1778 6.83301C84.4667 6.85534 84.0444 4.84563 83.9778 4.66699C83.7556 4.06408 83.1333 2.3 83.4889 0.625243C84.1111 0.781553 84.4889 0.759223 85 1.38447C85 1.38447 87.0889 0.669903 88.7556 1.6301C88.7556 1.6301 89.1111 0.960194 90.2667 0.826214C90.2667 0.826214 90.7556 1.51845 89.9111 3.14854C89.1778 5.18058 89.6 6.20777 88.8889 7.25728ZM90.4444 16.2563V9.60194C88.7778 9.60194 87.4222 11.0311 87.2889 11.1874C87.1556 11.0311 85.7778 9.60194 84.1333 9.60194V15.3184C85.3333 15.2515 85.5778 15.832 85.5555 16.2563H90.4444Z" fill="#E41B13"/>
<path fill-rule="evenodd" clip-rule="evenodd" d="M5.84444 21.4369H0.288889V37.1796H5.84444V29.6544C5.84444 27.9126 5.84444 25.233 8.31111 25.233C10.7778 25.233 10.7778 27.9126 10.7778 29.6544V37.1796H16.3333V29.6544C16.3333 27.7786 16.4222 25.3447 19 25.3447C21.3556 25.3447 21.2889 28.0243 21.2889 29.6544V37.1796H26.8444V27.1311C26.8444 23.5136 25.4667 20.901 21.4889 20.901C19.3556 20.901 17.2444 21.9505 16.1778 23.9155C15.0444 21.8388 13.0889 20.901 10.8222 20.901C8.8 20.901 7.17778 21.6379 5.86667 23.3796H5.8V21.4369H5.84444Z" fill="#060705"/>
<path fill-rule="evenodd" clip-rule="evenodd" d="M37.7556 25.7689C40.0222 25.7689 41.3333 27.399 41.3333 29.3417C41.3333 31.3291 40.0222 32.8699 37.7556 32.8699C35.4889 32.8699 34.1778 31.3291 34.1778 29.3417C34.1778 27.399 35.4889 25.7689 37.7556 25.7689ZM46.7111 21.4369H41.1556V22.9777C40 21.5932 38.0889 20.9233 36.2889 20.9233C31.6444 20.9233 28.4444 24.7864 28.4444 29.2971C28.4444 33.8078 31.7111 37.7155 36.3556 37.7155C38.1778 37.7155 40.1111 37.001 41.0889 35.4379H41.1556V37.1796H46.7111V21.4369Z" fill="#060705"/>
<path fill-rule="evenodd" clip-rule="evenodd" d="M54.0889 21.4369H48.5333V37.1796H54.0889V30.8155C54.0889 28.1136 54.8444 26.0592 57.9333 26.0592C58.7778 26.0592 59.5111 26.1485 60.2889 26.5728V21.1913H59.2222C57.0444 21.1913 55.2222 22.0621 54.1556 23.9825H54.0889V21.4369Z" fill="#060705"/>
<path fill-rule="evenodd" clip-rule="evenodd" d="M73.6444 21.8388C72.5556 21.2136 71.2667 20.9233 69.9778 20.9233C65.0667 20.9233 61.2 24.4291 61.2 29.4981C61.2 34.2544 65.0889 37.7155 69.7333 37.7155C71.0667 37.7155 72.4222 37.4476 73.6444 36.8223V32.0883C72.9111 32.7583 71.8444 33.1602 70.8667 33.1602C68.5778 33.1602 66.9556 31.5524 66.9556 29.2971C66.9556 27.1087 68.6444 25.4563 70.7778 25.4563C71.8444 25.4563 72.8222 25.9476 73.6444 26.5505V21.8388Z" fill="#060705"/>
<path fill-rule="evenodd" clip-rule="evenodd" d="M84.2444 20.9233C79.2 20.9233 74.8 23.9602 74.8 29.3417C74.8 34.7233 79.2222 37.7155 84.2444 37.7155C89.2889 37.7155 93.6889 34.6786 93.6889 29.3417C93.6889 23.9602 89.2889 20.9233 84.2444 20.9233ZM84.2444 25.7689C86.5111 25.7689 87.8222 27.399 87.8222 29.3417C87.8222 31.3291 86.5111 32.8699 84.2444 32.8699C81.9778 32.8699 80.6667 31.3291 80.6667 29.3417C80.6667 27.399 81.9778 25.7689 84.2444 25.7689Z" fill="#060705"/>
<path fill-rule="evenodd" clip-rule="evenodd" d="M13.2444 1.6301C11.6222 0.893204 9.84444 0.625243 8.08889 0.625243C4.66667 0.625243 1.17778 2.34466 1.17778 6.20777C1.17778 9.02136 2.91111 9.89223 4.66667 10.3612C6.4 10.8301 8.15556 10.8748 8.15556 12.1029C8.15556 12.9515 7.11111 13.3087 6.42222 13.3087C5.04444 13.3087 3.15556 12.5049 2.02222 11.701L0 15.6087C1.88889 16.7699 4.08889 17.4175 6.33333 17.4175C9.95555 17.4175 13.7333 15.6981 13.7333 11.5447C13.7333 8.61942 11.7778 7.39126 9.17778 6.87767C8.42222 6.72136 6.66667 6.56505 6.66667 5.4932C6.66667 4.68932 7.77778 4.42136 8.4 4.42136C9.35556 4.42136 10.5333 4.73398 11.4 5.18058L13.2444 1.6301Z" fill="#060705"/>
<path fill-rule="evenodd" clip-rule="evenodd" d="M23.9556 5.47087C26.2222 5.47087 27.5333 7.10097 27.5333 9.02136C27.5333 11.0311 26.2222 12.5495 23.9556 12.5495C21.6889 12.5495 20.3778 11.0087 20.3778 9.02136C20.3778 7.10097 21.6889 5.47087 23.9556 5.47087ZM27.3556 1.13883V2.67961C26.2 1.29515 24.3111 0.625243 22.5111 0.625243C17.8667 0.625243 14.6667 4.48835 14.6667 8.99903C14.6667 13.5097 17.9333 17.4175 22.5778 17.4175C24.4 17.4175 26.3333 16.7029 27.3111 15.1398H27.3778V16.8816H32.9333V1.13883H27.3556Z" fill="#060705"/>
<path fill-rule="evenodd" clip-rule="evenodd" d="M40.3556 1.13883H34.8V16.8816H40.3556V8.70874C40.3556 6.74369 41 5.0466 43.2667 5.0466C46.0222 5.0466 45.7778 7.68155 45.7778 9.17767V16.8592H51.3333V7.1233C51.3333 3.26019 49.6444 0.580582 45.4444 0.580582C43.2667 0.580582 41.7111 1.22816 40.4222 3.12621H40.3556V1.13883Z" fill="#060705"/>
</svg>
