<svg width="68" height="33" viewBox="0 0 68 33" fill="none" xmlns="http://www.w3.org/2000/svg">
<path fill-rule="evenodd" clip-rule="evenodd" d="M0.828191 31.7681L1.32192 31.704C1.35377 31.9121 1.41748 32.0721 1.49711 32.1842C1.59267 32.2802 1.70416 32.3282 1.86343 32.3282C2.0227 32.3282 2.15011 32.2802 2.22974 32.2002C2.30938 32.1041 2.35716 32.0081 2.35716 31.8801C2.35716 31.8001 2.34123 31.736 2.30938 31.688C2.27752 31.64 2.21382 31.592 2.13418 31.544C2.07048 31.512 1.94306 31.464 1.72009 31.4C1.44933 31.3199 1.25821 31.2079 1.14673 31.0799C0.987458 30.9038 0.907824 30.6798 0.907824 30.4237C0.907824 30.2637 0.939678 30.1036 1.01931 29.9596C1.09895 29.8156 1.19451 29.7035 1.33785 29.6235C1.48119 29.5435 1.64045 29.5115 1.83158 29.5115C2.15011 29.5115 2.38901 29.6075 2.54828 29.7835C2.70755 29.9596 2.78718 30.1997 2.80311 30.5037L2.29345 30.5357C2.27752 30.3757 2.22974 30.2477 2.15011 30.1676C2.0864 30.0876 1.97492 30.0556 1.83158 30.0556C1.68823 30.0556 1.56082 30.0876 1.48119 30.1676C1.43341 30.2157 1.40155 30.2797 1.40155 30.3757C1.40155 30.4557 1.43341 30.5197 1.48119 30.5677C1.54489 30.6318 1.70416 30.7118 1.94306 30.7918C2.19789 30.8718 2.37308 30.9518 2.48457 31.0319C2.59606 31.1119 2.69162 31.2239 2.75533 31.3679C2.81903 31.512 2.85089 31.688 2.85089 31.8801C2.85089 32.0721 2.80311 32.2482 2.72347 32.4082C2.64384 32.5683 2.53235 32.6963 2.38901 32.7763C2.24567 32.8563 2.05455 32.8883 1.8475 32.8883C1.52897 32.8883 1.29007 32.7923 1.11487 32.6003C0.971531 32.4082 0.860044 32.1361 0.828191 31.7681Z" fill="#E41B13"/>
<path fill-rule="evenodd" clip-rule="evenodd" d="M3.28091 32.8243V29.5755H3.79056V32.8243H3.28091Z" fill="#E41B13"/>
<path fill-rule="evenodd" clip-rule="evenodd" d="M4.15688 31.7681L4.65061 31.704C4.68246 31.9121 4.74617 32.0721 4.8258 32.1842C4.92136 32.2802 5.03285 32.3282 5.19212 32.3282C5.35139 32.3282 5.4788 32.2802 5.55843 32.2002C5.63807 32.1041 5.68585 32.0081 5.68585 31.8801C5.68585 31.8001 5.66992 31.736 5.63807 31.688C5.60621 31.64 5.54251 31.592 5.46287 31.544C5.39917 31.512 5.27175 31.464 5.04878 31.4C4.77802 31.3199 4.5869 31.2079 4.47541 31.0799C4.31615 30.9038 4.23651 30.6798 4.23651 30.4237C4.23651 30.2637 4.26837 30.1036 4.348 29.9596C4.42763 29.8156 4.52319 29.7035 4.66654 29.6235C4.80988 29.5435 4.96914 29.5115 5.16026 29.5115C5.4788 29.5115 5.7177 29.6075 5.87697 29.7835C6.03624 29.9596 6.11587 30.1997 6.1318 30.5037L5.62214 30.5357C5.60621 30.3757 5.55843 30.2477 5.4788 30.1676C5.41509 30.0876 5.30361 30.0556 5.16026 30.0556C5.01692 30.0556 4.88951 30.0876 4.80988 30.1676C4.7621 30.2157 4.73024 30.2797 4.73024 30.3757C4.73024 30.4557 4.7621 30.5197 4.80988 30.5677C4.87358 30.6318 5.03285 30.7118 5.27175 30.7918C5.52658 30.8718 5.70177 30.9518 5.81326 31.0319C5.92475 31.1119 6.02031 31.2239 6.08402 31.3679C6.14772 31.512 6.17958 31.688 6.17958 31.8801C6.17958 32.0721 6.1318 32.2482 6.05216 32.4082C5.97253 32.5683 5.86104 32.6963 5.7177 32.7763C5.57436 32.8563 5.38324 32.8883 5.17619 32.8883C4.85766 32.8883 4.61876 32.7923 4.44356 32.6003C4.28429 32.4082 4.18873 32.1361 4.15688 31.7681Z" fill="#E41B13"/>
<path fill-rule="evenodd" clip-rule="evenodd" d="M7.18296 32.8243V30.1196H6.45033V29.5755H8.4571V30.1196H7.70854V32.8243H7.18296Z" fill="#E41B13"/>
<path fill-rule="evenodd" clip-rule="evenodd" d="M8.77564 32.8243V29.5755H10.6391V30.1196H9.28529V30.8398H10.5435V31.384H9.28529V32.2642H10.6868V32.8083H8.77564V32.8243Z" fill="#E41B13"/>
<path fill-rule="evenodd" clip-rule="evenodd" d="M11.1009 32.8243V29.5755H11.8654L12.3273 31.8001L12.7732 29.5755H13.5377V32.8243H13.0599V30.2637L12.5662 32.8243H12.0725L11.5787 30.2637V32.8243H11.1009Z" fill="#E41B13"/>
<path fill-rule="evenodd" clip-rule="evenodd" d="M14.0315 32.8243V29.5755H14.5411V32.8243H14.0315Z" fill="#E41B13"/>
<path fill-rule="evenodd" clip-rule="evenodd" d="M16.6275 32.8243L15.7356 29.5755H16.2931L16.9301 31.9761L17.5513 29.5755H18.0928L17.185 32.8243H16.6275Z" fill="#E41B13"/>
<path fill-rule="evenodd" clip-rule="evenodd" d="M18.3317 32.8243V29.5755H20.1951V30.1196H18.8413V30.8398H20.0996V31.384H18.8413V32.2642H20.2429V32.8083H18.3317V32.8243Z" fill="#E41B13"/>
<path fill-rule="evenodd" clip-rule="evenodd" d="M20.6888 29.5755H21.7559C22.0267 29.5755 22.2178 29.6075 22.3452 29.6555C22.4726 29.7195 22.5682 29.8156 22.6319 29.9596C22.7115 30.1036 22.7434 30.2797 22.7434 30.4717C22.7434 30.7118 22.6956 30.9198 22.5841 31.0799C22.4726 31.2399 22.3134 31.3359 22.0904 31.384C22.2019 31.464 22.2974 31.56 22.3612 31.656C22.4249 31.752 22.5363 31.9281 22.6478 32.1842L22.9504 32.8243H22.3452L21.9789 32.1201C21.8515 31.8641 21.7559 31.704 21.7082 31.64C21.6604 31.576 21.6126 31.528 21.5489 31.512C21.4852 31.496 21.4055 31.48 21.2941 31.48H21.1985V32.8403H20.6888V29.5755ZM21.1985 30.9518H21.5807C21.8196 30.9518 21.9789 30.9358 22.0426 30.9198C22.1063 30.8878 22.1541 30.8398 22.186 30.7758C22.2178 30.7118 22.2337 30.6318 22.2337 30.5357C22.2337 30.4237 22.2178 30.3437 22.17 30.2637C22.1222 30.1997 22.0585 30.1516 21.9789 30.1356C21.9311 30.1356 21.8196 30.1196 21.6126 30.1196H21.2144V30.9518H21.1985Z" fill="#E41B13"/>
<path fill-rule="evenodd" clip-rule="evenodd" d="M23.2212 32.8243V29.5755H23.7149L24.7502 31.752V29.5755H25.228V32.8243H24.7183L23.699 30.7118V32.8243H23.2212Z" fill="#E41B13"/>
<path fill-rule="evenodd" clip-rule="evenodd" d="M25.7376 32.8243V29.5755H26.2473V32.8243H25.7376Z" fill="#E41B13"/>
<path fill-rule="evenodd" clip-rule="evenodd" d="M28.3496 31.624L28.8433 31.8321C28.7637 32.1842 28.6363 32.4562 28.4611 32.6163C28.2859 32.7923 28.0629 32.8723 27.7922 32.8723C27.4577 32.8723 27.187 32.7283 26.964 32.4242C26.741 32.1361 26.6454 31.72 26.6454 31.2079C26.6454 30.6638 26.7569 30.2477 26.964 29.9436C27.187 29.6395 27.4577 29.4955 27.824 29.4955C28.1266 29.4955 28.3815 29.6075 28.5726 29.8476C28.6841 29.9916 28.7796 30.1837 28.8274 30.4397L28.3177 30.5998C28.2859 30.4237 28.2222 30.2957 28.1266 30.1997C28.0311 30.1036 27.9196 30.0556 27.7762 30.0556C27.5851 30.0556 27.4418 30.1356 27.3303 30.3117C27.2188 30.4877 27.1551 30.7598 27.1551 31.1599C27.1551 31.576 27.2188 31.8641 27.3303 32.0401C27.4418 32.2162 27.601 32.2962 27.7762 32.2962C27.9037 32.2962 28.0311 32.2482 28.1266 32.1361C28.2381 32.0401 28.3018 31.8641 28.3496 31.624Z" fill="#E41B13"/>
<path fill-rule="evenodd" clip-rule="evenodd" d="M29.2574 32.8243V29.5755H29.7671V32.8243H29.2574Z" fill="#E41B13"/>
<path fill-rule="evenodd" clip-rule="evenodd" d="M32.5224 32.8243H31.965L31.742 32.0881H30.7386L30.5316 32.8243H29.9901L30.9775 29.5755H31.519L32.5224 32.8243ZM31.5827 31.544L31.2323 30.3437L30.8979 31.544H31.5827Z" fill="#E41B13"/>
<path fill-rule="evenodd" clip-rule="evenodd" d="M32.7932 32.8243V29.5755H33.2869L34.3221 31.752V29.5755H34.7999V32.8243H34.2903L33.271 30.7118V32.8243H32.7932Z" fill="#E41B13"/>
<path fill-rule="evenodd" clip-rule="evenodd" d="M35.883 32.8243V30.1196H35.1344V29.5755H37.1412V30.1196H36.3926V32.8243H35.883Z" fill="#E41B13"/>
<path fill-rule="evenodd" clip-rule="evenodd" d="M37.4597 32.8243V29.5755H37.9694V32.8243H37.4597Z" fill="#E41B13"/>
<path fill-rule="evenodd" clip-rule="evenodd" d="M39.4187 29.5755H40.2309C40.5336 29.5755 40.7406 29.5915 40.8362 29.6235C40.9795 29.6715 41.1069 29.7835 41.2025 29.9436C41.298 30.1036 41.3458 30.3117 41.3458 30.5838C41.3458 30.7758 41.314 30.9518 41.2662 31.0799C41.2025 31.2239 41.1388 31.3199 41.0591 31.4C40.9795 31.48 40.8839 31.528 40.7884 31.56C40.661 31.592 40.4858 31.608 40.2628 31.608H39.9283V32.8403H39.4187V29.5755ZM39.9283 30.1196V31.0479H40.1991C40.4061 31.0479 40.5336 31.0319 40.5973 30.9999C40.661 30.9678 40.7247 30.9198 40.7565 30.8398C40.7884 30.7598 40.8202 30.6798 40.8202 30.5838C40.8202 30.4717 40.7884 30.3757 40.7406 30.2957C40.6928 30.2157 40.6132 30.1676 40.5336 30.1516C40.4698 30.1356 40.3584 30.1356 40.1672 30.1356H39.9283V30.1196Z" fill="#E41B13"/>
<path fill-rule="evenodd" clip-rule="evenodd" d="M41.7599 32.8243V29.5755H43.6233V30.1196H42.2696V30.8398H43.5278V31.384H42.2696V32.2642H43.6711V32.8083H41.7599V32.8243Z" fill="#E41B13"/>
<path fill-rule="evenodd" clip-rule="evenodd" d="M44.1171 29.5755H45.1842C45.4549 29.5755 45.646 29.6075 45.7735 29.6555C45.9009 29.7195 45.9964 29.8156 46.0601 29.9596C46.1398 30.1036 46.1716 30.2797 46.1716 30.4717C46.1716 30.7118 46.1238 30.9198 46.0124 31.0799C45.9009 31.2399 45.7416 31.3359 45.5186 31.384C45.6301 31.464 45.7257 31.56 45.7894 31.656C45.8531 31.752 45.9646 31.9281 46.0761 32.1842L46.3787 32.8243H45.7735L45.4071 32.1201C45.2797 31.8641 45.1842 31.704 45.1364 31.64C45.0886 31.576 45.0408 31.528 44.9771 31.512C44.9134 31.496 44.8338 31.48 44.7223 31.48H44.6267V32.8403H44.1171V29.5755ZM44.6267 30.9518H45.009C45.2479 30.9518 45.4071 30.9358 45.4708 30.9198C45.5346 30.9038 45.5823 30.8398 45.6142 30.7758C45.646 30.7118 45.662 30.6318 45.662 30.5357C45.662 30.4237 45.646 30.3437 45.5983 30.2637C45.5505 30.1997 45.4868 30.1516 45.4071 30.1356C45.3594 30.1356 45.2479 30.1196 45.0408 30.1196H44.6427V30.9518H44.6267Z" fill="#E41B13"/>
<path fill-rule="evenodd" clip-rule="evenodd" d="M47.6369 32.8243V29.5915H48.1465V32.2642H49.4048V32.8083H47.6369V32.8243Z" fill="#E41B13"/>
<path fill-rule="evenodd" clip-rule="evenodd" d="M50.3604 30.1837H50.0578L49.5799 29.5275H50.1215L50.3604 30.1837Z" fill="#E41B13"/>
<path fill-rule="evenodd" clip-rule="evenodd" d="M50.9337 32.8243V29.5755H52.7971V30.1196H51.4434V30.8398H52.7016V31.384H51.4434V32.2642H52.8449V32.8083H50.9337V32.8243Z" fill="#E41B13"/>
<path fill-rule="evenodd" clip-rule="evenodd" d="M53.2909 29.5755H54.2146C54.4217 29.5755 54.5809 29.5915 54.6924 29.6395C54.8358 29.7035 54.9632 29.7996 55.0747 29.9436C55.1862 30.0876 55.2658 30.2637 55.3136 30.4717C55.3614 30.6798 55.3932 30.9358 55.3932 31.2399C55.3932 31.512 55.3614 31.736 55.3136 31.9281C55.2499 32.1682 55.1543 32.3602 55.0428 32.5042C54.9473 32.6163 54.8358 32.6963 54.6924 32.7603C54.5809 32.8083 54.4376 32.8243 54.2465 32.8243H53.2909V29.5755ZM53.7846 30.1196V32.2802H54.1669C54.3102 32.2802 54.4058 32.2642 54.4695 32.2482C54.5491 32.2162 54.6128 32.1842 54.6765 32.1201C54.7243 32.0561 54.7721 31.9441 54.8039 31.8001C54.8358 31.656 54.8517 31.464 54.8517 31.2079C54.8517 30.9518 54.8358 30.7598 54.8039 30.6318C54.7721 30.5037 54.7243 30.3917 54.6606 30.3117C54.5969 30.2317 54.5172 30.1836 54.4217 30.1516C54.358 30.1356 54.2146 30.1196 54.0076 30.1196H53.7846Z" fill="#E41B13"/>
<path fill-rule="evenodd" clip-rule="evenodd" d="M55.8073 32.8243V29.5755H56.317V32.8243H55.8073Z" fill="#E41B13"/>
<path fill-rule="evenodd" clip-rule="evenodd" d="M56.8107 32.8243V29.5915H57.3203V32.2642H58.5786V32.8083H56.8107V32.8243Z" fill="#E41B13"/>
<path fill-rule="evenodd" clip-rule="evenodd" d="M58.9289 32.8243V29.5755H59.4386V32.8243H58.9289Z" fill="#E41B13"/>
<path fill-rule="evenodd" clip-rule="evenodd" d="M59.7094 32.8243V32.2322L61.0313 30.1196H59.8527V29.5755H61.7002V30.0876L60.3146 32.2802H61.748V32.8243H59.7094Z" fill="#E41B13"/>
<path fill-rule="evenodd" clip-rule="evenodd" d="M62.0506 32.8243V29.5755H62.5602V32.8243H62.0506Z" fill="#E41B13"/>
<path fill-rule="evenodd" clip-rule="evenodd" d="M65.3156 32.8243H64.7581L64.5352 32.0881H63.5318L63.3247 32.8243H62.7832L63.7707 29.5755H64.3122L65.3156 32.8243ZM64.3759 31.544L64.0255 30.3437L63.691 31.544H64.3759Z" fill="#E41B13"/>
<path fill-rule="evenodd" clip-rule="evenodd" d="M63.707 5.20132C63.707 5.20132 65.2041 5.21732 65.2996 6.28959V12.1471H59.5342C59.6616 11.1228 58.9767 10.6107 56.9859 10.0986C55.1384 9.61844 54.1509 8.33811 54.1509 8.33811C54.0076 9.84249 52.3353 9.89051 52.3353 9.89051C52.3671 9.97053 52.7175 10.4987 52.7175 10.9948C53.7687 10.9948 53.8005 11.747 53.7209 11.923C53.8961 11.971 53.8642 12.1311 53.8642 12.1311H52.176C52.2079 11.731 51.8097 10.4026 50.9815 10.3226C51.1248 9.93852 51.1089 9.68246 51.0134 9.60243C50.9178 9.52241 50.7107 9.84249 50.7107 9.84249C50.7107 9.84249 50.4878 10.1466 50.2807 10.1466C50.5833 10.5627 50.4718 10.6907 50.4241 10.9788C51.3797 10.9788 51.4593 11.731 51.3797 11.907C51.5389 11.955 51.523 12.1151 51.523 12.1151H49.8188C49.9144 10.5787 49.1021 10.3546 48.7836 10.2266C48.8792 9.57043 49.3092 9.4584 49.5003 8.99428C49.8666 8.16207 48.8632 7.906 48.7518 7.15381C48.481 8.37012 47.6528 10.9468 45.8849 10.1146C44.4038 9.29836 45.7257 7.36187 45.9646 6.75371C46.2194 6.14556 45.7735 5.95351 45.439 6.11355C42.6996 7.18582 43.2411 4.51314 43.2411 4.51314C43.2411 4.51314 43.4641 5.18531 44.1649 5.10529C44.8656 5.02527 45.216 4.17706 46.2194 4.3371C47.2387 4.49714 47.398 5.64943 46.6972 6.67369C45.9327 7.76197 45.2479 9.21834 46.1398 9.61844C46.9998 10.0025 47.6369 9.02629 47.8917 6.97777C48.1465 4.92925 49.4366 4.38511 49.8985 4.3211C51.3797 4.08103 53.2272 4.68919 54.0872 4.91325C55.5365 5.29734 56.2851 5.08929 56.301 4.7212C56.301 4.38511 55.9347 4.11304 54.9791 4.16105C52.2716 4.27308 51.3478 3.64893 50.8541 3.26483C45.2638 3.5689 44.2126 0 44.2126 0C44.2126 0 46.6176 1.79245 52.4627 0.912231C54.4376 0.624158 60.8561 -1.40836 59.1838 4.06503C59.1201 4.40112 59.1201 4.89724 59.6138 4.89724C60.5376 4.91325 60.2349 3.47288 60.1872 3.34485C60.0279 2.91274 59.5819 1.64842 59.8368 0.448114C60.2827 0.560142 60.5535 0.544138 60.9198 0.992252C60.9198 0.992252 62.4169 0.480122 63.6114 1.1683C63.6114 1.1683 63.8662 0.688174 64.6944 0.59215C64.6944 0.59215 65.0448 1.08828 64.4396 2.25657C63.914 3.71294 64.2166 4.44913 63.707 5.20132ZM64.8218 11.651V6.88174C63.6273 6.88174 62.6558 7.906 62.5602 8.01803C62.4647 7.906 61.4772 6.88174 60.2986 6.88174V10.9788C61.1587 10.9308 61.3339 11.3469 61.318 11.651H64.8218Z" fill="#E41B13"/>
<path fill-rule="evenodd" clip-rule="evenodd" d="M4.18873 15.3639H0.207048V26.6468H4.18873V21.2534C4.18873 20.0051 4.18873 18.0846 5.9566 18.0846C7.72447 18.0846 7.72447 20.0051 7.72447 21.2534V26.6468H11.7062V21.2534C11.7062 19.909 11.7699 18.1646 13.6174 18.1646C15.3056 18.1646 15.2578 20.0851 15.2578 21.2534V26.6468H19.2395V19.4449C19.2395 16.8523 18.252 14.9798 15.4012 14.9798C13.8722 14.9798 12.3592 15.732 11.5947 17.1403C10.7824 15.652 9.38085 14.9798 7.75632 14.9798C6.30699 14.9798 5.14434 15.5079 4.20466 16.7562H4.15688V15.3639H4.18873Z" fill="white"/>
<path fill-rule="evenodd" clip-rule="evenodd" d="M27.0595 18.4687C28.6841 18.4687 29.6237 19.637 29.6237 21.0293C29.6237 22.4537 28.6841 23.558 27.0595 23.558C25.435 23.558 24.4953 22.4537 24.4953 21.0293C24.4953 19.637 25.435 18.4687 27.0595 18.4687ZM33.478 15.3639H29.4963V16.4682C28.6681 15.4759 27.2984 14.9958 26.0084 14.9958C22.6797 14.9958 20.3862 17.7645 20.3862 20.9973C20.3862 24.2301 22.7275 27.0309 26.0562 27.0309C27.3621 27.0309 28.7478 26.5187 29.4485 25.3984H29.4963V26.6468H33.478V15.3639Z" fill="white"/>
<path fill-rule="evenodd" clip-rule="evenodd" d="M38.7657 15.3639H34.784V26.6468H38.7657V22.0856C38.7657 20.1491 39.3072 18.6767 41.521 18.6767C42.1262 18.6767 42.6518 18.7408 43.2093 19.0448V15.1878H42.4448C40.8839 15.1878 39.578 15.812 38.8135 17.1884H38.7657V15.3639Z" fill="white"/>
<path fill-rule="evenodd" clip-rule="evenodd" d="M52.7812 15.652C52.0008 15.2039 51.0771 14.9958 50.1533 14.9958C46.6335 14.9958 43.8623 17.5084 43.8623 21.1414C43.8623 24.5502 46.6494 27.0309 49.9781 27.0309C50.9337 27.0309 51.9053 26.8388 52.7812 26.3907V22.9978C52.2556 23.478 51.4912 23.766 50.7904 23.766C49.1499 23.766 47.9873 22.6137 47.9873 20.9973C47.9873 19.4289 49.1977 18.2446 50.7267 18.2446C51.4912 18.2446 52.1919 18.5967 52.7812 19.0288V15.652Z" fill="white"/>
<path fill-rule="evenodd" clip-rule="evenodd" d="M60.3783 14.9958C56.7629 14.9958 53.6094 17.1724 53.6094 21.0293C53.6094 24.8863 56.7788 27.0309 60.3783 27.0309C63.9937 27.0309 67.1471 24.8543 67.1471 21.0293C67.1471 17.1724 63.9937 14.9958 60.3783 14.9958ZM60.3783 18.4687C62.0028 18.4687 62.9425 19.637 62.9425 21.0293C62.9425 22.4537 62.0028 23.558 60.3783 23.558C58.7538 23.558 57.8141 22.4537 57.8141 21.0293C57.8141 19.637 58.7538 18.4687 60.3783 18.4687Z" fill="white"/>
<path fill-rule="evenodd" clip-rule="evenodd" d="M9.49234 1.1683C8.32969 0.640162 7.05555 0.448114 5.79733 0.448114C3.34462 0.448114 0.844117 1.68043 0.844117 4.44913C0.844117 6.46564 2.0864 7.0898 3.34462 7.42588C4.5869 7.76197 5.84511 7.79397 5.84511 8.6742C5.84511 9.28235 5.09656 9.53842 4.60283 9.53842C3.61537 9.53842 2.2616 8.96227 1.44933 8.38612L0 11.1868C1.35377 12.019 2.93052 12.4832 4.53912 12.4832C7.13518 12.4832 9.84273 11.2509 9.84273 8.2741C9.84273 6.17756 8.44117 5.29734 6.57774 4.92925C6.03624 4.81722 4.77802 4.70519 4.77802 3.937C4.77802 3.36085 5.57436 3.1688 6.02031 3.1688C6.70516 3.1688 7.54928 3.39286 8.17042 3.71294L9.49234 1.1683Z" fill="white"/>
<path fill-rule="evenodd" clip-rule="evenodd" d="M17.169 3.92099C18.7936 3.92099 19.7332 5.08929 19.7332 6.46564C19.7332 7.906 18.7936 8.99428 17.169 8.99428C15.5445 8.99428 14.6048 7.89 14.6048 6.46564C14.6048 5.08929 15.5445 3.92099 17.169 3.92099ZM19.6058 0.816207V1.92049C18.7776 0.928235 17.4239 0.448114 16.1338 0.448114C12.8051 0.448114 10.5117 3.21682 10.5117 6.44963C10.5117 9.68245 12.8529 12.4832 16.1816 12.4832C17.4876 12.4832 18.8732 11.971 19.574 10.8507H19.6217V12.0991H23.6034V0.816207H19.6058Z" fill="white"/>
<path fill-rule="evenodd" clip-rule="evenodd" d="M28.923 0.816207H24.9413V12.0991H28.923V6.24158C28.923 4.83323 29.3848 3.61692 31.0094 3.61692C32.9843 3.61692 32.8091 5.5054 32.8091 6.57767V12.0831H36.7908V5.10529C36.7908 2.33659 35.5803 0.416105 32.5702 0.416105C31.0094 0.416105 29.8945 0.880223 28.9707 2.24057H28.923V0.816207Z" fill="white"/>
</svg>
