<svg width="94" height="46" viewBox="0 0 94 46" fill="none" xmlns="http://www.w3.org/2000/svg">
<path fill-rule="evenodd" clip-rule="evenodd" d="M1.26667 44.4369L1.95556 44.3476C2 44.6379 2.08889 44.8612 2.2 45.0175C2.33334 45.1515 2.48889 45.2185 2.71111 45.2185C2.93334 45.2185 3.11111 45.1515 3.22223 45.0398C3.33334 44.9058 3.4 44.7719 3.4 44.5932C3.4 44.4816 3.37778 44.3922 3.33334 44.3253C3.28889 44.2583 3.2 44.1913 3.08889 44.1243C3 44.0796 2.82223 44.0126 2.51111 43.9233C2.13334 43.8117 1.86667 43.6554 1.71111 43.4767C1.48889 43.2311 1.37778 42.9185 1.37778 42.5612C1.37778 42.3379 1.42223 42.1146 1.53334 41.9136C1.64445 41.7126 1.77778 41.5563 1.97778 41.4447C2.17778 41.333 2.4 41.2884 2.66667 41.2884C3.11111 41.2884 3.44445 41.4223 3.66667 41.668C3.88889 41.9136 4 42.2486 4.02223 42.6728L3.31111 42.7175C3.28889 42.4942 3.22223 42.3155 3.11111 42.2039C3.02223 42.0922 2.86667 42.0476 2.66667 42.0476C2.46667 42.0476 2.28889 42.0922 2.17778 42.2039C2.11111 42.2709 2.06667 42.3602 2.06667 42.4942C2.06667 42.6058 2.11111 42.6952 2.17778 42.7621C2.26667 42.8515 2.48889 42.9631 2.82223 43.0748C3.17778 43.1864 3.42223 43.2981 3.57778 43.4097C3.73334 43.5214 3.86667 43.6777 3.95556 43.8787C4.04445 44.0796 4.08889 44.3253 4.08889 44.5932C4.08889 44.8612 4.02223 45.1068 3.91111 45.3301C3.8 45.5534 3.64445 45.732 3.44445 45.8437C3.24445 45.9554 2.97778 46 2.68889 46C2.24445 46 1.91111 45.866 1.66667 45.5981C1.46667 45.3301 1.31111 44.9505 1.26667 44.4369Z" fill="#E41B13"/>
<path fill-rule="evenodd" clip-rule="evenodd" d="M4.68889 45.9107V41.3777H5.4V45.9107H4.68889Z" fill="#E41B13"/>
<path fill-rule="evenodd" clip-rule="evenodd" d="M5.91111 44.4369L6.6 44.3476C6.64445 44.6379 6.73334 44.8612 6.84445 45.0175C6.97778 45.1515 7.13334 45.2185 7.35556 45.2185C7.57778 45.2185 7.75556 45.1515 7.86667 45.0398C7.97778 44.9058 8.04445 44.7719 8.04445 44.5932C8.04445 44.4816 8.02223 44.3922 7.97778 44.3253C7.93334 44.2583 7.84445 44.1913 7.73334 44.1243C7.64445 44.0796 7.46667 44.0126 7.15556 43.9233C6.77778 43.8117 6.51112 43.6554 6.35556 43.4767C6.13334 43.2311 6.02223 42.9185 6.02223 42.5612C6.02223 42.3379 6.06667 42.1146 6.17778 41.9136C6.28889 41.7126 6.42223 41.5563 6.62223 41.4447C6.82223 41.333 7.04445 41.2884 7.31112 41.2884C7.75556 41.2884 8.08889 41.4223 8.31112 41.668C8.53334 41.9136 8.64445 42.2486 8.66667 42.6728L7.95556 42.7175C7.93334 42.4942 7.86667 42.3155 7.75556 42.2039C7.66667 42.0922 7.51112 42.0476 7.31112 42.0476C7.11112 42.0476 6.93334 42.0922 6.82223 42.2039C6.75556 42.2709 6.71111 42.3602 6.71111 42.4942C6.71111 42.6058 6.75556 42.6952 6.82223 42.7621C6.91111 42.8515 7.13334 42.9631 7.46667 43.0748C7.82223 43.1864 8.06667 43.2981 8.22223 43.4097C8.37778 43.5214 8.51111 43.6777 8.6 43.8787C8.68889 44.0796 8.73334 44.3253 8.73334 44.5932C8.73334 44.8612 8.66667 45.1068 8.55556 45.3301C8.44445 45.5534 8.28889 45.732 8.08889 45.8437C7.88889 45.9554 7.62223 46 7.33334 46C6.88889 46 6.55556 45.866 6.31111 45.5981C6.08889 45.3301 5.95556 44.9505 5.91111 44.4369Z" fill="#E41B13"/>
<path fill-rule="evenodd" clip-rule="evenodd" d="M10.1333 45.9107V42.1369H9.11111V41.3777H11.9111V42.1369H10.8667V45.9107H10.1333Z" fill="#E41B13"/>
<path fill-rule="evenodd" clip-rule="evenodd" d="M12.3556 45.9107V41.3777H14.9556V42.1369H13.0667V43.1418H14.8222V43.901H13.0667V45.1291H15.0222V45.8884H12.3556V45.9107Z" fill="#E41B13"/>
<path fill-rule="evenodd" clip-rule="evenodd" d="M15.6 45.9107V41.3777H16.6667L17.3111 44.4816L17.9333 41.3777H19V45.9107H18.3333V42.3379L17.6444 45.9107H16.9556L16.2667 42.3379V45.9107H15.6Z" fill="#E41B13"/>
<path fill-rule="evenodd" clip-rule="evenodd" d="M19.6889 45.9107V41.3777H20.4V45.9107H19.6889Z" fill="#E41B13"/>
<path fill-rule="evenodd" clip-rule="evenodd" d="M23.3111 45.9107L22.0667 41.3777H22.8444L23.7333 44.7272L24.6 41.3777H25.3556L24.0889 45.9107H23.3111Z" fill="#E41B13"/>
<path fill-rule="evenodd" clip-rule="evenodd" d="M25.6889 45.9107V41.3777H28.2889V42.1369H26.4V43.1418H28.1556V43.901H26.4V45.1291H28.3556V45.8884H25.6889V45.9107Z" fill="#E41B13"/>
<path fill-rule="evenodd" clip-rule="evenodd" d="M28.9778 41.3777H30.4667C30.8444 41.3777 31.1111 41.4223 31.2889 41.4893C31.4667 41.5787 31.6 41.7126 31.6889 41.9136C31.8 42.1146 31.8444 42.3602 31.8444 42.6282C31.8444 42.9631 31.7778 43.2534 31.6222 43.4767C31.4667 43.7 31.2444 43.834 30.9333 43.901C31.0889 44.0126 31.2222 44.1466 31.3111 44.2806C31.4 44.4146 31.5556 44.6602 31.7111 45.0175L32.1333 45.9107H31.2889L30.7778 44.9282C30.6 44.5709 30.4667 44.3476 30.4 44.2583C30.3333 44.1689 30.2667 44.102 30.1778 44.0796C30.0889 44.0573 29.9778 44.035 29.8222 44.035H29.6889V45.933H28.9778V41.3777ZM29.6889 43.2981H30.2222C30.5556 43.2981 30.7778 43.2757 30.8667 43.2534C30.9556 43.2088 31.0222 43.1418 31.0667 43.0524C31.1111 42.9631 31.1333 42.8515 31.1333 42.7175C31.1333 42.5612 31.1111 42.4495 31.0445 42.3379C30.9778 42.2486 30.8889 42.1816 30.7778 42.1592C30.7111 42.1592 30.5556 42.1369 30.2667 42.1369H29.7111V43.2981H29.6889Z" fill="#E41B13"/>
<path fill-rule="evenodd" clip-rule="evenodd" d="M32.5111 45.9107V41.3777H33.2L34.6444 44.4146V41.3777H35.3111V45.9107H34.6L33.1778 42.9631V45.9107H32.5111Z" fill="#E41B13"/>
<path fill-rule="evenodd" clip-rule="evenodd" d="M36.0222 45.9107V41.3777H36.7333V45.9107H36.0222Z" fill="#E41B13"/>
<path fill-rule="evenodd" clip-rule="evenodd" d="M39.6667 44.2359L40.3556 44.5262C40.2444 45.0175 40.0667 45.3971 39.8222 45.6204C39.5778 45.866 39.2667 45.9777 38.8889 45.9777C38.4222 45.9777 38.0444 45.7767 37.7333 45.3524C37.4222 44.9505 37.2889 44.3699 37.2889 43.6553C37.2889 42.8961 37.4445 42.3155 37.7333 41.8913C38.0444 41.467 38.4222 41.266 38.9333 41.266C39.3556 41.266 39.7111 41.4223 39.9778 41.7573C40.1333 41.9583 40.2667 42.2262 40.3333 42.5835L39.6222 42.8068C39.5778 42.5612 39.4889 42.3825 39.3556 42.2486C39.2222 42.1146 39.0667 42.0476 38.8667 42.0476C38.6 42.0476 38.4 42.1592 38.2444 42.4049C38.0889 42.6505 38 43.0301 38 43.5884C38 44.1689 38.0889 44.5709 38.2444 44.8165C38.4 45.0621 38.6222 45.1738 38.8667 45.1738C39.0444 45.1738 39.2222 45.1068 39.3556 44.9505C39.5111 44.8165 39.6 44.5709 39.6667 44.2359Z" fill="#E41B13"/>
<path fill-rule="evenodd" clip-rule="evenodd" d="M40.9333 45.9107V41.3777H41.6444V45.9107H40.9333Z" fill="#E41B13"/>
<path fill-rule="evenodd" clip-rule="evenodd" d="M45.4889 45.9107H44.7111L44.4 44.8835H43L42.7111 45.9107H41.9556L43.3333 41.3777H44.0889L45.4889 45.9107ZM44.1778 44.1243L43.6889 42.4495L43.2222 44.1243H44.1778Z" fill="#E41B13"/>
<path fill-rule="evenodd" clip-rule="evenodd" d="M45.8667 45.9107V41.3777H46.5556L48 44.4146V41.3777H48.6667V45.9107H47.9556L46.5333 42.9631V45.9107H45.8667Z" fill="#E41B13"/>
<path fill-rule="evenodd" clip-rule="evenodd" d="M50.1778 45.9107V42.1369H49.1333V41.3777H51.9333V42.1369H50.8889V45.9107H50.1778Z" fill="#E41B13"/>
<path fill-rule="evenodd" clip-rule="evenodd" d="M52.3778 45.9107V41.3777H53.0889V45.9107H52.3778Z" fill="#E41B13"/>
<path fill-rule="evenodd" clip-rule="evenodd" d="M55.1111 41.3777H56.2444C56.6667 41.3777 56.9556 41.4 57.0889 41.4447C57.2889 41.5117 57.4667 41.668 57.6 41.8913C57.7333 42.1146 57.8 42.4049 57.8 42.7845C57.8 43.0524 57.7556 43.2981 57.6889 43.4767C57.6 43.6777 57.5111 43.8117 57.4 43.9233C57.2889 44.035 57.1556 44.102 57.0222 44.1466C56.8444 44.1913 56.6 44.2136 56.2889 44.2136H55.8222V45.933H55.1111V41.3777ZM55.8222 42.1369V43.432H56.2C56.4889 43.432 56.6667 43.4097 56.7556 43.3651C56.8444 43.3204 56.9333 43.2534 56.9778 43.1418C57.0222 43.0301 57.0667 42.9185 57.0667 42.7845C57.0667 42.6282 57.0222 42.4942 56.9556 42.3825C56.8889 42.2709 56.7778 42.2039 56.6667 42.1816C56.5778 42.1592 56.4222 42.1592 56.1556 42.1592H55.8222V42.1369Z" fill="#E41B13"/>
<path fill-rule="evenodd" clip-rule="evenodd" d="M58.3778 45.9107V41.3777H60.9778V42.1369H59.0889V43.1418H60.8444V43.901H59.0889V45.1291H61.0444V45.8884H58.3778V45.9107Z" fill="#E41B13"/>
<path fill-rule="evenodd" clip-rule="evenodd" d="M61.6667 41.3777H63.1556C63.5333 41.3777 63.8 41.4223 63.9778 41.4893C64.1556 41.5787 64.2889 41.7126 64.3778 41.9136C64.4889 42.1146 64.5333 42.3602 64.5333 42.6282C64.5333 42.9631 64.4667 43.2534 64.3111 43.4767C64.1556 43.7 63.9333 43.834 63.6222 43.901C63.7778 44.0126 63.9111 44.1466 64 44.2806C64.0889 44.4146 64.2444 44.6602 64.4 45.0175L64.8222 45.9107H63.9778L63.4667 44.9282C63.2889 44.5709 63.1556 44.3476 63.0889 44.2583C63.0222 44.1689 62.9556 44.102 62.8667 44.0796C62.7778 44.0573 62.6667 44.035 62.5111 44.035H62.3778V45.933H61.6667V41.3777ZM62.3778 43.2981H62.9111C63.2444 43.2981 63.4667 43.2757 63.5556 43.2534C63.6444 43.2311 63.7111 43.1418 63.7556 43.0524C63.8 42.9631 63.8222 42.8515 63.8222 42.7175C63.8222 42.5612 63.8 42.4495 63.7333 42.3379C63.6667 42.2486 63.5778 42.1816 63.4667 42.1592C63.4 42.1592 63.2444 42.1369 62.9556 42.1369H62.4V43.2981H62.3778Z" fill="#E41B13"/>
<path fill-rule="evenodd" clip-rule="evenodd" d="M66.5778 45.9107V41.4H67.2889V45.1291H69.0444V45.8884H66.5778V45.9107Z" fill="#E41B13"/>
<path fill-rule="evenodd" clip-rule="evenodd" d="M70.3778 42.2262H69.9556L69.2889 41.3107H70.0444L70.3778 42.2262Z" fill="#E41B13"/>
<path fill-rule="evenodd" clip-rule="evenodd" d="M71.1778 45.9107V41.3777H73.7778V42.1369H71.8889V43.1418H73.6444V43.901H71.8889V45.1291H73.8445V45.8884H71.1778V45.9107Z" fill="#E41B13"/>
<path fill-rule="evenodd" clip-rule="evenodd" d="M74.4667 41.3777H75.7556C76.0444 41.3777 76.2667 41.4 76.4222 41.467C76.6222 41.5563 76.8 41.6903 76.9556 41.8913C77.1111 42.0922 77.2222 42.3379 77.2889 42.6282C77.3556 42.9185 77.4 43.2757 77.4 43.7C77.4 44.0796 77.3556 44.3922 77.2889 44.6602C77.2 44.9952 77.0667 45.2631 76.9111 45.4641C76.7778 45.6204 76.6222 45.732 76.4222 45.8214C76.2667 45.8884 76.0667 45.9107 75.8 45.9107H74.4667V41.3777ZM75.1556 42.1369V45.1515H75.6889C75.8889 45.1515 76.0222 45.1291 76.1111 45.1068C76.2222 45.0621 76.3111 45.0175 76.4 44.9282C76.4667 44.8388 76.5333 44.6825 76.5778 44.4816C76.6222 44.2806 76.6444 44.0126 76.6444 43.6553C76.6444 43.2981 76.6222 43.0301 76.5778 42.8515C76.5333 42.6728 76.4667 42.5165 76.3778 42.4049C76.2889 42.2932 76.1778 42.2262 76.0444 42.1816C75.9556 42.1592 75.7556 42.1369 75.4667 42.1369H75.1556Z" fill="#E41B13"/>
<path fill-rule="evenodd" clip-rule="evenodd" d="M77.9778 45.9107V41.3777H78.6889V45.9107H77.9778Z" fill="#E41B13"/>
<path fill-rule="evenodd" clip-rule="evenodd" d="M79.3778 45.9107V41.4H80.0889V45.1291H81.8445V45.8884H79.3778V45.9107Z" fill="#E41B13"/>
<path fill-rule="evenodd" clip-rule="evenodd" d="M82.3333 45.9107V41.3777H83.0444V45.9107H82.3333Z" fill="#E41B13"/>
<path fill-rule="evenodd" clip-rule="evenodd" d="M83.4222 45.9107V45.0845L85.2667 42.1369H83.6222V41.3777H86.2V42.0922L84.2667 45.1515H86.2667V45.9107H83.4222Z" fill="#E41B13"/>
<path fill-rule="evenodd" clip-rule="evenodd" d="M86.6889 45.9107V41.3777H87.4V45.9107H86.6889Z" fill="#E41B13"/>
<path fill-rule="evenodd" clip-rule="evenodd" d="M91.2444 45.9107H90.4667L90.1556 44.8835H88.7556L88.4667 45.9107H87.7111L89.0889 41.3777H89.8445L91.2444 45.9107ZM89.9333 44.1243L89.4445 42.4495L88.9778 44.1243H89.9333Z" fill="#E41B13"/>
<path fill-rule="evenodd" clip-rule="evenodd" d="M89 7.36895C89 7.36895 91.0889 7.39128 91.2222 8.88739V17.0602H83.1778C83.3556 15.6311 82.4 14.9165 79.6222 14.202C77.0444 13.5321 75.6667 11.7456 75.6667 11.7456C75.4667 13.8447 73.1333 13.9117 73.1333 13.9117C73.1778 14.0233 73.6667 14.7602 73.6667 15.4524C75.1333 15.4524 75.1778 16.502 75.0667 16.7476C75.3111 16.8146 75.2667 17.0379 75.2667 17.0379H72.9111C72.9556 16.4796 72.4 14.6262 71.2444 14.5146C71.4444 13.9787 71.4222 13.6214 71.2889 13.5097C71.1556 13.3981 70.8667 13.8447 70.8667 13.8447C70.8667 13.8447 70.5555 14.2689 70.2667 14.2689C70.6889 14.8495 70.5333 15.0282 70.4667 15.4301C71.8 15.4301 71.9111 16.4796 71.8 16.7253C72.0222 16.7922 72 17.0155 72 17.0155H69.6222C69.7556 14.8719 68.6222 14.5592 68.1778 14.3806C68.3111 13.4651 68.9111 13.3088 69.1778 12.6612C69.6889 11.5 68.2889 11.1427 68.1333 10.0932C67.7556 11.7903 66.6 15.3855 64.1333 14.2243C62.0667 13.0855 63.9111 10.3835 64.2444 9.53496C64.6 8.68642 63.9778 8.41846 63.5111 8.64176C59.6889 10.1379 60.4444 6.40875 60.4444 6.40875C60.4444 6.40875 60.7556 7.34662 61.7333 7.23496C62.7111 7.12331 63.2 5.93982 64.6 6.16312C66.0222 6.38642 66.2444 7.99419 65.2667 9.42331C64.2 10.9418 63.2444 12.9738 64.4889 13.5321C65.6889 14.068 66.5778 12.7058 66.9333 9.84759C67.2889 6.98933 69.0889 6.23011 69.7333 6.14079C71.8 5.80584 74.3778 6.65438 75.5778 6.967C77.6 7.50293 78.6444 7.21264 78.6667 6.69904C78.6667 6.23011 78.1556 5.8505 76.8222 5.91749C73.0444 6.0738 71.7556 5.20293 71.0667 4.667C63.2667 5.09128 61.8 0.111664 61.8 0.111664C61.8 0.111664 65.1556 2.61263 73.3111 1.38448C76.0667 0.982538 85.0222 -1.85338 82.6889 5.78351C82.6 6.25244 82.6 6.94467 83.2889 6.94467C84.5778 6.967 84.1556 4.95729 84.0889 4.77865C83.8667 4.17574 83.2444 2.41166 83.6 0.736906C84.2222 0.893217 84.6 0.870887 85.1111 1.49613C85.1111 1.49613 87.2 0.781567 88.8667 1.74176C88.8667 1.74176 89.2222 1.07186 90.3778 0.937877C90.3778 0.937877 90.8667 1.63011 90.0222 3.26021C89.2889 5.29225 89.7111 6.31943 89 7.36895ZM90.5556 16.368V9.71361C88.8889 9.71361 87.5333 11.1427 87.4 11.299C87.2667 11.1427 85.8889 9.71361 84.2444 9.71361V15.4301C85.4444 15.3631 85.6889 15.9437 85.6667 16.368H90.5556Z" fill="#E41B13"/>
<path fill-rule="evenodd" clip-rule="evenodd" d="M5.95556 21.5486H0.400003V37.2913H5.95556V29.766C5.95556 28.0243 5.95556 25.3447 8.42223 25.3447C10.8889 25.3447 10.8889 28.0243 10.8889 29.766V37.2913H16.4444V29.766C16.4444 27.8903 16.5333 25.4563 19.1111 25.4563C21.4667 25.4563 21.4 28.1359 21.4 29.766V37.2913H26.9556V27.2427C26.9556 23.6253 25.5778 21.0126 21.6 21.0126C19.4667 21.0126 17.3556 22.0621 16.2889 24.0272C15.1556 21.9505 13.2 21.0126 10.9333 21.0126C8.91111 21.0126 7.28889 21.7495 5.97778 23.4913H5.91111V21.5486H5.95556Z" fill="white"/>
<path fill-rule="evenodd" clip-rule="evenodd" d="M37.8667 25.8806C40.1333 25.8806 41.4444 27.5107 41.4444 29.4534C41.4444 31.4408 40.1333 32.9816 37.8667 32.9816C35.6 32.9816 34.2889 31.4408 34.2889 29.4534C34.2889 27.5107 35.6 25.8806 37.8667 25.8806ZM46.8222 21.5486H41.2667V23.0893C40.1111 21.7049 38.2 21.035 36.4 21.035C31.7556 21.035 28.5556 24.8981 28.5556 29.4088C28.5556 33.9194 31.8222 37.8272 36.4667 37.8272C38.2889 37.8272 40.2222 37.1126 41.2 35.5495H41.2667V37.2913H46.8222V21.5486Z" fill="white"/>
<path fill-rule="evenodd" clip-rule="evenodd" d="M54.2 21.5486H48.6444V37.2913H54.2V30.9272C54.2 28.2253 54.9556 26.1709 58.0444 26.1709C58.8889 26.1709 59.6222 26.2602 60.4 26.6845V21.3029H59.3333C57.1556 21.3029 55.3333 22.1738 54.2667 24.0942H54.2V21.5486Z" fill="white"/>
<path fill-rule="evenodd" clip-rule="evenodd" d="M73.7556 21.9505C72.6667 21.3253 71.3778 21.035 70.0889 21.035C65.1778 21.035 61.3111 24.5408 61.3111 29.6097C61.3111 34.366 65.2 37.8272 69.8445 37.8272C71.1778 37.8272 72.5333 37.5592 73.7556 36.934V32.2C73.0222 32.8699 71.9556 33.2719 70.9778 33.2719C68.6889 33.2719 67.0667 31.6641 67.0667 29.4088C67.0667 27.2204 68.7556 25.568 70.8889 25.568C71.9556 25.568 72.9333 26.0592 73.7556 26.6621V21.9505Z" fill="white"/>
<path fill-rule="evenodd" clip-rule="evenodd" d="M84.3556 21.035C79.3111 21.035 74.9111 24.0719 74.9111 29.4534C74.9111 34.835 79.3333 37.8272 84.3556 37.8272C89.4 37.8272 93.8 34.7903 93.8 29.4534C93.8 24.0719 89.4 21.035 84.3556 21.035ZM84.3556 25.8806C86.6222 25.8806 87.9333 27.5107 87.9333 29.4534C87.9333 31.4408 86.6222 32.9816 84.3556 32.9816C82.0889 32.9816 80.7778 31.4408 80.7778 29.4534C80.7778 27.5107 82.0889 25.8806 84.3556 25.8806Z" fill="white"/>
<path fill-rule="evenodd" clip-rule="evenodd" d="M13.3556 1.74176C11.7333 1.00487 9.95556 0.736906 8.2 0.736906C4.77778 0.736906 1.28889 2.45632 1.28889 6.31943C1.28889 9.13302 3.02223 10.0039 4.77778 10.4728C6.51111 10.9418 8.26667 10.9864 8.26667 12.2146C8.26667 13.0631 7.22223 13.4204 6.53334 13.4204C5.15556 13.4204 3.26667 12.6165 2.13334 11.8126L0.111115 15.7204C2 16.8816 4.2 17.5291 6.44445 17.5291C10.0667 17.5291 13.8444 15.8097 13.8444 11.6563C13.8444 8.73108 11.8889 7.50293 9.28889 6.98933C8.53334 6.83302 6.77778 6.67671 6.77778 5.60487C6.77778 4.80098 7.88889 4.53302 8.51111 4.53302C9.46667 4.53302 10.6444 4.84564 11.5111 5.29225L13.3556 1.74176Z" fill="white"/>
<path fill-rule="evenodd" clip-rule="evenodd" d="M24.0667 5.58254C26.3333 5.58254 27.6444 7.21263 27.6444 9.13302C27.6444 11.1427 26.3333 12.6612 24.0667 12.6612C21.8 12.6612 20.4889 11.1204 20.4889 9.13302C20.4889 7.21263 21.8 5.58254 24.0667 5.58254ZM27.4667 1.2505V2.79128C26.3111 1.40681 24.4222 0.736906 22.6222 0.736906C17.9778 0.736906 14.7778 4.60001 14.7778 9.11069C14.7778 13.6214 18.0444 17.5291 22.6889 17.5291C24.5111 17.5291 26.4444 16.8146 27.4222 15.2515H27.4889V16.9932H33.0444V1.2505H27.4667Z" fill="white"/>
<path fill-rule="evenodd" clip-rule="evenodd" d="M40.4667 1.2505H34.9111V16.9932H40.4667V8.8204C40.4667 6.85535 41.1111 5.15827 43.3778 5.15827C46.1333 5.15827 45.8889 7.79322 45.8889 9.28933V16.9709H51.4445V7.23497C51.4445 3.37186 49.7556 0.692246 45.5556 0.692246C43.3778 0.692246 41.8222 1.33982 40.5333 3.23788H40.4667V1.2505Z" fill="white"/>
</svg>
