<svg width="109" height="19" viewBox="0 0 109 19" fill="none" xmlns="http://www.w3.org/2000/svg">
<path d="M0 18.1079H36.1302V19H0V18.1079Z" fill="#2AA63E"/>
<path d="M36.1302 18.1079H72.2603V19H36.1302V18.1079Z" fill="#EBECEC"/>
<path d="M72.2603 18.1079H108.391V19H72.2603V18.1079Z" fill="#E42127"/>
<path fill-rule="evenodd" clip-rule="evenodd" d="M33.8276 0.43401H32.9703L32.8968 0.72335H34.1951L32.3824 6.77538H32.3579C32.1375 6.24492 31.6231 5.35279 30.2269 5.35279C28.2917 5.35279 25.4013 7.49873 25.4013 10.1751C25.4013 12.08 26.5526 13.1891 28.0468 13.1891C29.541 13.1891 30.4228 12.08 30.8147 11.5736L30.8392 11.5977C30.7413 12.297 31.0597 13.1891 31.917 13.1891C32.7253 13.1891 33.4112 12.8033 33.8766 12.2005L34.5135 11.3566L34.2685 11.236L33.8276 11.8147C33.5827 12.1282 33.0193 12.7792 32.5539 12.7792C32.2355 12.7792 32.0885 12.5863 32.0885 12.3452C32.064 12.08 32.162 11.7906 32.2355 11.5977L35.9097 0C35.3218 0.337563 34.5625 0.43401 33.8276 0.43401ZM30.5943 11.5495C30.0064 12.3211 29.0756 12.9239 28.1693 12.9239C27.2875 12.9239 26.8955 12.3211 26.871 11.4772C26.822 9.59645 28.0713 5.64213 30.5698 5.64213C31.5496 5.64213 32.162 6.75127 32.162 7.16117C32.162 7.69163 30.8392 11.236 30.5943 11.5495Z" fill="white"/>
<path d="M2.18006 6.02791H1.02879L1.10228 5.73857H1.4942C2.30253 5.73857 3.08637 5.66623 3.89471 5.35278L3.13536 7.78806H3.15986C3.9192 6.58248 5.36441 5.35278 6.68714 5.35278C7.51997 5.35278 8.10785 5.85913 8.10785 6.58248C8.10785 6.99238 8.08336 7.32994 7.93639 7.69162H7.98538C8.96518 6.38959 10.1409 5.35278 11.2187 5.35278C12.4435 5.35278 13.0069 5.97969 13.0069 6.77537C13.0069 7.21115 12.4365 8.71605 11.94 10.0259C11.5574 11.0353 11.2187 11.9288 11.2187 12.1282C11.2187 12.3934 11.3412 12.6586 11.6351 12.6586C12.3177 12.6586 12.9828 11.8162 13.3503 11.3508C13.4179 11.265 13.4755 11.1921 13.5213 11.1396L13.7172 11.2601L13.6756 11.3177C13.2842 11.8599 12.3943 13.0926 11.0718 13.0926C10.1899 13.0926 9.847 12.5863 9.847 11.7906C9.847 11.1815 10.3863 9.78703 10.8725 8.5297C11.2717 7.49754 11.6351 6.55778 11.6351 6.2208C11.6351 5.85913 11.4392 5.64212 10.9248 5.64212C9.99397 5.64212 7.91189 7.83629 7.51997 9.01776L6.29522 12.9962H4.75204L6.34421 7.90862C6.78512 6.51014 6.83411 6.24492 6.83411 6.0038C6.83411 5.76268 6.66265 5.64212 6.4177 5.64212C4.97249 5.64212 3.11087 7.93273 2.74344 9.1142L1.51869 12.9962H9.17254e-09L2.18006 6.02791Z" fill="white"/>
<path fill-rule="evenodd" clip-rule="evenodd" d="M21.7437 11.5675C21.6769 11.8084 21.6046 12.0692 21.6046 12.2728C21.6046 12.5622 21.7516 12.7792 22.0455 12.7792C22.6371 12.7792 23.3659 11.8339 23.7059 11.3928C23.746 11.3408 23.7807 11.2958 23.8092 11.2601L24.0051 11.4289C23.9736 11.4692 23.9324 11.5283 23.882 11.6006C23.5399 12.0905 22.773 13.1891 21.7271 13.1891C20.4289 13.1891 20.3799 12.1523 20.3554 11.5977H20.3309C19.8655 12.3452 18.8122 13.1891 17.7099 13.1891C15.9218 13.1891 14.893 11.8388 14.893 10.1992C14.893 7.71573 17.6119 5.35278 19.9879 5.35278C21.2127 5.35278 21.7026 6.29314 21.8251 6.8236H21.8741L22.217 5.73857H23.6867L21.8006 11.3566C21.7835 11.4237 21.7639 11.4947 21.7437 11.5675ZM17.7344 12.9238C19.3266 12.9238 20.2574 11.4771 20.7963 9.83755C20.9714 9.29305 21.1327 8.83735 21.2658 8.46145C21.4862 7.83875 21.6291 7.43491 21.6291 7.20938C21.6291 6.58248 21.0657 5.64212 19.9145 5.64212C17.4894 5.64212 16.3872 10.151 16.3872 11.5013C16.3872 12.4416 16.8771 12.9238 17.7344 12.9238Z" fill="white"/>
<path fill-rule="evenodd" clip-rule="evenodd" d="M42.4499 11.0673L42.4362 11.0858C42.0317 11.6337 40.8833 13.1891 38.8491 13.1891C37.8203 13.1891 35.8852 12.4657 35.8852 10.1992C35.8852 7.47461 38.6042 5.35278 40.9557 5.35278C41.911 5.35278 43.0133 5.78679 43.0133 6.89593C43.0133 8.24618 41.2496 9.25887 39.1186 9.25887C38.6287 9.25887 38.1388 9.16243 37.6734 8.99365C37.4774 9.66877 37.3549 10.4162 37.3549 10.8502C37.3549 12.0076 37.7468 12.9238 39.1186 12.9238C40.6581 12.9238 41.7881 11.5234 42.185 11.0315C42.2112 10.9991 42.2342 10.9706 42.2539 10.9467L42.4499 11.0673ZM40.6373 5.64212C38.9471 5.64212 38.1878 7.4505 37.7468 8.72842C38.0653 8.82486 38.5552 8.96953 39.1186 8.96953C41.1517 8.96953 41.764 7.4505 41.764 6.70304C41.764 6.10024 41.3476 5.64212 40.6373 5.64212Z" fill="white"/>
<path d="M52.5908 1.92898C52.5908 2.14599 52.7133 2.53178 53.1787 2.53178C53.8891 2.53178 54.379 1.80843 54.379 1.22974C54.379 0.988628 54.2565 0.626953 53.6686 0.626953C53.0807 0.626953 52.5908 1.3503 52.5908 1.92898Z" fill="white"/>
<path d="M50.7537 5.73863H50.2393L50.1903 6.02797H51.3906L49.7984 10.8503C49.6759 11.212 49.5534 11.5737 49.5534 11.9112C49.5534 12.7792 50.2393 13.0927 50.8517 13.0927C52.3214 13.0927 53.4237 11.6701 53.6686 11.2843L53.4481 11.1396C53.2277 11.4772 52.3459 12.6587 51.3416 12.6587C51.0231 12.6587 50.9007 12.4176 50.9007 12.2006C50.9007 11.97 51.0302 11.5936 51.1446 11.2616C51.1617 11.212 51.1787 11.1626 51.1946 11.1155L53.1542 5.35284C52.3459 5.66629 51.562 5.73863 50.7537 5.73863Z" fill="white"/>
<path d="M56.706 6.02791H55.5302L55.6282 5.73857H56.0201C56.8285 5.73857 57.6123 5.66623 58.4207 5.35278L57.6613 7.78806H57.6858C58.5186 6.51014 59.9638 5.35278 61.4335 5.35278C62.6338 5.35278 63.1972 5.97969 63.1972 6.77537C63.1972 7.21115 62.6268 8.71605 62.1303 10.0259C61.7477 11.0352 61.409 11.9288 61.409 12.1282C61.409 12.3934 61.5315 12.6586 61.85 12.6586C62.5023 12.6586 63.1227 11.8892 63.5052 11.4148C63.5967 11.3013 63.6746 11.2047 63.7361 11.1396L63.9075 11.2601L63.892 11.2817L63.8498 11.3403C63.4524 11.8934 62.5909 13.0926 61.2866 13.0926C60.3803 13.0926 60.0618 12.5863 60.0618 11.7906C60.0618 11.1815 60.6011 9.78703 61.0873 8.5297C61.4865 7.49753 61.85 6.55778 61.85 6.2208C61.85 5.85913 61.6295 5.64212 61.1151 5.64212C60.2333 5.64212 57.9063 6.94415 57.1714 9.35532L56.0201 12.9962H54.5259L56.706 6.02791Z" fill="white"/>
<path d="M70.6926 12.707H69.2474L69.174 12.9963H74.1709L74.2444 12.707H72.6033L76.155 0.819916H77.6982L77.7717 0.554688H72.6277L72.5298 0.819916H74.2444L70.6926 12.707Z" fill="white"/>
<path d="M78.8985 6.0279H77.5268L77.6247 5.73856H78.9965L79.8048 3.32739C80.4172 3.32739 81.0051 3.18272 81.495 2.82104L80.5152 5.73856H82.7197L82.6217 6.0279H80.4172L78.5801 11.5012C78.574 11.5251 78.5672 11.5511 78.5599 11.5789C78.5084 11.7764 78.4331 12.0646 78.4331 12.2969C78.4331 12.5622 78.6291 12.8033 79.021 12.8033C79.6333 12.8033 80.9806 11.9353 81.8624 10.7297L82.0583 10.8743C81.25 11.8147 80.0743 13.0926 78.6291 13.0926C77.7227 13.0926 77.0859 12.7551 77.0859 11.8388C77.0859 11.4771 77.2083 11.0431 77.3798 10.5609L78.8985 6.0279Z" fill="white"/>
<path fill-rule="evenodd" clip-rule="evenodd" d="M89.7498 12.2728C89.7498 12.0076 89.8478 11.6459 89.9457 11.3566L91.8319 5.73857H90.3622L90.0192 6.8236H89.9702C89.8478 6.29314 89.3579 5.35278 88.1331 5.35278C85.7571 5.35278 83.0381 7.71573 83.0381 10.1992C83.0381 11.8388 84.0669 13.1891 85.8551 13.1891C86.9574 13.1891 88.0106 12.3452 88.4515 11.5977H88.5005C88.525 12.1523 88.574 13.1891 89.8478 13.1891C90.917 13.1891 91.6875 12.0864 92.029 11.5979C92.0786 11.5268 92.1192 11.4687 92.1503 11.4289L91.9543 11.2601C91.9259 11.2958 91.8912 11.3408 91.8511 11.3928C91.511 11.8339 90.7823 12.7792 90.1907 12.7792C89.8968 12.7792 89.7498 12.5622 89.7498 12.2728ZM88.9415 9.83755C88.4026 11.4771 87.4717 12.9238 85.8796 12.9238C85.0222 12.9238 84.5079 12.4416 84.5079 11.5013C84.5079 10.151 85.6346 5.64212 88.0351 5.64212C89.2109 5.64212 89.7743 6.58248 89.7743 7.20938C89.7743 7.43491 89.6314 7.83858 89.411 8.46131C89.278 8.83708 89.1165 9.29335 88.9415 9.83755Z" fill="white"/>
<path d="M97.0003 0.72335H95.7266L95.8 0.43401H96.6574C97.3922 0.43401 98.1271 0.337563 98.7395 0L95.1142 11.3566C95.081 11.4792 95.0449 11.5936 95.0118 11.6986C94.9473 11.9033 94.8937 12.0731 94.8937 12.2005C94.8937 12.4175 95.0162 12.6586 95.3591 12.6586C96.3389 12.6586 97.2208 11.4772 97.4412 11.1396L97.6617 11.2843C97.4167 11.6701 96.3144 13.0926 94.8447 13.0926C94.2324 13.0926 93.5465 12.7792 93.5465 11.9112C93.5465 11.5977 93.669 11.1878 93.8649 10.5609L97.0003 0.72335Z" fill="white"/>
<path d="M107.484 5.35278C106.504 5.35278 105.917 6.29314 104.961 7.90862L102.953 11.3325H102.904L102.34 7.23349C102.242 6.38959 102.071 5.35278 101.091 5.35278C99.7097 5.35278 98.7798 6.95614 98.4242 7.56924C98.3825 7.6411 98.3487 7.69936 98.323 7.73984L98.5925 7.83629C98.6239 7.78822 98.6657 7.71864 98.7162 7.63465C99.0202 7.12881 99.6385 6.10024 100.185 6.10024C100.552 6.10024 100.65 6.60659 100.699 6.96827L101.63 13.3096C101.017 14.3947 99.2539 16.8299 97.7841 16.8299C97.5637 16.8299 97.4657 16.7576 97.4657 16.637C97.4657 16.5599 97.5167 16.502 97.5778 16.4326C97.6695 16.3284 97.7841 16.1982 97.7841 15.9378C97.7841 15.3832 97.4167 15.1421 97.0003 15.1421C96.4859 15.1421 96.094 15.5279 96.094 16.0343C96.094 16.7094 96.6574 17.1193 97.4412 17.1193C99.7438 17.1193 101.483 14.2982 103.075 11.5977L105.231 7.93273C106.112 6.43781 106.676 5.88324 106.847 5.88324C106.896 5.88324 106.921 5.93146 106.921 5.97969C106.921 6.04683 106.894 6.10878 106.866 6.17517C106.833 6.25184 106.798 6.33444 106.798 6.43781C106.798 6.8236 107.19 7.0406 107.558 7.0406C108.023 7.0406 108.39 6.70304 108.39 6.24492C108.39 5.61801 107.999 5.35278 107.484 5.35278Z" fill="white"/>
</svg>
