<svg width="12" height="10" viewBox="0 0 12 10" fill="none" xmlns="http://www.w3.org/2000/svg">
<path d="M10.8482 2.90623C10.6964 3.01335 10.2389 3.33149 9.47549 3.86048C8.71209 4.38948 8.12727 4.79679 7.72102 5.08244C7.67638 5.11376 7.58155 5.18182 7.43649 5.28673C7.2914 5.39172 7.17084 5.47655 7.07491 5.54126C6.97891 5.60595 6.86286 5.67852 6.72664 5.75885C6.59046 5.83911 6.46209 5.89949 6.34156 5.93945C6.221 5.97975 6.1094 5.99971 6.00674 5.99971H5.99326C5.8906 5.99971 5.77895 5.97972 5.6584 5.93945C5.53791 5.89949 5.40943 5.83904 5.27337 5.75885C5.13723 5.67843 5.02118 5.60593 4.92518 5.54126C4.82918 5.47655 4.70872 5.39172 4.56358 5.28673C4.41854 5.18173 4.3236 5.11376 4.27896 5.08244C3.86832 4.79679 2.82358 4.07132 1.14508 2.90609C0.819199 2.67851 0.546938 2.40391 0.328224 2.08246C0.109345 1.76116 2.38419e-05 1.42409 2.38419e-05 1.07145C2.38419e-05 0.776769 0.106109 0.524515 0.318185 0.314714C0.530238 0.104865 0.78139 0 1.07148 0H10.9286C11.2723 0 11.5369 0.116053 11.7221 0.34816C11.9074 0.580313 12 0.870493 12 1.21868C12 1.49992 11.8772 1.80469 11.6317 2.1328C11.3862 2.46093 11.125 2.71876 10.8482 2.90623Z" fill="#C81912"/>
<path d="M0.669746 3.62268C2.13388 4.61366 3.24562 5.38382 4.00445 5.93298C4.25891 6.12041 4.46533 6.26672 4.62386 6.37156C4.78239 6.47647 4.99322 6.58361 5.25667 6.69293C5.52001 6.80242 5.76544 6.857 5.99316 6.857H6.00672C6.23439 6.857 6.47996 6.80242 6.74331 6.69293C7.00666 6.58361 7.21763 6.47647 7.37612 6.37156C7.53455 6.26672 7.74105 6.12041 7.99548 5.93298C8.59819 5.49105 9.70755 4.72085 11.3236 3.62268C11.5781 3.45315 11.8036 3.25883 12 3.04012V8.35692C12 8.65174 11.8951 8.90386 11.6853 9.11368C11.4755 9.32358 11.2232 9.42849 10.9285 9.42849H1.07138C0.776793 9.42849 0.524539 9.32358 0.314713 9.11368C0.104818 8.90379 0 8.65177 0 8.35692V3.04012C0.191999 3.2543 0.415147 3.44863 0.669746 3.62268Z" fill="#C81912"/>
</svg>
