<svg width="53" height="53" viewBox="0 0 53 53" fill="none" xmlns="http://www.w3.org/2000/svg">
<path fill-rule="evenodd" clip-rule="evenodd" d="M1 26.5C1 40.5833 12.4167 52 26.5 52C40.5833 52 52 40.5833 52 26.5C52 12.4167 40.5833 1 26.5 1C12.4167 1 1 12.4167 1 26.5ZM26.5 0C11.8645 0 0 11.8645 0 26.5C0 41.1355 11.8645 53 26.5 53C41.1355 53 53 41.1355 53 26.5C53 11.8645 41.1355 0 26.5 0Z" fill="#C73929"/>
<path fill-rule="evenodd" clip-rule="evenodd" d="M27.044 17C23.1698 17 20 20.3158 20 24.3684C20 24.6447 20 25.0132 20.0881 25.2895C20.7044 31 26.6038 37.6316 26.6038 37.6316C26.6918 37.7237 26.7799 37.8158 26.8679 37.9079L27.044 38L27.2201 37.9079C27.3082 37.8158 27.3962 37.8158 27.4843 37.6316C27.4843 37.6316 33.2956 31 33.9119 25.2895C33.9119 25.0132 34 24.7368 34 24.3684C34 20.3158 30.8302 17 26.956 17H27.044ZM27.044 29.0658C24.5786 29.0658 22.5535 26.9474 22.5535 24.3684C22.5535 21.7895 24.5786 19.6711 27.044 19.6711C29.5094 19.6711 31.5346 21.7895 31.5346 24.3684C31.5346 26.9474 29.5094 29.0658 27.044 29.0658Z" fill="#C81912"/>
</svg>
