<svg width="46" height="46" viewBox="0 0 46 46" fill="none" xmlns="http://www.w3.org/2000/svg">
<path d="M46 23C46 35.7026 35.7026 46 23 46C10.2975 46 0 35.7026 0 23C0 10.2975 10.2975 0 23 0C35.7026 0 46 10.2975 46 23Z" fill="white"/>
<path fill-rule="evenodd" clip-rule="evenodd" d="M30.6809 22.761L19 16.017V29.5049L30.6809 22.761ZM31.2128 23.6086C31.8652 23.2319 31.8652 22.2901 31.2128 21.9134L19.4681 15.1326C18.8156 14.7559 18 15.2268 18 15.9802V29.5418C18 30.2952 18.8156 30.7661 19.4681 30.3894L31.2128 23.6086Z" fill="#C81912"/>
</svg>
