<svg width="46" height="46" viewBox="0 0 46 46" fill="none" xmlns="http://www.w3.org/2000/svg">
<mask id="path-1-inside-1_117_113" fill="white">
<path fill-rule="evenodd" clip-rule="evenodd" d="M0.978723 23C0.978723 35.162 10.838 45.0213 23 45.0213C35.162 45.0213 45.0213 35.162 45.0213 23C45.0213 10.838 35.162 0.978723 23 0.978723C10.838 0.978723 0.978723 10.838 0.978723 23ZM23 0C10.2975 0 0 10.2975 0 23C0 35.7025 10.2975 46 23 46C35.7025 46 46 35.7025 46 23C46 10.2975 35.7025 0 23 0Z"/>
<path d="M30.8298 22.6418C31.4823 23.0185 31.4823 23.9602 30.8298 24.337L19.0851 31.1178C18.4326 31.4945 17.617 31.0236 17.617 30.2702V16.7086C17.617 15.9551 18.4326 15.4843 19.0851 15.861L30.8298 22.6418Z"/>
</mask>
<path d="M30.8298 22.6418L30.3298 23.5078L30.8298 22.6418ZM30.8298 24.337L30.3298 23.4709H30.3298L30.8298 24.337ZM19.0851 31.1178L18.5851 30.2517L19.0851 31.1178ZM17.617 30.2702H18.617H17.617ZM17.617 16.7086H16.617H17.617ZM19.0851 15.861L19.5851 14.9949L19.0851 15.861ZM23 44.0213C11.3903 44.0213 1.97872 34.6097 1.97872 23H-0.0212766C-0.0212766 35.7143 10.2857 46.0213 23 46.0213V44.0213ZM44.0213 23C44.0213 34.6097 34.6097 44.0213 23 44.0213V46.0213C35.7143 46.0213 46.0213 35.7143 46.0213 23H44.0213ZM23 1.97872C34.6097 1.97872 44.0213 11.3903 44.0213 23H46.0213C46.0213 10.2857 35.7143 -0.0212766 23 -0.0212766V1.97872ZM1.97872 23C1.97872 11.3903 11.3903 1.97872 23 1.97872V-0.0212766C10.2857 -0.0212766 -0.0212766 10.2857 -0.0212766 23H1.97872ZM1 23C1 10.8497 10.8497 1 23 1V-1C9.74517 -1 -1 9.74517 -1 23H1ZM23 45C10.8497 45 1 35.1503 1 23H-1C-1 36.2548 9.74517 47 23 47V45ZM45 23C45 35.1503 35.1503 45 23 45V47C36.2548 47 47 36.2548 47 23H45ZM23 1C35.1503 1 45 10.8497 45 23H47C47 9.74517 36.2548 -1 23 -1V1ZM30.3298 23.5078C30.3327 23.5095 30.3317 23.5093 30.329 23.5065C30.3264 23.5039 30.324 23.5006 30.3222 23.4974C30.3204 23.4942 30.3197 23.4919 30.3194 23.4908C30.3192 23.4902 30.3192 23.4898 30.3192 23.4896C30.3191 23.4895 30.3191 23.4894 30.3191 23.4894C30.3191 23.4893 30.3191 23.4893 30.3192 23.4891C30.3192 23.4889 30.3192 23.4885 30.3194 23.488C30.3197 23.4868 30.3204 23.4845 30.3222 23.4814C30.324 23.4781 30.3264 23.4748 30.329 23.4722C30.3317 23.4694 30.3327 23.4692 30.3298 23.4709L31.3298 25.203C32.6489 24.4414 32.6489 22.5373 31.3298 21.7757L30.3298 23.5078ZM30.3298 23.4709L18.5851 30.2517L19.5851 31.9838L31.3298 25.203L30.3298 23.4709ZM18.5851 30.2517C18.5822 30.2534 18.5828 30.2526 18.5866 30.2517C18.5902 30.2507 18.5942 30.2503 18.5979 30.2503C18.6015 30.2504 18.6039 30.2509 18.605 30.2512C18.6056 30.2514 18.606 30.2515 18.6061 30.2516C18.6063 30.2517 18.6064 30.2517 18.6064 30.2517C18.6064 30.2517 18.6065 30.2518 18.6066 30.2519C18.6067 30.252 18.607 30.2522 18.6075 30.2526C18.6083 30.2535 18.61 30.2553 18.6118 30.2583C18.6137 30.2616 18.6153 30.2653 18.6163 30.2688C18.6174 30.2726 18.617 30.2735 18.617 30.2702H16.617C16.617 31.7934 18.266 32.7454 19.5851 31.9838L18.5851 30.2517ZM18.617 30.2702V16.7086H16.617V30.2702H18.617ZM18.617 16.7086C18.617 16.7052 18.6174 16.7061 18.6163 16.7099C18.6153 16.7134 18.6137 16.7172 18.6118 16.7204C18.61 16.7234 18.6083 16.7252 18.6075 16.7261C18.607 16.7265 18.6067 16.7267 18.6066 16.7268C18.6065 16.7269 18.6064 16.727 18.6064 16.727C18.6064 16.727 18.6063 16.727 18.6061 16.7271C18.606 16.7272 18.6056 16.7273 18.605 16.7275C18.6039 16.7278 18.6015 16.7283 18.5979 16.7284C18.5942 16.7284 18.5902 16.728 18.5866 16.7271C18.5828 16.7261 18.5822 16.7253 18.5851 16.727L19.5851 14.9949C18.266 14.2333 16.617 15.1853 16.617 16.7086H18.617ZM18.5851 16.727L30.3298 23.5078L31.3298 21.7757L19.5851 14.9949L18.5851 16.727Z" fill="white" mask="url(#path-1-inside-1_117_113)"/>
</svg>
