<svg width="17" height="17" viewBox="0 0 17 17" fill="none" xmlns="http://www.w3.org/2000/svg">
<path d="M16.8389 16.0751L12.4498 11.7561C13.5992 10.5074 14.3054 8.85588 14.3054 7.03858C14.3048 3.15103 11.1028 0 7.15254 0C3.2023 0 0.000244141 3.15103 0.000244141 7.03858C0.000244141 10.9261 3.2023 14.0772 7.15254 14.0772C8.85932 14.0772 10.4247 13.4868 11.6544 12.5054L16.0605 16.8414C16.2752 17.0529 16.6238 17.0529 16.8384 16.8414C17.0536 16.6299 17.0536 16.2866 16.8389 16.0751ZM7.15254 12.9942C3.81021 12.9942 1.10073 10.3278 1.10073 7.03858C1.10073 3.74935 3.81021 1.08293 7.15254 1.08293C10.4949 1.08293 13.2044 3.74935 13.2044 7.03858C13.2044 10.3278 10.4949 12.9942 7.15254 12.9942Z" fill="#D9D9D9"/>
</svg>
