<svg width="39" height="9" viewBox="0 0 39 9" fill="none" xmlns="http://www.w3.org/2000/svg">
<path fill-rule="evenodd" clip-rule="evenodd" d="M38.8223 4.07022L34.9464 0.178453C34.7095 -0.0594845 34.3259 -0.0594845 34.0904 0.178453C33.8534 0.416391 33.8534 0.801553 34.0904 1.038L36.9325 3.89177H0.605742C0.271029 3.89177 0 4.16391 0 4.5C0 4.83609 0.271029 5.10823 0.605742 5.10823H36.9325L34.0904 7.962C33.8534 8.19993 33.8534 8.5851 34.0904 8.82155C34.2089 8.94052 34.3629 9 34.5184 9C34.6739 9 34.8279 8.94052 34.9464 8.82155L38.8223 4.92978C39.0592 4.69184 39.0592 4.30668 38.8223 4.07022Z" fill="#060705"/>
</svg>
