<svg width="21" height="16" viewBox="0 0 21 16" fill="none" xmlns="http://www.w3.org/2000/svg">
<path fill-rule="evenodd" clip-rule="evenodd" d="M20.1816 1.37359C19.4234 0.397885 18.0239 0 15.3511 0H5.64872C2.91485 0 1.49151 0.423704 0.736211 1.46229C0 2.47483 0 3.9669 0 6.03204V9.96797C0 13.9688 0.873519 16 5.64865 16H15.3511C17.6691 16 18.9535 15.6488 19.7843 14.7879C20.6365 13.9051 21 12.4637 21 9.96797V6.03204C21 3.85428 20.943 2.35342 20.1816 1.37351V1.37359ZM13.4822 8.54353L9.07637 11.0363C8.97783 11.0921 8.87023 11.1196 8.76262 11.1196C8.64075 11.1196 8.51924 11.0842 8.41163 11.0138C8.20893 10.8808 8.08522 10.6429 8.08522 10.3863V5.41668C8.08522 5.16055 8.20849 4.92296 8.41075 4.78975C8.61324 4.65678 8.86474 4.64767 9.07476 4.76591L13.4805 7.24248C13.7048 7.36856 13.8456 7.61922 13.8458 7.89253C13.846 8.16608 13.7059 8.41697 13.4822 8.54353Z" fill="#C81912"/>
</svg>
