<svg width="20" height="14" viewBox="0 0 20 14" fill="none" xmlns="http://www.w3.org/2000/svg">
<path fill-rule="evenodd" clip-rule="evenodd" d="M19.83 3.28161C19.7181 1.97106 18.9262 0.318385 17.2923 0.257497C12.7379 -0.0440445 7.34158 -0.125229 2.70185 0.257497C1.26224 0.416966 0.275999 2.14213 0.170015 3.45267C-0.0566718 6.20714 -0.0566718 7.77283 0.170015 10.5273C0.278943 11.8378 1.23868 13.5746 2.70479 13.7573C7.39751 14.0588 12.7674 14.1023 17.2952 13.7573C18.7142 13.5137 19.7211 11.8378 19.83 10.5273C20.0567 7.77283 20.0567 6.03317 19.83 3.27871V3.28161ZM7.50055 10.4838V3.42368L13.7506 6.95519L7.50055 10.4838Z" fill="white"/>
</svg>
